<?xml version="1.0" encoding="UTF-8" standalone="no"?>
<!DOCTYPE svg PUBLIC "-//W3C//DTD SVG 1.1//EN"
 "http://www.w3.org/Graphics/SVG/1.1/DTD/svg11.dtd">
<!-- Generated by graphviz version 2.40.1 (0)
 -->
<!-- Title: G Pages: 1 -->
<svg width="513pt" height="516pt"
 viewBox="0.00 0.00 512.50 516.00" xmlns="http://www.w3.org/2000/svg" xmlns:xlink="http://www.w3.org/1999/xlink">
<g id="graph0" class="graph" transform="scale(1 1) rotate(0) translate(4 512)">
<title>G</title>
<polygon fill="transparent" stroke="transparent" points="-4,4 -4,-512 508.5,-512 508.5,4 -4,4"/>
<!-- chisel -->
<g id="node1" class="node">
<title>chisel</title>
<polygon fill="#ffffff" stroke="#000000" points="127,-508 0,-508 0,-472 127,-472 127,-508"/>
<text text-anchor="middle" x="63.5" y="-486.3" font-family="Times,serif" font-size="14.00" fill="#000000">Our chisel code</text>
</g>
<!-- FIRRTL -->
<g id="node3" class="node">
<title>FIRRTL</title>
<polygon fill="#ffffff" stroke="#000000" points="99,-390 28,-390 28,-354 99,-354 99,-390"/>
<text text-anchor="middle" x="63.5" y="-368.3" font-family="Times,serif" font-size="14.00" fill="#000000">FIRRTL</text>
</g>
<!-- chisel&#45;&gt;FIRRTL -->
<g id="edge1" class="edge">
<title>chisel&#45;&gt;FIRRTL</title>
<path fill="none" stroke="#000000" d="M63.5,-471.8211C63.5,-452.7094 63.5,-422.3891 63.5,-400.1751"/>
<polygon fill="#000000" stroke="#000000" points="67.0001,-400.0059 63.5,-390.0059 60.0001,-400.006 67.0001,-400.0059"/>
<text text-anchor="middle" x="132" y="-426.8" font-family="Times,serif" font-size="14.00" fill="#000000">		$ sbt run</text>
<text text-anchor="middle" x="132" y="-411.8" font-family="Times,serif" font-size="14.00" fill="#000000">	</text>
</g>
<!-- FPGAROM -->
<g id="node2" class="node">
<title>FPGAROM</title>
<polygon fill="#ffffff" stroke="#000000" points="112.5,-154 14.5,-154 14.5,-118 112.5,-118 112.5,-154"/>
<text text-anchor="middle" x="63.5" y="-132.3" font-family="Times,serif" font-size="14.00" fill="#000000">FPGA ROM</text>
</g>
<!-- FPGA -->
<g id="node5" class="node">
<title>FPGA</title>
<polygon fill="#ffffff" stroke="#000000" points="92,-36 35,-36 35,0 92,0 92,-36"/>
<text text-anchor="middle" x="63.5" y="-14.3" font-family="Times,serif" font-size="14.00" fill="#000000">FPGA</text>
</g>
<!-- FPGAROM&#45;&gt;FPGA -->
<g id="edge4" class="edge">
<title>FPGAROM&#45;&gt;FPGA</title>
<path fill="none" stroke="#000000" d="M63.5,-117.8211C63.5,-98.7094 63.5,-68.3891 63.5,-46.1751"/>
<polygon fill="#000000" stroke="#000000" points="67.0001,-46.0059 63.5,-36.0059 60.0001,-46.006 67.0001,-46.0059"/>
<text text-anchor="middle" x="125" y="-72.8" font-family="Times,serif" font-size="14.00" fill="#000000">		$ ?????</text>
<text text-anchor="middle" x="125" y="-57.8" font-family="Times,serif" font-size="14.00" fill="#000000">	</text>
</g>
<!-- Verilog -->
<g id="node4" class="node">
<title>Verilog</title>
<polygon fill="#ffffff" stroke="#000000" points="97,-272 30,-272 30,-236 97,-236 97,-272"/>
<text text-anchor="middle" x="63.5" y="-250.3" font-family="Times,serif" font-size="14.00" fill="#000000">Verilog</text>
</g>
<!-- FIRRTL&#45;&gt;Verilog -->
<g id="edge2" class="edge">
<title>FIRRTL&#45;&gt;Verilog</title>
<path fill="none" stroke="#000000" d="M63.5,-353.8211C63.5,-334.7094 63.5,-304.3891 63.5,-282.1751"/>
<polygon fill="#000000" stroke="#000000" points="67.0001,-282.0059 63.5,-272.0059 60.0001,-282.006 67.0001,-282.0059"/>
<text text-anchor="middle" x="264" y="-308.8" font-family="Times,serif" font-size="14.00" fill="#000000">		$ firrtl &#45;i FPGATopLevel.fir &#45;o FPGATopLevel.v</text>
<text text-anchor="middle" x="264" y="-293.8" font-family="Times,serif" font-size="14.00" fill="#000000">	</text>
</g>
<!-- Verilog&#45;&gt;FPGAROM -->
<g id="edge3" class="edge">
<title>Verilog&#45;&gt;FPGAROM</title>
<path fill="none" stroke="#000000" d="M63.5,-235.8211C63.5,-216.7094 63.5,-186.3891 63.5,-164.1751"/>
<polygon fill="#000000" stroke="#000000" points="67.0001,-164.0059 63.5,-154.0059 60.0001,-164.006 67.0001,-164.0059"/>
<text text-anchor="middle" x="284" y="-190.8" font-family="Times,serif" font-size="14.00" fill="#000000">		$ (WIP) Vivedo FPGATopLevel.v FPGATopLevel.rom</text>
<text text-anchor="middle" x="284" y="-175.8" font-family="Times,serif" font-size="14.00" fill="#000000">	</text>
</g>
</g>
</svg>
