<?xml version="1.0" encoding="UTF-8" standalone="no"?>
<!DOCTYPE svg PUBLIC "-//W3C//DTD SVG 1.1//EN"
 "http://www.w3.org/Graphics/SVG/1.1/DTD/svg11.dtd">
<!-- Generated by graphviz version 2.40.1 (0)
 -->
<!-- Title: G Pages: 1 -->
<svg width="1519pt" height="492pt"
 viewBox="0.00 0.00 1519.00 492.00" xmlns="http://www.w3.org/2000/svg" xmlns:xlink="http://www.w3.org/1999/xlink">
<g id="graph0" class="graph" transform="scale(1 1) rotate(0) translate(4 488)">
<title>G</title>
<polygon fill="#ffffff" stroke="transparent" points="-4,4 -4,-488 1515,-488 1515,4 -4,4"/>
<!-- chisel -->
<g id="node1" class="node">
<title>chisel</title>
<polygon fill="#ffffff" stroke="#000000" points="471.5,-483 344.5,-483 344.5,-447 471.5,-447 471.5,-483"/>
<text text-anchor="middle" x="408" y="-461.3" font-family="Times,serif" font-size="14.00" fill="#000000">Our chisel code</text>
</g>
<!-- FIRRTL -->
<g id="node3" class="node">
<title>FIRRTL</title>
<polygon fill="#ffffff" stroke="#000000" points="373.5,-380 192.5,-380 192.5,-342 373.5,-342 373.5,-380"/>
<text text-anchor="middle" x="283" y="-364.8" font-family="Times,serif" font-size="14.00" fill="#000000">FIRRTL representation</text>
<text text-anchor="middle" x="283" y="-349.8" font-family="Times,serif" font-size="14.00" fill="#000000">( FPGATopLevel.fir )</text>
</g>
<!-- chisel&#45;&gt;FIRRTL -->
<g id="edge3" class="edge">
<title>chisel&#45;&gt;FIRRTL</title>
<path fill="none" stroke="#000000" d="M344.3677,-454.0038C316.5111,-447.7694 288.2713,-439.0009 280,-428 271.9941,-417.3521 271.7435,-402.8389 273.9154,-390.0423"/>
<polygon fill="#000000" stroke="#000000" points="277.3381,-390.7736 276.0745,-380.2544 270.5025,-389.2657 277.3381,-390.7736"/>
<text text-anchor="start" x="280" y="-416.8" font-family="monospace" font-size="14.00" fill="#000000">		 &#160;$ cd FPGA</text>
<text text-anchor="start" x="280" y="-401.8" font-family="monospace" font-size="14.00" fill="#000000">		 &#160;$ sbt run</text>
</g>
<!-- test -->
<g id="node9" class="node">
<title>test</title>
<ellipse fill="#ffffff" stroke="#000000" cx="532" cy="-361" rx="108.5808" ry="18"/>
<text text-anchor="middle" x="532" y="-357.3" font-family="Times,serif" font-size="14.00" fill="#000000">specific test in chisel</text>
</g>
<!-- chisel&#45;&gt;test -->
<g id="edge4" class="edge">
<title>chisel&#45;&gt;test</title>
<path fill="none" stroke="#000000" d="M471.7319,-451.8196C485.7873,-446.3926 499.5744,-438.7508 510,-428 520.0879,-417.5974 525.5504,-402.492 528.5081,-389.2561"/>
<polygon fill="#000000" stroke="#000000" points="531.9969,-389.6388 530.3837,-379.1675 525.1148,-388.3593 531.9969,-389.6388"/>
<text text-anchor="start" x="527" y="-416.8" font-family="monospace" font-size="14.00" fill="#000000">		 &#160;$ cd FPGA</text>
<text text-anchor="start" x="527" y="-401.8" font-family="monospace" font-size="14.00" fill="#000000">		 &#160;$ sbt testOnly mytest</text>
</g>
<!-- reference -->
<g id="node2" class="node">
<title>reference</title>
<polygon fill="#ffffff" stroke="#000000" points="967.5,-484 842.5,-484 842.5,-446 967.5,-446 967.5,-484"/>
<text text-anchor="middle" x="905" y="-468.8" font-family="Times,serif" font-size="14.00" fill="#000000">Our reference</text>
<text text-anchor="middle" x="905" y="-453.8" font-family="Times,serif" font-size="14.00" fill="#000000">implenentation</text>
</g>
<!-- test_data -->
<g id="node7" class="node">
<title>test_data</title>
<polygon fill="#ffffff" stroke="#000000" points="945,-380 865,-380 865,-342 945,-342 945,-380"/>
<text text-anchor="middle" x="905" y="-364.8" font-family="Times,serif" font-size="14.00" fill="#000000">FPGA</text>
<text text-anchor="middle" x="905" y="-349.8" font-family="Times,serif" font-size="14.00" fill="#000000">test data</text>
</g>
<!-- reference&#45;&gt;test_data -->
<g id="edge2" class="edge">
<title>reference&#45;&gt;test_data</title>
<path fill="none" stroke="#000000" d="M905,-445.9248C905,-430.4094 905,-408.2505 905,-390.4579"/>
<polygon fill="#000000" stroke="#000000" points="908.5001,-390.3064 905,-380.3065 901.5001,-390.3065 908.5001,-390.3064"/>
<text text-anchor="start" x="905" y="-416.8" font-family="monospace" font-size="14.00" fill="#000000">		 &#160;$ cd planning/simulator</text>
<text text-anchor="start" x="905" y="-401.8" font-family="monospace" font-size="14.00" fill="#000000">		 &#160;$ ./simulator.py my_midi_file.mid &#45;s &#45;o &#45;n &gt; events.txt</text>
</g>
<!-- Verilog -->
<g id="node4" class="node">
<title>Verilog</title>
<polygon fill="#ffffff" stroke="#000000" points="390,-276 176,-276 176,-238 390,-238 390,-276"/>
<text text-anchor="middle" x="283" y="-260.8" font-family="Times,serif" font-size="14.00" fill="#000000">Verilog HDL representation</text>
<text text-anchor="middle" x="283" y="-245.8" font-family="Times,serif" font-size="14.00" fill="#000000">( FPGATopLevel.v )</text>
</g>
<!-- FIRRTL&#45;&gt;Verilog -->
<g id="edge5" class="edge">
<title>FIRRTL&#45;&gt;Verilog</title>
<path fill="none" stroke="#000000" d="M283,-341.9248C283,-326.4094 283,-304.2505 283,-286.4579"/>
<polygon fill="#000000" stroke="#000000" points="286.5001,-286.3064 283,-276.3065 279.5001,-286.3065 286.5001,-286.3064"/>
<text text-anchor="start" x="283" y="-312.8" font-family="monospace" font-size="14.00" fill="#000000">		 &#160;$ cd FPGA</text>
<text text-anchor="start" x="283" y="-297.8" font-family="monospace" font-size="14.00" fill="#000000">		 &#160;$ firrtl &#45;i FPGATopLevel.fir &#45;o FPGATopLevel.v</text>
</g>
<!-- simulator -->
<g id="node5" class="node">
<title>simulator</title>
<polygon fill="#ffffff" stroke="#000000" points="168,-156 0,-156 0,-118 168,-118 168,-156"/>
<text text-anchor="middle" x="84" y="-140.8" font-family="Times,serif" font-size="14.00" fill="#000000">Cycle&#45;accurate</text>
<text text-anchor="middle" x="84" y="-125.8" font-family="Times,serif" font-size="14.00" fill="#000000">FGPA C++ simulator</text>
</g>
<!-- Verilog&#45;&gt;simulator -->
<g id="edge6" class="edge">
<title>Verilog&#45;&gt;simulator</title>
<path fill="none" stroke="#000000" d="M175.8724,-249.0619C136.0228,-243.7048 97.4329,-234.7893 85,-220 72.7898,-205.4756 72.8755,-183.9347 75.8387,-166.4375"/>
<polygon fill="#000000" stroke="#000000" points="79.3656,-166.6671 77.9713,-156.1644 72.5117,-165.2442 79.3656,-166.6671"/>
<text text-anchor="start" x="85" y="-200.8" font-family="monospace" font-size="14.00" fill="#000000">		 &#160;$ cd FPGA</text>
<text text-anchor="start" x="85" y="-185.8" font-family="monospace" font-size="14.00" fill="#000000">		 &#160;$ verilator FPGATopLevel.v </text>
</g>
<!-- FPGAROM -->
<g id="node6" class="node">
<title>FPGAROM</title>
<polygon fill="#ffffff" stroke="#000000" points="558,-155 406,-155 406,-119 558,-119 558,-155"/>
<text text-anchor="middle" x="482" y="-133.3" font-family="Times,serif" font-size="14.00" fill="#000000">FPGA FLASH ROM</text>
</g>
<!-- Verilog&#45;&gt;FPGAROM -->
<g id="edge7" class="edge">
<title>Verilog&#45;&gt;FPGAROM</title>
<path fill="none" stroke="#000000" d="M390.2364,-244.0355C420.8645,-238.3265 448.9521,-230.477 460,-220 474.7388,-206.0228 480.0205,-183.4108 481.7368,-165.3156"/>
<polygon fill="#000000" stroke="#000000" points="485.233,-165.4863 482.3799,-155.2828 478.2473,-165.0384 485.233,-165.4863"/>
<text text-anchor="start" x="481" y="-192.8" font-family="monospace" font-size="14.00" fill="#000000">		 &#160;$ cd FPGA</text>
<text text-anchor="start" x="481" y="-177.8" font-family="monospace" font-size="14.00" fill="#000000">		 &#160;$ (WIP) vivedo FPGATopLevel.v FPGATopLevel.something</text>
</g>
<!-- FPGA -->
<g id="node8" class="node">
<title>FPGA</title>
<ellipse fill="#ffffff" stroke="#000000" cx="482" cy="-18" rx="37.0935" ry="18"/>
<text text-anchor="middle" x="482" y="-14.3" font-family="Times,serif" font-size="14.00" fill="#000000">FPGA</text>
</g>
<!-- FPGAROM&#45;&gt;FPGA -->
<g id="edge8" class="edge">
<title>FPGAROM&#45;&gt;FPGA</title>
<path fill="none" stroke="#000000" d="M482,-118.9265C482,-99.7051 482,-69.0332 482,-46.5417"/>
<polygon fill="#000000" stroke="#000000" points="485.5001,-46.2436 482,-36.2436 478.5001,-46.2437 485.5001,-46.2436"/>
<text text-anchor="start" x="482" y="-72.8" font-family="monospace" font-size="14.00" fill="#000000">		 &#160;$ ?????</text>
<text text-anchor="start" x="482" y="-57.8" font-family="monospace" font-size="14.00" fill="#000000">		 &#160;$ ?????</text>
</g>
<!-- test_data&#45;&gt;chisel -->
<g id="edge1" class="edge">
<title>test_data&#45;&gt;chisel</title>
<path fill="none" stroke="#000000" d="M896.6123,-380.1983C888.6189,-395.962 874.9819,-417.3606 856,-428 824.248,-445.7971 600.8465,-457.305 481.9916,-462.2384"/>
<polygon fill="#000000" stroke="#000000" points="481.7213,-458.7464 471.873,-462.653 482.0079,-465.7405 481.7213,-458.7464"/>
</g>
</g>
</svg>
