<?xml version="1.0" encoding="UTF-8" standalone="no"?>
<!DOCTYPE svg PUBLIC "-//W3C//DTD SVG 1.1//EN"
 "http://www.w3.org/Graphics/SVG/1.1/DTD/svg11.dtd">
<!-- Generated by graphviz version 2.40.1 (0)
 -->
<!-- Title: G Pages: 1 -->
<svg width="1114pt" height="546pt"
 viewBox="0.00 0.00 1114.00 546.00" xmlns="http://www.w3.org/2000/svg" xmlns:xlink="http://www.w3.org/1999/xlink">
<g id="graph0" class="graph" transform="scale(1 1) rotate(0) translate(4 542)">
<title>G</title>
<polygon fill="#ffffff" stroke="transparent" points="-4,4 -4,-542 1110,-542 1110,4 -4,4"/>
<!-- dac -->
<g id="node1" class="node">
<title>dac</title>
<polygon fill="#bbbbff" stroke="#bbbbff" points="941,-212 887,-212 887,-176 941,-176 941,-212"/>
<text text-anchor="middle" x="914" y="-190.3" font-family="Times,serif" font-size="14.00" fill="#000000">DAC</text>
</g>
<!-- jack -->
<g id="node15" class="node">
<title>jack</title>
<polygon fill="#ffbbbb" stroke="#ffbbbb" points="1097.5,-212 1019.5,-212 1019.5,-176 1097.5,-176 1097.5,-212"/>
<text text-anchor="middle" x="1058.5" y="-190.3" font-family="Times,serif" font-size="14.00" fill="#000000">MiniJack</text>
</g>
<!-- dac&#45;&gt;jack -->
<g id="edge9" class="edge">
<title>dac&#45;&gt;jack</title>
<path fill="none" stroke="#000000" d="M941.1793,-194C960.3213,-194 986.4909,-194 1009.2575,-194"/>
<polygon fill="#000000" stroke="#000000" points="1009.4409,-197.5001 1019.4409,-194 1009.4408,-190.5001 1009.4409,-197.5001"/>
</g>
<!-- fpga -->
<g id="node2" class="node">
<title>fpga</title>
<polygon fill="#bbbbff" stroke="#bbbbff" points="759,-406 702,-406 702,-370 759,-370 759,-406"/>
<text text-anchor="middle" x="730.5" y="-384.3" font-family="Times,serif" font-size="14.00" fill="#000000">FPGA</text>
</g>
<!-- fpga&#45;&gt;dac -->
<g id="edge13" class="edge">
<title>fpga&#45;&gt;dac</title>
<path fill="none" stroke="#000000" d="M746.6875,-369.5577C755.5503,-359.547 766.7795,-347.003 777,-336 815.3585,-294.705 861.0007,-247.8356 888.7196,-219.6146"/>
<polygon fill="#000000" stroke="#000000" points="891.5251,-221.7534 896.0415,-212.1694 886.5342,-216.8451 891.5251,-221.7534"/>
<text text-anchor="middle" x="806.5" y="-339.8" font-family="Times,serif" font-size="14.00" fill="#000000">samples</text>
</g>
<!-- caps -->
<g id="node8" class="node">
<title>caps</title>
<polygon fill="#bbbbff" stroke="#bbbbff" points="974,-431 854,-431 854,-393 974,-393 974,-431"/>
<text text-anchor="middle" x="914" y="-415.8" font-family="Times,serif" font-size="14.00" fill="#000000">Avkoblings&#45;</text>
<text text-anchor="middle" x="914" y="-400.8" font-family="Times,serif" font-size="14.00" fill="#000000">kondensatorer</text>
</g>
<!-- fpga&#45;&gt;caps -->
<g id="edge14" class="edge">
<title>fpga&#45;&gt;caps</title>
<path fill="none" stroke="#000000" d="M769.1634,-393.0568C790.788,-395.8851 818.4103,-399.4978 843.7225,-402.8084"/>
<polygon fill="#000000" stroke="#000000" points="769.5414,-389.5765 759.1719,-391.75 768.6335,-396.5174 769.5414,-389.5765"/>
<polygon fill="#000000" stroke="#000000" points="843.2916,-406.2818 853.6611,-404.1083 844.1995,-399.3409 843.2916,-406.2818"/>
</g>
<!-- gpio -->
<g id="node14" class="node">
<title>gpio</title>
<polygon fill="#ffbbbb" stroke="#ffbbbb" points="1106,-383 1011,-383 1011,-347 1106,-347 1106,-383"/>
<text text-anchor="middle" x="1058.5" y="-361.3" font-family="Times,serif" font-size="14.00" fill="#000000">GPIO (70x)</text>
</g>
<!-- fpga&#45;&gt;gpio -->
<g id="edge8" class="edge">
<title>fpga&#45;&gt;gpio</title>
<path fill="none" stroke="#000000" d="M769.2711,-385.2813C826.5211,-381.2668 934.0626,-373.7258 1000.6562,-369.0561"/>
<polygon fill="#000000" stroke="#000000" points="768.7647,-381.8081 759.0341,-385.9991 769.2544,-388.791 768.7647,-381.8081"/>
<polygon fill="#000000" stroke="#000000" points="1001.2479,-372.5233 1010.9785,-368.3323 1000.7582,-365.5405 1001.2479,-372.5233"/>
</g>
<!-- micro -->
<g id="node3" class="node">
<title>micro</title>
<polygon fill="#bbbbff" stroke="#bbbbff" points="540,-275 412,-275 412,-239 540,-239 540,-275"/>
<text text-anchor="middle" x="476" y="-253.3" font-family="Times,serif" font-size="14.00" fill="#000000">Microkontroller</text>
</g>
<!-- micro&#45;&gt;dac -->
<g id="edge12" class="edge">
<title>micro&#45;&gt;dac</title>
<path fill="none" stroke="#000000" d="M540.4259,-245.7982C546.3634,-244.8269 552.2906,-243.8801 558,-243 673.9407,-225.1283 811.6233,-207.0751 876.5599,-198.7486"/>
<polygon fill="#000000" stroke="#000000" points="877.2372,-202.1906 886.7123,-197.4502 876.349,-195.2472 877.2372,-202.1906"/>
<text text-anchor="middle" x="730.5" y="-224.8" font-family="Times,serif" font-size="14.00" fill="#000000">init</text>
</g>
<!-- micro&#45;&gt;fpga -->
<g id="edge11" class="edge">
<title>micro&#45;&gt;fpga</title>
<path fill="none" stroke="#000000" d="M540.0832,-266.4305C596.8423,-275.2513 672.4593,-288.332 684,-297 704.5093,-312.4041 716.6841,-339.4326 723.397,-360.0429"/>
<polygon fill="#000000" stroke="#000000" points="720.1151,-361.2834 726.3455,-369.8526 726.8188,-359.2684 720.1151,-361.2834"/>
<text text-anchor="middle" x="621" y="-360.8" font-family="Times,serif" font-size="14.00" fill="#000000">SPI</text>
<text text-anchor="start" x="558" y="-345.8" font-family="Times,serif" font-size="14.00" fill="#000000">med DMA:</text>
<text text-anchor="start" x="558" y="-330.8" font-family="Times,serif" font-size="14.00" fill="#000000">&#45;keyboard state</text>
<text text-anchor="start" x="558" y="-315.8" font-family="Times,serif" font-size="14.00" fill="#000000">&#45;sound envelope</text>
<text text-anchor="start" x="558" y="-300.8" font-family="Times,serif" font-size="14.00" fill="#000000">&#45;perhaps samples</text>
</g>
<!-- micro&#45;&gt;gpio -->
<g id="edge7" class="edge">
<title>micro&#45;&gt;gpio</title>
<path fill="none" stroke="#000000" d="M550.2227,-258.7777C590.0748,-260.5403 639.931,-264.0435 684,-271 797.9898,-288.9939 928.0255,-325.2956 1000.9781,-347.1449"/>
<polygon fill="#000000" stroke="#000000" points="550.1899,-255.2734 540.0534,-258.3558 549.8997,-262.2674 550.1899,-255.2734"/>
<polygon fill="#000000" stroke="#000000" points="1000.301,-350.5962 1010.8855,-350.1286 1002.3196,-343.8936 1000.301,-350.5962"/>
</g>
<!-- clk -->
<g id="node4" class="node">
<title>clk</title>
<polygon fill="#bbbbff" stroke="#bbbbff" points="300.5,-130 221.5,-130 221.5,-92 300.5,-92 300.5,-130"/>
<text text-anchor="middle" x="261" y="-114.8" font-family="Times,serif" font-size="14.00" fill="#000000">Klokke</text>
<text text-anchor="middle" x="261" y="-99.8" font-family="Times,serif" font-size="14.00" fill="#000000">(48MHz)</text>
</g>
<!-- clk&#45;&gt;micro -->
<g id="edge15" class="edge">
<title>clk&#45;&gt;micro</title>
<path fill="none" stroke="#000000" d="M300.532,-123.1775C312.015,-127.4443 324.329,-132.758 335,-139 379.6376,-165.1107 424.2472,-205.4313 450.9872,-231.5195"/>
<polygon fill="#000000" stroke="#000000" points="448.7903,-234.2687 458.3664,-238.8017 453.7072,-229.2863 448.7903,-234.2687"/>
</g>
<!-- osc -->
<g id="node5" class="node">
<title>osc</title>
<polygon fill="#bbbbff" stroke="#bbbbff" points="304,-484 218,-484 218,-446 304,-446 304,-484"/>
<text text-anchor="middle" x="261" y="-468.8" font-family="Times,serif" font-size="14.00" fill="#000000">Oscillator</text>
<text text-anchor="middle" x="261" y="-453.8" font-family="Times,serif" font-size="14.00" fill="#000000">(20MHz)</text>
</g>
<!-- osc&#45;&gt;fpga -->
<g id="edge16" class="edge">
<title>osc&#45;&gt;fpga</title>
<path fill="none" stroke="#000000" d="M304.0925,-470.7391C383.2355,-479.3597 555.411,-489.0882 684,-432 693.3994,-427.8271 702.079,-420.9223 709.3312,-413.8057"/>
<polygon fill="#000000" stroke="#000000" points="712.2741,-415.7881 716.6068,-406.1196 707.1905,-410.9759 712.2741,-415.7881"/>
</g>
<!-- flash -->
<g id="node6" class="node">
<title>flash</title>
<polygon fill="#bbbbff" stroke="#bbbbff" points="524,-390 428,-390 428,-352 524,-352 524,-390"/>
<text text-anchor="middle" x="476" y="-374.8" font-family="Times,serif" font-size="14.00" fill="#000000">FPGA</text>
<text text-anchor="middle" x="476" y="-359.8" font-family="Times,serif" font-size="14.00" fill="#000000">flashbrikke</text>
</g>
<!-- flash&#45;&gt;fpga -->
<g id="edge10" class="edge">
<title>flash&#45;&gt;fpga</title>
<path fill="none" stroke="#000000" d="M524.1687,-374.2176C572.7301,-377.4613 646.7489,-382.4056 691.6779,-385.4068"/>
<polygon fill="#000000" stroke="#000000" points="691.6836,-388.9149 701.8946,-386.0892 692.1502,-381.9304 691.6836,-388.9149"/>
<text text-anchor="middle" x="621" y="-387.8" font-family="Times,serif" font-size="14.00" fill="#000000">flash</text>
</g>
<!-- PSU -->
<g id="node7" class="node">
<title>PSU</title>
<polygon fill="#bbbbff" stroke="#bbbbff" points="150,-288 96,-288 96,-252 150,-252 150,-288"/>
<text text-anchor="middle" x="123" y="-266.3" font-family="Times,serif" font-size="14.00" fill="#000000">PSU</text>
</g>
<!-- PSU&#45;&gt;dac -->
<g id="edge21" class="edge">
<title>PSU&#45;&gt;dac</title>
<path fill="none" stroke="#ff0000" d="M126.9447,-251.6892C136.4164,-209.3552 161.5519,-106.5268 187,-83 211.9331,-59.9494 227.0443,-64 261,-64 261,-64 261,-64 730.5,-64 807.0226,-64 873.9343,-140.2036 901.0956,-175.9241"/>
</g>
<!-- PSU&#45;&gt;fpga -->
<g id="edge17" class="edge">
<title>PSU&#45;&gt;fpga</title>
<path fill="none" stroke="#ff0000" d="M125.9042,-288.1155C131.6759,-317.3824 147.6145,-374.2789 187,-399 256.8329,-442.8321 475.552,-402.5555 558,-403 613.9992,-403.3019 628.6802,-411.7018 684,-403 689.8657,-402.0773 696.0003,-400.5377 701.8181,-398.7876"/>
</g>
<!-- PSU&#45;&gt;micro -->
<g id="edge18" class="edge">
<title>PSU&#45;&gt;micro</title>
<path fill="none" stroke="#ff0000" d="M149.1521,-288.1724C160.2876,-294.8549 173.7487,-301.6133 187,-305 250.7293,-321.2877 269.9419,-314.7034 335,-305 370.0389,-299.774 407.9565,-286.3946 435.6369,-275.0852"/>
</g>
<!-- PSU&#45;&gt;clk -->
<g id="edge19" class="edge">
<title>PSU&#45;&gt;clk</title>
<path fill="none" stroke="#ff0000" d="M127.2926,-251.7298C134.7703,-223.7355 152.7633,-170.201 187,-139 196.645,-130.2102 209.3221,-124.0882 221.4528,-119.8645"/>
</g>
<!-- PSU&#45;&gt;osc -->
<g id="edge20" class="edge">
<title>PSU&#45;&gt;osc</title>
<path fill="none" stroke="#ff0000" d="M125.8963,-288.2095C132.233,-325.9437 148.3437,-410.9166 168,-432 180.9678,-445.9094 200.1745,-453.9608 217.7717,-458.6193"/>
</g>
<!-- GND -->
<g id="node17" class="node">
<title>GND</title>
<polygon fill="#bbffbb" stroke="#bbffbb" points="288,-36 234,-36 234,0 288,0 288,-36"/>
<text text-anchor="middle" x="261" y="-14.3" font-family="Times,serif" font-size="14.00" fill="#000000">GND</text>
</g>
<!-- PSU&#45;&gt;GND -->
<g id="edge23" class="edge">
<title>PSU&#45;&gt;GND</title>
<path fill="none" stroke="#c0c0c0" d="M124.4177,-251.8975C128.4489,-204.8441 141.4407,-80.2465 168,-50 182.0385,-34.0125 204.444,-26.0072 223.7454,-22.0013"/>
<polygon fill="#c0c0c0" stroke="#c0c0c0" points="224.5572,-25.4118 233.7848,-20.2059 223.3248,-18.5211 224.5572,-25.4118"/>
</g>
<!-- jtag -->
<g id="node9" class="node">
<title>jtag</title>
<polygon fill="#ffbbbb" stroke="#ffbbbb" points="316,-390 206,-390 206,-352 316,-352 316,-390"/>
<text text-anchor="middle" x="261" y="-374.8" font-family="Times,serif" font-size="14.00" fill="#000000">JTAG&#45;</text>
<text text-anchor="middle" x="261" y="-359.8" font-family="Times,serif" font-size="14.00" fill="#000000">konnektor x2</text>
</g>
<!-- jtag&#45;&gt;micro -->
<g id="edge1" class="edge">
<title>jtag&#45;&gt;micro</title>
<path fill="none" stroke="#000000" d="M316.1013,-362.47C341.0035,-357.0456 370.1275,-348.4277 394,-335 417.5467,-321.7555 439.455,-300.2365 454.692,-283.1526"/>
<polygon fill="#000000" stroke="#000000" points="457.7021,-285.0241 461.614,-275.1778 452.4157,-280.4355 457.7021,-285.0241"/>
<text text-anchor="middle" x="373.5" y="-354.8" font-family="Times,serif" font-size="14.00" fill="#000000">flash</text>
</g>
<!-- jtag&#45;&gt;flash -->
<g id="edge2" class="edge">
<title>jtag&#45;&gt;flash</title>
<path fill="none" stroke="#000000" d="M316.0015,-372.4988C339.9602,-372.978 368.3688,-373.3125 394,-373 401.7092,-372.906 409.8253,-372.7623 417.8312,-372.5941"/>
<polygon fill="#000000" stroke="#000000" points="417.9549,-376.0923 427.8743,-372.3699 417.7986,-369.0941 417.9549,-376.0923"/>
</g>
<!-- midi -->
<g id="node10" class="node">
<title>midi</title>
<polygon fill="#ffbbbb" stroke="#ffbbbb" points="303,-296 219,-296 219,-258 303,-258 303,-296"/>
<text text-anchor="middle" x="261" y="-280.8" font-family="Times,serif" font-size="14.00" fill="#000000">MIDI</text>
<text text-anchor="middle" x="261" y="-265.8" font-family="Times,serif" font-size="14.00" fill="#000000">inputport</text>
</g>
<!-- midi&#45;&gt;micro -->
<g id="edge3" class="edge">
<title>midi&#45;&gt;micro</title>
<path fill="none" stroke="#000000" d="M303.2206,-273.0725C331.2599,-270.4642 368.8353,-266.9688 401.7829,-263.9039"/>
<polygon fill="#000000" stroke="#000000" points="402.211,-267.3793 411.8438,-262.968 401.5626,-260.4094 402.211,-267.3793"/>
<text text-anchor="middle" x="373.5" y="-271.8" font-family="Times,serif" font-size="14.00" fill="#000000">UART</text>
</g>
<!-- btn -->
<g id="node11" class="node">
<title>btn</title>
<polygon fill="#ffbbbb" stroke="#ffbbbb" points="315,-538 207,-538 207,-502 315,-502 315,-538"/>
<text text-anchor="middle" x="261" y="-516.3" font-family="Times,serif" font-size="14.00" fill="#000000">Knapper x12</text>
</g>
<!-- btn&#45;&gt;gpio -->
<g id="edge4" class="edge">
<title>btn&#45;&gt;gpio</title>
<path fill="none" stroke="#000000" d="M315.3427,-520C358.8104,-520 421.3168,-520 476,-520 476,-520 476,-520 914,-520 982.9189,-520 1028.3498,-437.0004 1047.7634,-392.4738"/>
<polygon fill="#000000" stroke="#000000" points="1051.0623,-393.6582 1051.7206,-383.0838 1044.6117,-390.9397 1051.0623,-393.6582"/>
</g>
<!-- btn2 -->
<g id="node12" class="node">
<title>btn2</title>
<polygon fill="#ffbbbb" stroke="#ffbbbb" points="335,-240 187,-240 187,-202 335,-202 335,-240"/>
<text text-anchor="middle" x="261" y="-224.8" font-family="Times,serif" font-size="14.00" fill="#000000">Menu buttons</text>
<text text-anchor="middle" x="261" y="-209.8" font-family="Times,serif" font-size="14.00" fill="#000000">(yet to be defined)</text>
</g>
<!-- btn2&#45;&gt;micro -->
<g id="edge5" class="edge">
<title>btn2&#45;&gt;micro</title>
<path fill="none" stroke="#000000" d="M335.2919,-233.4396C356.7722,-237.0363 380.2141,-240.9614 401.6952,-244.5583"/>
<polygon fill="#000000" stroke="#000000" points="401.2974,-248.0403 411.7381,-246.2399 402.4534,-241.1364 401.2974,-248.0403"/>
<text text-anchor="middle" x="373.5" y="-245.8" font-family="Times,serif" font-size="14.00" fill="#000000">ADC</text>
</g>
<!-- vol -->
<g id="node13" class="node">
<title>vol</title>
<polygon fill="#ffbbbb" stroke="#ffbbbb" points="315,-184 207,-184 207,-148 315,-148 315,-184"/>
<text text-anchor="middle" x="261" y="-162.3" font-family="Times,serif" font-size="14.00" fill="#000000">Volume knob</text>
</g>
<!-- vol&#45;&gt;micro -->
<g id="edge6" class="edge">
<title>vol&#45;&gt;micro</title>
<path fill="none" stroke="#000000" d="M311.2476,-184.0534C319.2122,-186.9956 327.3442,-190.0474 335,-193 361.4124,-203.1866 368.1527,-205.4545 394,-217 406.2162,-222.4567 419.2982,-228.6673 431.3446,-234.5403"/>
<polygon fill="#000000" stroke="#000000" points="429.8042,-237.683 440.3233,-238.9474 432.8886,-231.3991 429.8042,-237.683"/>
<text text-anchor="middle" x="373.5" y="-220.8" font-family="Times,serif" font-size="14.00" fill="#000000">ADC</text>
</g>
<!-- VCC -->
<g id="node16" class="node">
<title>VCC</title>
<polygon fill="#bbffbb" stroke="#bbffbb" points="59,-289 0,-289 0,-251 59,-251 59,-289"/>
<text text-anchor="middle" x="29.5" y="-273.8" font-family="Times,serif" font-size="14.00" fill="#000000">VCC</text>
<text text-anchor="middle" x="29.5" y="-258.8" font-family="Times,serif" font-size="14.00" fill="#000000">5V/3A</text>
</g>
<!-- VCC&#45;&gt;PSU -->
<g id="edge22" class="edge">
<title>VCC&#45;&gt;PSU</title>
<path fill="none" stroke="#c0c0c0" d="M59.084,-270C67.5439,-270 76.8746,-270 85.7315,-270"/>
<polygon fill="#c0c0c0" stroke="#c0c0c0" points="85.8304,-273.5001 95.8303,-270 85.8303,-266.5001 85.8304,-273.5001"/>
</g>
</g>
</svg>
