<?xml version="1.0" encoding="UTF-8" standalone="no"?>
<!DOCTYPE svg PUBLIC "-//W3C//DTD SVG 1.1//EN"
 "http://www.w3.org/Graphics/SVG/1.1/DTD/svg11.dtd">
<!-- Generated by graphviz version 2.40.1 (0)
 -->
<!-- Title: G Pages: 1 -->
<svg width="1097pt" height="485pt"
 viewBox="0.00 0.00 1097.00 484.59" xmlns="http://www.w3.org/2000/svg" xmlns:xlink="http://www.w3.org/1999/xlink">
<g id="graph0" class="graph" transform="scale(1 1) rotate(0) translate(4 480.5948)">
<title>G</title>
<polygon fill="#ffffff" stroke="transparent" points="-4,4 -4,-480.5948 1093,-480.5948 1093,4 -4,4"/>
<!-- dac -->
<g id="node1" class="node">
<title>dac</title>
<polygon fill="#bbbbff" stroke="#bbbbff" points="924,-228 870,-228 870,-192 924,-192 924,-228"/>
<text text-anchor="middle" x="897" y="-206.3" font-family="Times,serif" font-size="14.00" fill="#000000">DAC</text>
</g>
<!-- jack -->
<g id="node14" class="node">
<title>jack</title>
<polygon fill="#ffbbbb" stroke="#ffbbbb" points="1080.5,-228 1002.5,-228 1002.5,-192 1080.5,-192 1080.5,-228"/>
<text text-anchor="middle" x="1041.5" y="-206.3" font-family="Times,serif" font-size="14.00" fill="#000000">MiniJack</text>
</g>
<!-- dac&#45;&gt;jack -->
<g id="edge8" class="edge">
<title>dac&#45;&gt;jack</title>
<path fill="none" stroke="#000000" d="M924.1793,-210C943.3213,-210 969.4909,-210 992.2575,-210"/>
<polygon fill="#000000" stroke="#000000" points="992.4409,-213.5001 1002.4409,-210 992.4408,-206.5001 992.4409,-213.5001"/>
</g>
<!-- fpga -->
<g id="node2" class="node">
<title>fpga</title>
<polygon fill="#bbbbff" stroke="#bbbbff" points="742,-200 685,-200 685,-164 742,-164 742,-200"/>
<text text-anchor="middle" x="713.5" y="-178.3" font-family="Times,serif" font-size="14.00" fill="#000000">FPGA</text>
</g>
<!-- fpga&#45;&gt;dac -->
<g id="edge12" class="edge">
<title>fpga&#45;&gt;dac</title>
<path fill="none" stroke="#000000" d="M742.1719,-186.375C773.7788,-191.1979 824.7427,-198.9744 859.4995,-204.2778"/>
<polygon fill="#000000" stroke="#000000" points="859.3128,-207.7898 869.7263,-205.8384 860.3687,-200.8699 859.3128,-207.7898"/>
<text text-anchor="middle" x="789.5" y="-200.8" font-family="Times,serif" font-size="14.00" fill="#000000">samples</text>
</g>
<!-- caps -->
<g id="node8" class="node">
<title>caps</title>
<polygon fill="#bbbbff" stroke="#bbbbff" points="957,-174 837,-174 837,-136 957,-136 957,-174"/>
<text text-anchor="middle" x="897" y="-158.8" font-family="Times,serif" font-size="14.00" fill="#000000">Avkoblings&#45;</text>
<text text-anchor="middle" x="897" y="-143.8" font-family="Times,serif" font-size="14.00" fill="#000000">kondensatorer</text>
</g>
<!-- fpga&#45;&gt;caps -->
<g id="edge13" class="edge">
<title>fpga&#45;&gt;caps</title>
<path fill="none" stroke="#000000" d="M752.1634,-176.3111C773.788,-173.1293 801.4103,-169.065 826.7225,-165.3406"/>
<polygon fill="#000000" stroke="#000000" points="751.5558,-172.8627 742.1719,-177.7813 752.5749,-179.7882 751.5558,-172.8627"/>
<polygon fill="#000000" stroke="#000000" points="827.2771,-168.7967 836.6611,-163.8782 826.2581,-161.8713 827.2771,-168.7967"/>
</g>
<!-- gpio -->
<g id="node13" class="node">
<title>gpio</title>
<polygon fill="#ffbbbb" stroke="#ffbbbb" points="1089,-330 994,-330 994,-294 1089,-294 1089,-330"/>
<text text-anchor="middle" x="1041.5" y="-308.3" font-family="Times,serif" font-size="14.00" fill="#000000">GPIO (70x)</text>
</g>
<!-- fpga&#45;&gt;gpio -->
<g id="edge7" class="edge">
<title>fpga&#45;&gt;gpio</title>
<path fill="none" stroke="#000000" d="M743.7912,-206.1377C749.0267,-209.722 754.5446,-213.1598 760,-216 833.6022,-254.3186 925.7269,-282.3588 984.1151,-297.925"/>
<polygon fill="#000000" stroke="#000000" points="745.4721,-203.0359 735.3077,-200.0467 741.3896,-208.7221 745.4721,-203.0359"/>
<polygon fill="#000000" stroke="#000000" points="983.3381,-301.3396 993.8997,-300.5009 985.1203,-294.5703 983.3381,-301.3396"/>
</g>
<!-- micro -->
<g id="node3" class="node">
<title>micro</title>
<polygon fill="#bbbbff" stroke="#bbbbff" points="523,-335 395,-335 395,-299 523,-299 523,-335"/>
<text text-anchor="middle" x="459" y="-313.3" font-family="Times,serif" font-size="14.00" fill="#000000">Microkontroller</text>
</g>
<!-- micro&#45;&gt;dac -->
<g id="edge11" class="edge">
<title>micro&#45;&gt;dac</title>
<path fill="none" stroke="#000000" d="M523.4229,-314.767C564.8681,-312.2864 619.6372,-307.0507 667,-296 737.5866,-279.5307 815.8662,-247.0028 860.484,-227.0118"/>
<polygon fill="#000000" stroke="#000000" points="862.075,-230.1336 869.7454,-222.8251 859.1915,-223.7551 862.075,-230.1336"/>
<text text-anchor="middle" x="713.5" y="-293.8" font-family="Times,serif" font-size="14.00" fill="#000000">init</text>
</g>
<!-- micro&#45;&gt;fpga -->
<g id="edge10" class="edge">
<title>micro&#45;&gt;fpga</title>
<path fill="none" stroke="#000000" d="M469.1379,-298.8492C482.5404,-276.6769 508.3242,-239.8053 541,-221 590.338,-192.6053 611.9295,-212.4128 667,-198 669.6197,-197.3144 672.3041,-196.553 674.997,-195.7452"/>
<polygon fill="#000000" stroke="#000000" points="676.213,-199.0314 684.6848,-192.6691 674.0945,-192.3596 676.213,-199.0314"/>
<text text-anchor="middle" x="604" y="-284.8" font-family="Times,serif" font-size="14.00" fill="#000000">SPI</text>
<text text-anchor="start" x="541" y="-269.8" font-family="Times,serif" font-size="14.00" fill="#000000">med DMA:</text>
<text text-anchor="start" x="541" y="-254.8" font-family="Times,serif" font-size="14.00" fill="#000000">&#45;keyboard state</text>
<text text-anchor="start" x="541" y="-239.8" font-family="Times,serif" font-size="14.00" fill="#000000">&#45;sound envelope</text>
<text text-anchor="start" x="541" y="-224.8" font-family="Times,serif" font-size="14.00" fill="#000000">&#45;perhaps samples</text>
</g>
<!-- micro&#45;&gt;gpio -->
<g id="edge6" class="edge">
<title>micro&#45;&gt;gpio</title>
<path fill="none" stroke="#000000" d="M533.2234,-317.9456C535.8478,-317.9661 538.4463,-317.9844 541,-318 596.999,-318.3414 611.0018,-318.4486 667,-318 779.021,-317.1027 909.872,-314.6958 983.4781,-313.2175"/>
<polygon fill="#000000" stroke="#000000" points="533.0427,-314.4439 523.0124,-317.856 532.9812,-321.4437 533.0427,-314.4439"/>
<polygon fill="#000000" stroke="#000000" points="983.9864,-316.7081 993.9136,-313.0065 983.8448,-309.7095 983.9864,-316.7081"/>
</g>
<!-- clk -->
<g id="node4" class="node">
<title>clk</title>
<polygon fill="#bbbbff" stroke="#bbbbff" points="292,-280 213,-280 213,-242 292,-242 292,-280"/>
<text text-anchor="middle" x="252.5" y="-264.8" font-family="Times,serif" font-size="14.00" fill="#000000">Klokke</text>
<text text-anchor="middle" x="252.5" y="-249.8" font-family="Times,serif" font-size="14.00" fill="#000000">(48MHz)</text>
</g>
<!-- clk&#45;&gt;micro -->
<g id="edge14" class="edge">
<title>clk&#45;&gt;micro</title>
<path fill="none" stroke="#000000" d="M292.3153,-271.7974C318.5425,-278.9098 353.6855,-288.4401 384.9404,-296.916"/>
<polygon fill="#000000" stroke="#000000" points="384.3677,-300.3871 394.9352,-299.6265 386.1999,-293.6311 384.3677,-300.3871"/>
</g>
<!-- osc -->
<g id="node5" class="node">
<title>osc</title>
<polygon fill="#bbbbff" stroke="#bbbbff" points="295.5,-168 209.5,-168 209.5,-130 295.5,-130 295.5,-168"/>
<text text-anchor="middle" x="252.5" y="-152.8" font-family="Times,serif" font-size="14.00" fill="#000000">Oscillator</text>
<text text-anchor="middle" x="252.5" y="-137.8" font-family="Times,serif" font-size="14.00" fill="#000000">(20MHz)</text>
</g>
<!-- osc&#45;&gt;fpga -->
<g id="edge15" class="edge">
<title>osc&#45;&gt;fpga</title>
<path fill="none" stroke="#000000" d="M295.5668,-150.4695C370.9956,-153.318 531.8487,-160.616 667,-175 669.4861,-175.2646 672.0429,-175.5661 674.6179,-175.8918"/>
<polygon fill="#000000" stroke="#000000" points="674.1474,-179.3599 684.5283,-177.2417 675.0922,-172.424 674.1474,-179.3599"/>
</g>
<!-- flash -->
<g id="node6" class="node">
<title>flash</title>
<polygon fill="#bbbbff" stroke="#bbbbff" points="507,-215 411,-215 411,-177 507,-177 507,-215"/>
<text text-anchor="middle" x="459" y="-199.8" font-family="Times,serif" font-size="14.00" fill="#000000">FPGA</text>
<text text-anchor="middle" x="459" y="-184.8" font-family="Times,serif" font-size="14.00" fill="#000000">flashbrikke</text>
</g>
<!-- flash&#45;&gt;fpga -->
<g id="edge9" class="edge">
<title>flash&#45;&gt;fpga</title>
<path fill="none" stroke="#000000" d="M507.4165,-187.0799C518.4192,-185.4001 530.0818,-183.8919 541,-183 586.7156,-179.2653 639.4727,-179.6414 674.4832,-180.5463"/>
<polygon fill="#000000" stroke="#000000" points="674.6553,-184.0526 684.7513,-180.8401 674.8556,-177.0554 674.6553,-184.0526"/>
<text text-anchor="middle" x="604" y="-186.8" font-family="Times,serif" font-size="14.00" fill="#000000">flash</text>
</g>
<!-- PSU -->
<g id="node7" class="node">
<title>PSU</title>
<polygon fill="#bbbbff" stroke="#bbbbff" points="150,-143 96,-143 96,-107 150,-107 150,-143"/>
<text text-anchor="middle" x="123" y="-121.3" font-family="Times,serif" font-size="14.00" fill="#000000">PSU</text>
</g>
<!-- PSU&#45;&gt;dac -->
<g id="edge20" class="edge">
<title>PSU&#45;&gt;dac</title>
<path fill="none" stroke="#ff0000" d="M145.816,-106.698C170.5671,-88.7301 211.9912,-64 252.5,-64 252.5,-64 252.5,-64 713.5,-64 789.7235,-64 773.8691,-140.2856 837,-183 847.123,-189.8492 859.2656,-195.6898 869.9712,-200.1683"/>
</g>
<!-- PSU&#45;&gt;fpga -->
<g id="edge16" class="edge">
<title>PSU&#45;&gt;fpga</title>
<path fill="none" stroke="#ff0000" d="M150.0751,-122.9325C161.4683,-122.16 174.8712,-121.3787 187,-121 245.1939,-119.1832 259.8679,-117.762 318,-121 473.835,-129.6801 516.8559,-117.3777 667,-160 672.9281,-161.6828 679.0386,-164.0567 684.8026,-166.627"/>
</g>
<!-- PSU&#45;&gt;micro -->
<g id="edge17" class="edge">
<title>PSU&#45;&gt;micro</title>
<path fill="none" stroke="#ff0000" d="M123.6199,-143.2742C126.1861,-206.5759 138.2621,-414.8062 187,-455 231.9178,-492.0434 262.8404,-473.6346 318,-455 379.9808,-434.0609 427.9631,-367.5484 448.3333,-335.1224"/>
</g>
<!-- PSU&#45;&gt;clk -->
<g id="edge18" class="edge">
<title>PSU&#45;&gt;clk</title>
<path fill="none" stroke="#ff0000" d="M129.5543,-143.0419C138.9455,-166.6182 158.3229,-207.853 187,-233 194.4387,-239.523 203.6246,-244.7035 212.7394,-248.7435"/>
</g>
<!-- PSU&#45;&gt;osc -->
<g id="edge19" class="edge">
<title>PSU&#45;&gt;osc</title>
<path fill="none" stroke="#ff0000" d="M150.1474,-130.0312C167.28,-133.2063 189.7876,-137.3776 209.3327,-140.9999"/>
</g>
<!-- GND -->
<g id="node16" class="node">
<title>GND</title>
<polygon fill="#bbffbb" stroke="#bbffbb" points="279.5,-36 225.5,-36 225.5,0 279.5,0 279.5,-36"/>
<text text-anchor="middle" x="252.5" y="-14.3" font-family="Times,serif" font-size="14.00" fill="#000000">GND</text>
</g>
<!-- PSU&#45;&gt;GND -->
<g id="edge22" class="edge">
<title>PSU&#45;&gt;GND</title>
<path fill="none" stroke="#c0c0c0" d="M129.7775,-106.8854C136.927,-90.0334 149.7078,-65.2887 168,-50 181.5268,-38.6943 199.4618,-31.148 215.3277,-26.2391"/>
<polygon fill="#c0c0c0" stroke="#c0c0c0" points="216.7251,-29.4807 225.388,-23.3811 214.8122,-22.7471 216.7251,-29.4807"/>
</g>
<!-- jtag -->
<g id="node9" class="node">
<title>jtag</title>
<polygon fill="#ffbbbb" stroke="#ffbbbb" points="307.5,-224 197.5,-224 197.5,-186 307.5,-186 307.5,-224"/>
<text text-anchor="middle" x="252.5" y="-208.8" font-family="Times,serif" font-size="14.00" fill="#000000">JTAG&#45;</text>
<text text-anchor="middle" x="252.5" y="-193.8" font-family="Times,serif" font-size="14.00" fill="#000000">konnektor x2</text>
</g>
<!-- jtag&#45;&gt;micro -->
<g id="edge1" class="edge">
<title>jtag&#45;&gt;micro</title>
<path fill="none" stroke="#000000" d="M298.5163,-224.1209C305.0932,-227.0131 311.7456,-230.0259 318,-233 344.751,-245.7207 351.4243,-249.0563 377,-264 392.6351,-273.1354 409.5004,-283.8757 423.8466,-293.2907"/>
<polygon fill="#000000" stroke="#000000" points="422.1473,-296.3629 432.4201,-298.9554 426.0062,-290.5225 422.1473,-296.3629"/>
<text text-anchor="middle" x="356.5" y="-267.8" font-family="Times,serif" font-size="14.00" fill="#000000">flash</text>
</g>
<!-- jtag&#45;&gt;flash -->
<g id="edge2" class="edge">
<title>jtag&#45;&gt;flash</title>
<path fill="none" stroke="#000000" d="M307.5669,-202.6C336.3167,-201.347 371.4915,-199.8139 400.7017,-198.5408"/>
<polygon fill="#000000" stroke="#000000" points="400.9266,-202.0345 410.7647,-198.1023 400.6217,-195.0411 400.9266,-202.0345"/>
</g>
<!-- midi -->
<g id="node10" class="node">
<title>midi</title>
<polygon fill="#ffbbbb" stroke="#ffbbbb" points="294.5,-392 210.5,-392 210.5,-354 294.5,-354 294.5,-392"/>
<text text-anchor="middle" x="252.5" y="-376.8" font-family="Times,serif" font-size="14.00" fill="#000000">MIDI</text>
<text text-anchor="middle" x="252.5" y="-361.8" font-family="Times,serif" font-size="14.00" fill="#000000">inputport</text>
</g>
<!-- midi&#45;&gt;micro -->
<g id="edge3" class="edge">
<title>midi&#45;&gt;micro</title>
<path fill="none" stroke="#000000" d="M294.5373,-361.6001C320.501,-354.559 354.5472,-345.3262 384.9233,-337.0886"/>
<polygon fill="#000000" stroke="#000000" points="385.9065,-340.4485 394.6418,-334.4531 384.0743,-333.6925 385.9065,-340.4485"/>
<text text-anchor="middle" x="356.5" y="-353.8" font-family="Times,serif" font-size="14.00" fill="#000000">UART</text>
</g>
<!-- btn -->
<g id="node11" class="node">
<title>btn</title>
<polygon fill="#ffbbbb" stroke="#ffbbbb" points="318,-336 187,-336 187,-298 318,-298 318,-336"/>
<text text-anchor="middle" x="252.5" y="-320.8" font-family="Times,serif" font-size="14.00" fill="#000000">Knapper x12</text>
<text text-anchor="middle" x="252.5" y="-305.8" font-family="Times,serif" font-size="14.00" fill="#000000">(force sensitive)</text>
</g>
<!-- btn&#45;&gt;micro -->
<g id="edge4" class="edge">
<title>btn&#45;&gt;micro</title>
<path fill="none" stroke="#000000" d="M318.1216,-317C339.3276,-317 362.9869,-317 384.7704,-317"/>
<polygon fill="#000000" stroke="#000000" points="384.9617,-320.5001 394.9617,-317 384.9616,-313.5001 384.9617,-320.5001"/>
<text text-anchor="middle" x="356.5" y="-320.8" font-family="Times,serif" font-size="14.00" fill="#000000">ADC</text>
</g>
<!-- vol -->
<g id="node12" class="node">
<title>vol</title>
<polygon fill="#ffbbbb" stroke="#ffbbbb" points="306.5,-446 198.5,-446 198.5,-410 306.5,-410 306.5,-446"/>
<text text-anchor="middle" x="252.5" y="-424.3" font-family="Times,serif" font-size="14.00" fill="#000000">Volume knob</text>
</g>
<!-- vol&#45;&gt;micro -->
<g id="edge5" class="edge">
<title>vol&#45;&gt;micro</title>
<path fill="none" stroke="#000000" d="M298.2273,-409.8787C304.9098,-407.0204 311.6688,-404.0114 318,-401 355.2658,-383.2745 395.4937,-358.7206 423.4054,-340.7373"/>
<polygon fill="#000000" stroke="#000000" points="425.5347,-343.5279 432.0155,-335.1465 421.7224,-337.6571 425.5347,-343.5279"/>
<text text-anchor="middle" x="356.5" y="-394.8" font-family="Times,serif" font-size="14.00" fill="#000000">ADC</text>
</g>
<!-- VCC -->
<g id="node15" class="node">
<title>VCC</title>
<polygon fill="#bbffbb" stroke="#bbffbb" points="59,-144 0,-144 0,-106 59,-106 59,-144"/>
<text text-anchor="middle" x="29.5" y="-128.8" font-family="Times,serif" font-size="14.00" fill="#000000">VCC</text>
<text text-anchor="middle" x="29.5" y="-113.8" font-family="Times,serif" font-size="14.00" fill="#000000">5V/3A</text>
</g>
<!-- VCC&#45;&gt;PSU -->
<g id="edge21" class="edge">
<title>VCC&#45;&gt;PSU</title>
<path fill="none" stroke="#c0c0c0" d="M59.084,-125C67.5439,-125 76.8746,-125 85.7315,-125"/>
<polygon fill="#c0c0c0" stroke="#c0c0c0" points="85.8304,-128.5001 95.8303,-125 85.8303,-121.5001 85.8304,-128.5001"/>
</g>
</g>
</svg>
