<?xml version="1.0" encoding="UTF-8" standalone="no"?>
<!DOCTYPE svg PUBLIC "-//W3C//DTD SVG 1.1//EN"
 "http://www.w3.org/Graphics/SVG/1.1/DTD/svg11.dtd">
<!-- Generated by graphviz version 2.40.1 (0)
 -->
<!-- Title: G Pages: 1 -->
<svg width="989pt" height="522pt"
 viewBox="0.00 0.00 989.00 522.00" xmlns="http://www.w3.org/2000/svg" xmlns:xlink="http://www.w3.org/1999/xlink">
<g id="graph0" class="graph" transform="scale(1 1) rotate(0) translate(4 518)">
<title>G</title>
<polygon fill="#ffffff" stroke="transparent" points="-4,4 -4,-518 985,-518 985,4 -4,4"/>
<!-- dac -->
<g id="node1" class="node">
<title>dac</title>
<polygon fill="#bbbbff" stroke="#bbbbff" points="805,-427 751,-427 751,-391 805,-391 805,-427"/>
<text text-anchor="middle" x="778" y="-405.3" font-family="Times,serif" font-size="14.00" fill="#000000">DAC</text>
</g>
<!-- jack -->
<g id="node15" class="node">
<title>jack</title>
<polygon fill="#ffbbbb" stroke="#ffbbbb" points="961,-427 883,-427 883,-391 961,-391 961,-427"/>
<text text-anchor="middle" x="922" y="-405.3" font-family="Times,serif" font-size="14.00" fill="#000000">MiniJack</text>
</g>
<!-- dac&#45;&gt;jack -->
<g id="edge9" class="edge">
<title>dac&#45;&gt;jack</title>
<path fill="none" stroke="#000000" d="M805.0853,-409C824.0904,-409 850.047,-409 872.6756,-409"/>
<polygon fill="#000000" stroke="#000000" points="872.8015,-412.5001 882.8015,-409 872.8014,-405.5001 872.8015,-412.5001"/>
</g>
<!-- fpga -->
<g id="node2" class="node">
<title>fpga</title>
<polygon fill="#bbbbff" stroke="#bbbbff" points="603.5,-232 546.5,-232 546.5,-196 603.5,-196 603.5,-232"/>
<text text-anchor="middle" x="575" y="-210.3" font-family="Times,serif" font-size="14.00" fill="#000000">FPGA</text>
</g>
<!-- fpga&#45;&gt;dac -->
<g id="edge13" class="edge">
<title>fpga&#45;&gt;dac</title>
<path fill="none" stroke="#000000" d="M594.0977,-232.3451C630.6138,-267.4221 710.3821,-344.0468 751.8272,-383.8587"/>
<polygon fill="#000000" stroke="#000000" points="749.4645,-386.4422 759.1009,-390.8457 754.3138,-381.394 749.4645,-386.4422"/>
<text text-anchor="middle" x="682.5" y="-343.8" font-family="Times,serif" font-size="14.00" fill="#000000">samples</text>
</g>
<!-- flash -->
<g id="node6" class="node">
<title>flash</title>
<polygon fill="#bbbbff" stroke="#bbbbff" points="826,-233 730,-233 730,-195 826,-195 826,-233"/>
<text text-anchor="middle" x="778" y="-217.8" font-family="Times,serif" font-size="14.00" fill="#000000">FPGA</text>
<text text-anchor="middle" x="778" y="-202.8" font-family="Times,serif" font-size="14.00" fill="#000000">flashbrikke</text>
</g>
<!-- fpga&#45;&gt;flash -->
<g id="edge10" class="edge">
<title>fpga&#45;&gt;flash</title>
<path fill="none" stroke="#000000" d="M613.8394,-214C643.791,-214 685.7004,-214 719.6765,-214"/>
<polygon fill="#000000" stroke="#000000" points="613.6544,-210.5001 603.6544,-214 613.6544,-217.5001 613.6544,-210.5001"/>
<polygon fill="#000000" stroke="#000000" points="719.9441,-217.5001 729.9441,-214 719.944,-210.5001 719.9441,-217.5001"/>
<text text-anchor="middle" x="682.5" y="-217.8" font-family="Times,serif" font-size="14.00" fill="#000000">flash</text>
</g>
<!-- gpio -->
<g id="node14" class="node">
<title>gpio</title>
<polygon fill="#ffbbbb" stroke="#ffbbbb" points="981,-324 863,-324 863,-286 981,-286 981,-324"/>
<text text-anchor="middle" x="922" y="-308.8" font-family="Times,serif" font-size="14.00" fill="#000000">Physical GPIO</text>
<text text-anchor="middle" x="922" y="-293.8" font-family="Times,serif" font-size="14.00" fill="#000000">(~70x pins?)</text>
</g>
<!-- fpga&#45;&gt;gpio -->
<g id="edge8" class="edge">
<title>fpga&#45;&gt;gpio</title>
<path fill="none" stroke="#000000" d="M613.6028,-224.1235C671.4111,-239.2836 781.3342,-268.1107 853.1211,-286.9367"/>
<polygon fill="#000000" stroke="#000000" points="614.2525,-220.6756 603.6917,-221.5243 612.4767,-227.4466 614.2525,-220.6756"/>
<polygon fill="#000000" stroke="#000000" points="852.4272,-290.373 862.988,-289.5242 854.203,-283.6019 852.4272,-290.373"/>
</g>
<!-- micro -->
<g id="node3" class="node">
<title>micro</title>
<polygon fill="#bbbbff" stroke="#bbbbff" points="353,-354 225,-354 225,-318 353,-318 353,-354"/>
<text text-anchor="middle" x="289" y="-332.3" font-family="Times,serif" font-size="14.00" fill="#000000">Microkontroller</text>
</g>
<!-- micro&#45;&gt;dac -->
<g id="edge12" class="edge">
<title>micro&#45;&gt;dac</title>
<path fill="none" stroke="#000000" d="M353.4327,-347.158C359.3688,-348.1385 365.2938,-349.0994 371,-350 506.8406,-371.4386 668.6705,-394.0163 740.483,-403.8827"/>
<polygon fill="#000000" stroke="#000000" points="740.4322,-407.4084 750.815,-405.2998 741.3834,-400.4733 740.4322,-407.4084"/>
<text text-anchor="middle" x="575" y="-391.8" font-family="Times,serif" font-size="14.00" fill="#000000">init</text>
</g>
<!-- micro&#45;&gt;fpga -->
<g id="edge11" class="edge">
<title>micro&#45;&gt;fpga</title>
<path fill="none" stroke="#000000" d="M300.1391,-317.9757C314.0083,-297.2157 339.7274,-263.815 371,-247 423.3995,-218.8253 493.5118,-213.3049 536.4028,-212.9117"/>
<polygon fill="#000000" stroke="#000000" points="536.4328,-216.4118 546.4319,-212.9091 536.431,-209.4118 536.4328,-216.4118"/>
<text text-anchor="middle" x="434" y="-310.8" font-family="Times,serif" font-size="14.00" fill="#000000">SPI</text>
<text text-anchor="start" x="371" y="-295.8" font-family="Times,serif" font-size="14.00" fill="#000000">med DMA:</text>
<text text-anchor="start" x="371" y="-280.8" font-family="Times,serif" font-size="14.00" fill="#000000">&#45;keyboard state</text>
<text text-anchor="start" x="371" y="-265.8" font-family="Times,serif" font-size="14.00" fill="#000000">&#45;sound envelope</text>
<text text-anchor="start" x="371" y="-250.8" font-family="Times,serif" font-size="14.00" fill="#000000">&#45;perhaps samples</text>
</g>
<!-- micro&#45;&gt;gpio -->
<g id="edge7" class="edge">
<title>micro&#45;&gt;gpio</title>
<path fill="none" stroke="#000000" d="M363.2084,-332.3658C486.6348,-326.3212 732.3927,-314.2857 852.5745,-308.4"/>
<polygon fill="#000000" stroke="#000000" points="362.9957,-328.8719 353.1789,-332.857 363.3382,-335.8635 362.9957,-328.8719"/>
<polygon fill="#000000" stroke="#000000" points="852.9399,-311.8864 862.7567,-307.9013 852.5974,-304.8948 852.9399,-311.8864"/>
</g>
<!-- clk -->
<g id="node4" class="node">
<title>clk</title>
<polygon fill="#bbbbff" stroke="#bbbbff" points="113.5,-404 34.5,-404 34.5,-366 113.5,-366 113.5,-404"/>
<text text-anchor="middle" x="74" y="-388.8" font-family="Times,serif" font-size="14.00" fill="#000000">Klokke</text>
<text text-anchor="middle" x="74" y="-373.8" font-family="Times,serif" font-size="14.00" fill="#000000">(48MHz)</text>
</g>
<!-- clk&#45;&gt;micro -->
<g id="edge14" class="edge">
<title>clk&#45;&gt;micro</title>
<path fill="none" stroke="#000000" d="M113.6849,-375.9555C141.9557,-369.5124 180.8027,-360.6589 214.7452,-352.9232"/>
<polygon fill="#000000" stroke="#000000" points="215.6663,-356.3031 224.6386,-350.6684 214.1108,-349.4781 215.6663,-356.3031"/>
</g>
<!-- osc -->
<g id="node5" class="node">
<title>osc</title>
<polygon fill="#bbbbff" stroke="#bbbbff" points="117,-182 31,-182 31,-144 117,-144 117,-182"/>
<text text-anchor="middle" x="74" y="-166.8" font-family="Times,serif" font-size="14.00" fill="#000000">Oscillator</text>
<text text-anchor="middle" x="74" y="-151.8" font-family="Times,serif" font-size="14.00" fill="#000000">(20MHz)</text>
</g>
<!-- osc&#45;&gt;fpga -->
<g id="edge15" class="edge">
<title>osc&#45;&gt;fpga</title>
<path fill="none" stroke="#000000" d="M117.1486,-167.3924C213.3658,-177.1869 444.2365,-200.6887 536.2206,-210.0524"/>
<polygon fill="#000000" stroke="#000000" points="535.9181,-213.5396 546.2211,-211.0704 536.627,-206.5756 535.9181,-213.5396"/>
</g>
<!-- PSU -->
<g id="node7" class="node">
<title>PSU</title>
<polygon fill="#bbbbff" stroke="#bbbbff" points="316,-57 262,-57 262,-21 316,-21 316,-57"/>
<text text-anchor="middle" x="289" y="-35.3" font-family="Times,serif" font-size="14.00" fill="#000000">PSU</text>
</g>
<!-- PSU&#45;&gt;dac -->
<g id="edge16" class="edge">
<title>PSU&#45;&gt;dac</title>
<path fill="none" stroke="#ff0000" d="M303.5966,-57.0494C319.1869,-75.7255 345.1602,-105.1655 371,-127 422.2204,-170.2811 456.7054,-156.3983 497,-210 513.2184,-231.5745 497.8237,-247.1801 515,-268 519.2139,-273.1078 684.5227,-360.0309 750.8631,-394.7972"/>
</g>
<!-- PSU&#45;&gt;fpga -->
<g id="edge17" class="edge">
<title>PSU&#45;&gt;fpga</title>
<path fill="none" stroke="#ff0000" d="M316.191,-53.9271C329.6498,-62.833 344.7466,-75.4449 353,-91 374.5378,-131.5922 337.1222,-265.9533 371,-297 412.2855,-334.8353 445.6016,-319.2308 497,-297 527.4908,-283.8122 551.5542,-252.1882 564.4949,-232.0051"/>
</g>
<!-- PSU&#45;&gt;micro -->
<g id="edge18" class="edge">
<title>PSU&#45;&gt;micro</title>
<path fill="none" stroke="#ff0000" d="M261.6072,-46.7966C237.0363,-55.4088 202.4669,-71.9173 186.5,-100 181.4475,-108.8863 184.2268,-113.0337 186.5,-123 204.159,-200.4203 253.6832,-282.4948 276.8124,-317.9556"/>
</g>
<!-- PSU&#45;&gt;clk -->
<g id="edge19" class="edge">
<title>PSU&#45;&gt;clk</title>
<path fill="none" stroke="#ff0000" d="M261.801,-56.0451C249.1634,-65.1168 234.8001,-77.2399 225,-91 180.5477,-153.4147 185.7231,-178.9554 166,-253 153.9259,-298.3289 177.8677,-320.828 148,-357 139.3415,-367.4861 126.313,-374.0493 113.5894,-378.1555"/>
</g>
<!-- PSU&#45;&gt;osc -->
<g id="edge20" class="edge">
<title>PSU&#45;&gt;osc</title>
<path fill="none" stroke="#ff0000" d="M261.9683,-54.5904C222.622,-77.2831 149.6453,-119.372 107.1226,-143.8967"/>
</g>
<!-- PSU&#45;&gt;flash -->
<g id="edge21" class="edge">
<title>PSU&#45;&gt;flash</title>
<path fill="none" stroke="#ff0000" d="M316.3089,-50.3673C367.1787,-72.0751 473.4331,-120.1044 497,-152 520.9822,-184.4576 483.7631,-215.4482 515,-241 579.3049,-293.6014 684.1506,-258.324 740.0642,-233.1389"/>
</g>
<!-- caps -->
<g id="node8" class="node">
<title>caps</title>
<polygon fill="#bbbbff" stroke="#bbbbff" points="635,-38 515,-38 515,0 635,0 635,-38"/>
<text text-anchor="middle" x="575" y="-22.8" font-family="Times,serif" font-size="14.00" fill="#000000">Avkoblings&#45;</text>
<text text-anchor="middle" x="575" y="-7.8" font-family="Times,serif" font-size="14.00" fill="#000000">kondensatorer</text>
</g>
<!-- PSU&#45;&gt;caps -->
<g id="edge22" class="edge">
<title>PSU&#45;&gt;caps</title>
<path fill="none" stroke="#c0c0c0" d="M326.3895,-36.3854C371.4702,-33.2329 448.1897,-27.8679 504.5072,-23.9296"/>
<polygon fill="#c0c0c0" stroke="#c0c0c0" points="325.8955,-32.9113 316.164,-37.1004 326.3839,-39.8942 325.8955,-32.9113"/>
<polygon fill="#c0c0c0" stroke="#c0c0c0" points="505.0418,-27.4008 514.7733,-23.2117 504.5534,-20.4179 505.0418,-27.4008"/>
</g>
<!-- GND -->
<g id="node17" class="node">
<title>GND</title>
<polygon fill="#bbffbb" stroke="#bbffbb" points="602,-92 548,-92 548,-56 602,-56 602,-92"/>
<text text-anchor="middle" x="575" y="-70.3" font-family="Times,serif" font-size="14.00" fill="#000000">GND</text>
</g>
<!-- PSU&#45;&gt;GND -->
<g id="edge24" class="edge">
<title>PSU&#45;&gt;GND</title>
<path fill="none" stroke="#c0c0c0" d="M316.164,-42.3243C367.4884,-48.6052 478.7963,-62.2268 537.3132,-69.388"/>
<polygon fill="#c0c0c0" stroke="#c0c0c0" points="537.2478,-72.906 547.5989,-70.6467 538.0981,-65.9578 537.2478,-72.906"/>
</g>
<!-- jtag -->
<g id="node9" class="node">
<title>jtag</title>
<polygon fill="#ffbbbb" stroke="#ffbbbb" points="129,-238 19,-238 19,-200 129,-200 129,-238"/>
<text text-anchor="middle" x="74" y="-222.8" font-family="Times,serif" font-size="14.00" fill="#000000">JTAG&#45;</text>
<text text-anchor="middle" x="74" y="-207.8" font-family="Times,serif" font-size="14.00" fill="#000000">konnektor x2</text>
</g>
<!-- jtag&#45;&gt;fpga -->
<g id="edge2" class="edge">
<title>jtag&#45;&gt;fpga</title>
<path fill="none" stroke="#000000" d="M129.2015,-201.3046C210.7159,-177.8186 367.6007,-142.7552 497,-174 511.4039,-177.478 526.1344,-184.0967 538.8594,-190.9639"/>
<polygon fill="#000000" stroke="#000000" points="537.3072,-194.1066 547.7374,-195.9669 540.7438,-188.0082 537.3072,-194.1066"/>
<text text-anchor="middle" x="289" y="-180.8" font-family="Times,serif" font-size="14.00" fill="#000000">flash</text>
</g>
<!-- jtag&#45;&gt;micro -->
<g id="edge1" class="edge">
<title>jtag&#45;&gt;micro</title>
<path fill="none" stroke="#000000" d="M127.8197,-238.1023C134.6892,-240.9078 141.5639,-243.9023 148,-247 186.6001,-265.5781 227.6898,-292.4176 255.4923,-311.7593"/>
<polygon fill="#000000" stroke="#000000" points="253.8369,-314.8735 264.0322,-317.7556 257.8594,-309.1447 253.8369,-314.8735"/>
<text text-anchor="middle" x="186.5" y="-281.8" font-family="Times,serif" font-size="14.00" fill="#000000">flash</text>
</g>
<!-- midi -->
<g id="node10" class="node">
<title>midi</title>
<polygon fill="#ffbbbb" stroke="#ffbbbb" points="118.5,-294 29.5,-294 29.5,-256 118.5,-256 118.5,-294"/>
<text text-anchor="middle" x="74" y="-278.8" font-family="Times,serif" font-size="14.00" fill="#000000">5pin MIDI</text>
<text text-anchor="middle" x="74" y="-263.8" font-family="Times,serif" font-size="14.00" fill="#000000">inputport</text>
</g>
<!-- midi&#45;&gt;micro -->
<g id="edge3" class="edge">
<title>midi&#45;&gt;micro</title>
<path fill="none" stroke="#000000" d="M118.5481,-287.6392C146.5263,-295.5772 183.2883,-306.0074 215.5069,-315.1485"/>
<polygon fill="#000000" stroke="#000000" points="214.7695,-318.5773 225.3451,-317.9398 216.6802,-311.8431 214.7695,-318.5773"/>
<text text-anchor="middle" x="186.5" y="-313.8" font-family="Times,serif" font-size="14.00" fill="#000000">UART</text>
</g>
<!-- btn -->
<g id="node11" class="node">
<title>btn</title>
<polygon fill="#ffbbbb" stroke="#ffbbbb" points="128,-514 20,-514 20,-478 128,-478 128,-514"/>
<text text-anchor="middle" x="74" y="-492.3" font-family="Times,serif" font-size="14.00" fill="#000000">Knapper x12</text>
</g>
<!-- btn&#45;&gt;micro -->
<g id="edge4" class="edge">
<title>btn&#45;&gt;micro</title>
<path fill="none" stroke="#000000" d="M128.1633,-479.1746C135.0467,-476.1953 141.8323,-472.8072 148,-469 195.8985,-439.433 241.4016,-391.7209 267.1896,-362.1997"/>
<polygon fill="#000000" stroke="#000000" points="270.0473,-364.2451 273.9259,-354.3858 264.7455,-359.6744 270.0473,-364.2451"/>
</g>
<!-- btn2 -->
<g id="node12" class="node">
<title>btn2</title>
<polygon fill="#ffbbbb" stroke="#ffbbbb" points="148,-460 0,-460 0,-422 148,-422 148,-460"/>
<text text-anchor="middle" x="74" y="-444.8" font-family="Times,serif" font-size="14.00" fill="#000000">Menu buttons</text>
<text text-anchor="middle" x="74" y="-429.8" font-family="Times,serif" font-size="14.00" fill="#000000">(yet to be defined)</text>
</g>
<!-- btn2&#45;&gt;micro -->
<g id="edge5" class="edge">
<title>btn2&#45;&gt;micro</title>
<path fill="none" stroke="#000000" d="M126.9222,-421.9975C134.0711,-419.134 141.2602,-416.0974 148,-413 183.4459,-396.71 222.2476,-375.2362 250.158,-359.1052"/>
<polygon fill="#000000" stroke="#000000" points="251.9337,-362.1214 258.8191,-354.0689 248.415,-356.0701 251.9337,-362.1214"/>
</g>
<!-- vol -->
<g id="node13" class="node">
<title>vol</title>
<polygon fill="#ffbbbb" stroke="#ffbbbb" points="128,-348 20,-348 20,-312 128,-312 128,-348"/>
<text text-anchor="middle" x="74" y="-326.3" font-family="Times,serif" font-size="14.00" fill="#000000">Volume knob</text>
</g>
<!-- vol&#45;&gt;micro -->
<g id="edge6" class="edge">
<title>vol&#45;&gt;micro</title>
<path fill="none" stroke="#000000" d="M128.2536,-331.5141C154.4006,-332.2437 186.1701,-333.1303 214.5393,-333.922"/>
<polygon fill="#000000" stroke="#000000" points="214.7267,-337.4285 224.8205,-334.2089 214.9221,-330.4313 214.7267,-337.4285"/>
<text text-anchor="middle" x="186.5" y="-336.8" font-family="Times,serif" font-size="14.00" fill="#000000">ADC</text>
</g>
<!-- VCC -->
<g id="node16" class="node">
<title>VCC</title>
<polygon fill="#bbffbb" stroke="#bbffbb" points="103.5,-58 44.5,-58 44.5,-20 103.5,-20 103.5,-58"/>
<text text-anchor="middle" x="74" y="-42.8" font-family="Times,serif" font-size="14.00" fill="#000000">VCC</text>
<text text-anchor="middle" x="74" y="-27.8" font-family="Times,serif" font-size="14.00" fill="#000000">5V/3A</text>
</g>
<!-- VCC&#45;&gt;PSU -->
<g id="edge23" class="edge">
<title>VCC&#45;&gt;PSU</title>
<path fill="none" stroke="#c0c0c0" d="M103.8948,-39C142.5067,-39 209.7199,-39 251.6526,-39"/>
<polygon fill="#c0c0c0" stroke="#c0c0c0" points="251.7361,-42.5001 261.736,-39 251.736,-35.5001 251.7361,-42.5001"/>
</g>
</g>
</svg>
