<?xml version="1.0" encoding="UTF-8" standalone="no"?>
<!DOCTYPE svg PUBLIC "-//W3C//DTD SVG 1.1//EN"
 "http://www.w3.org/Graphics/SVG/1.1/DTD/svg11.dtd">
<!-- Generated by graphviz version 2.40.1 (20161225.0304)
 -->
<!-- Title: G Pages: 1 -->
<svg width="801pt" height="462pt"
 viewBox="0.00 0.00 801.00 462.00" xmlns="http://www.w3.org/2000/svg" xmlns:xlink="http://www.w3.org/1999/xlink">
<g id="graph0" class="graph" transform="scale(1 1) rotate(0) translate(4 458)">
<title>G</title>
<polygon fill="#ffffff" stroke="transparent" points="-4,4 -4,-458 797,-458 797,4 -4,4"/>
<!-- dac -->
<g id="node1" class="node">
<title>dac</title>
<polygon fill="#bbbbff" stroke="#bbbbff" points="646.5,-244 592.5,-244 592.5,-208 646.5,-208 646.5,-244"/>
<text text-anchor="middle" x="619.5" y="-222.3" font-family="Times,serif" font-size="14.00" fill="#000000">DAC</text>
</g>
<!-- jack -->
<g id="node15" class="node">
<title>jack</title>
<polygon fill="#ffbbbb" stroke="#ffbbbb" points="778,-244 710,-244 710,-208 778,-208 778,-244"/>
<text text-anchor="middle" x="744" y="-222.3" font-family="Times,serif" font-size="14.00" fill="#000000">MiniJack</text>
</g>
<!-- dac&#45;&gt;jack -->
<g id="edge9" class="edge">
<title>dac&#45;&gt;jack</title>
<path fill="none" stroke="#000000" d="M646.5146,-226C662.0583,-226 681.9723,-226 699.7452,-226"/>
<polygon fill="#000000" stroke="#000000" points="699.913,-229.5001 709.913,-226 699.9129,-222.5001 699.913,-229.5001"/>
</g>
<!-- fpga -->
<g id="node2" class="node">
<title>fpga</title>
<polygon fill="#bbbbff" stroke="#bbbbff" points="498.5,-106 444.5,-106 444.5,-70 498.5,-70 498.5,-106"/>
<text text-anchor="middle" x="471.5" y="-84.3" font-family="Times,serif" font-size="14.00" fill="#000000">FPGA</text>
</g>
<!-- fpga&#45;&gt;dac -->
<g id="edge13" class="edge">
<title>fpga&#45;&gt;dac</title>
<path fill="none" stroke="#000000" d="M490.8484,-106.0411C516.8858,-130.3192 563.3186,-173.6146 592.7041,-201.0146"/>
<polygon fill="#000000" stroke="#000000" points="590.4461,-203.6946 600.1468,-207.9545 595.2199,-198.5749 590.4461,-203.6946"/>
<text text-anchor="middle" x="549.5" y="-173.8" font-family="Times,serif" font-size="14.00" fill="#000000">I2S</text>
</g>
<!-- flash -->
<g id="node6" class="node">
<title>flash</title>
<polygon fill="#bbbbff" stroke="#bbbbff" points="658,-89 581,-89 581,-51 658,-51 658,-89"/>
<text text-anchor="middle" x="619.5" y="-73.8" font-family="Times,serif" font-size="14.00" fill="#000000">FPGA</text>
<text text-anchor="middle" x="619.5" y="-58.8" font-family="Times,serif" font-size="14.00" fill="#000000">flashbrikke</text>
</g>
<!-- fpga&#45;&gt;flash -->
<g id="edge10" class="edge">
<title>fpga&#45;&gt;flash</title>
<path fill="none" stroke="#000000" d="M508.6237,-83.485C527.4651,-81.1934 550.5911,-78.3808 570.8387,-75.9183"/>
<polygon fill="#000000" stroke="#000000" points="508.1497,-80.0167 498.6455,-84.6985 508.9949,-86.9655 508.1497,-80.0167"/>
<polygon fill="#000000" stroke="#000000" points="571.3159,-79.3861 580.8201,-74.7043 570.4707,-72.4373 571.3159,-79.3861"/>
<text text-anchor="middle" x="549.5" y="-84.8" font-family="Times,serif" font-size="14.00" fill="#000000">flash</text>
</g>
<!-- gpio -->
<g id="node14" class="node">
<title>gpio</title>
<polygon fill="#ffbbbb" stroke="#ffbbbb" points="793,-163 695,-163 695,-125 793,-125 793,-163"/>
<text text-anchor="middle" x="744" y="-147.8" font-family="Times,serif" font-size="14.00" fill="#000000">Physical GPIO</text>
<text text-anchor="middle" x="744" y="-132.8" font-family="Times,serif" font-size="14.00" fill="#000000">(~20 pins?)</text>
</g>
<!-- fpga&#45;&gt;gpio -->
<g id="edge8" class="edge">
<title>fpga&#45;&gt;gpio</title>
<path fill="none" stroke="#000000" d="M508.6337,-95.6312C553.9536,-104.9446 631.1533,-120.8095 684.7246,-131.8186"/>
<polygon fill="#000000" stroke="#000000" points="509.1245,-92.1589 498.6246,-93.5742 507.7153,-99.0156 509.1245,-92.1589"/>
<polygon fill="#000000" stroke="#000000" points="684.2733,-135.299 694.7731,-133.8837 685.6824,-128.4422 684.2733,-135.299"/>
</g>
<!-- micro -->
<g id="node3" class="node">
<title>micro</title>
<polygon fill="#bbbbff" stroke="#bbbbff" points="294,-204 190,-204 190,-168 294,-168 294,-204"/>
<text text-anchor="middle" x="242" y="-182.3" font-family="Times,serif" font-size="14.00" fill="#000000">Microkontroller</text>
</g>
<!-- micro&#45;&gt;dac -->
<g id="edge12" class="edge">
<title>micro&#45;&gt;dac</title>
<path fill="none" stroke="#000000" d="M294.3604,-192.0425C300.309,-192.7116 306.285,-193.3761 312,-194 409.4468,-204.6385 524.3577,-216.3843 582.2188,-222.243"/>
<polygon fill="#000000" stroke="#000000" points="582.0403,-225.7427 592.3417,-223.2668 582.7447,-218.7782 582.0403,-225.7427"/>
<text text-anchor="middle" x="471.5" y="-218.8" font-family="Times,serif" font-size="14.00" fill="#000000">init</text>
</g>
<!-- micro&#45;&gt;fpga -->
<g id="edge11" class="edge">
<title>micro&#45;&gt;fpga</title>
<path fill="none" stroke="#000000" d="M252.2339,-167.8678C263.9982,-148.9194 285.1843,-120.0347 312,-106 350.0963,-86.0614 400.2136,-83.619 434.0208,-84.8251"/>
<polygon fill="#000000" stroke="#000000" points="434.2305,-88.3393 444.3882,-85.3274 434.5693,-81.3475 434.2305,-88.3393"/>
<text text-anchor="start" x="312" y="-154.8" font-family="Times,serif" font-size="14.00" fill="#000000">SPI med DMA:</text>
<text text-anchor="start" x="312" y="-139.8" font-family="Times,serif" font-size="14.00" fill="#000000">&#45;keyboard state</text>
<text text-anchor="start" x="312" y="-124.8" font-family="Times,serif" font-size="14.00" fill="#000000">&#45;sound envelope</text>
<text text-anchor="start" x="312" y="-109.8" font-family="Times,serif" font-size="14.00" fill="#000000">&#45;perhaps samples</text>
</g>
<!-- micro&#45;&gt;gpio -->
<g id="edge7" class="edge">
<title>micro&#45;&gt;gpio</title>
<path fill="none" stroke="#000000" d="M304.0949,-183.2139C368.8153,-180.0563 473.1427,-174.253 563,-166 603.74,-162.2582 649.4771,-156.6872 684.7822,-152.0877"/>
<polygon fill="#000000" stroke="#000000" points="303.8758,-179.7203 294.056,-183.6979 304.213,-186.7122 303.8758,-179.7203"/>
<polygon fill="#000000" stroke="#000000" points="685.4584,-155.5291 694.9175,-150.7567 684.5469,-148.5887 685.4584,-155.5291"/>
</g>
<!-- clk -->
<g id="node4" class="node">
<title>clk</title>
<polygon fill="#bbbbff" stroke="#bbbbff" points="92.5,-150 24.5,-150 24.5,-112 92.5,-112 92.5,-150"/>
<text text-anchor="middle" x="58.5" y="-134.8" font-family="Times,serif" font-size="14.00" fill="#000000">Klokke</text>
<text text-anchor="middle" x="58.5" y="-119.8" font-family="Times,serif" font-size="14.00" fill="#000000">(48MHz)</text>
</g>
<!-- clk&#45;&gt;micro -->
<g id="edge14" class="edge">
<title>clk&#45;&gt;micro</title>
<path fill="none" stroke="#000000" d="M92.5849,-141.2162C117.0753,-148.5566 150.7841,-158.6601 179.9865,-167.4128"/>
<polygon fill="#000000" stroke="#000000" points="179.1134,-170.8049 189.6973,-170.3234 181.1232,-164.0996 179.1134,-170.8049"/>
</g>
<!-- osc -->
<g id="node5" class="node">
<title>osc</title>
<polygon fill="#bbbbff" stroke="#bbbbff" points="93.5,-38 23.5,-38 23.5,0 93.5,0 93.5,-38"/>
<text text-anchor="middle" x="58.5" y="-22.8" font-family="Times,serif" font-size="14.00" fill="#000000">Oscillator</text>
<text text-anchor="middle" x="58.5" y="-7.8" font-family="Times,serif" font-size="14.00" fill="#000000">(20MHz)</text>
</g>
<!-- osc&#45;&gt;fpga -->
<g id="edge15" class="edge">
<title>osc&#45;&gt;fpga</title>
<path fill="none" stroke="#000000" d="M93.7121,-24.8829C171.0937,-37.811 355.3497,-68.5947 434.4195,-81.8049"/>
<polygon fill="#000000" stroke="#000000" points="433.9743,-85.279 444.4144,-83.4748 435.1279,-78.3747 433.9743,-85.279"/>
</g>
<!-- PSU -->
<g id="node7" class="node">
<title>PSU</title>
<polygon fill="#bbbbff" stroke="#bbbbff" points="269,-425 215,-425 215,-389 269,-389 269,-425"/>
<text text-anchor="middle" x="242" y="-403.3" font-family="Times,serif" font-size="14.00" fill="#000000">PSU</text>
</g>
<!-- caps -->
<g id="node8" class="node">
<title>caps</title>
<polygon fill="#bbbbff" stroke="#bbbbff" points="518,-454 425,-454 425,-416 518,-416 518,-454"/>
<text text-anchor="middle" x="471.5" y="-438.8" font-family="Times,serif" font-size="14.00" fill="#000000">Avkoblings&#45;</text>
<text text-anchor="middle" x="471.5" y="-423.8" font-family="Times,serif" font-size="14.00" fill="#000000">kondensatorer</text>
</g>
<!-- PSU&#45;&gt;caps -->
<g id="edge16" class="edge">
<title>PSU&#45;&gt;caps</title>
<path fill="none" stroke="#c0c0c0" d="M279.2834,-411.5487C315.9566,-416.023 372.4337,-422.9135 414.6945,-428.0695"/>
<polygon fill="#c0c0c0" stroke="#c0c0c0" points="279.5782,-408.0588 269.2279,-410.3219 278.7304,-415.0073 279.5782,-408.0588"/>
<polygon fill="#c0c0c0" stroke="#c0c0c0" points="414.4887,-431.5702 424.839,-429.3072 415.3365,-424.6218 414.4887,-431.5702"/>
</g>
<!-- GND -->
<g id="node17" class="node">
<title>GND</title>
<polygon fill="#bbffbb" stroke="#bbffbb" points="498.5,-398 444.5,-398 444.5,-362 498.5,-362 498.5,-398"/>
<text text-anchor="middle" x="471.5" y="-376.3" font-family="Times,serif" font-size="14.00" fill="#000000">GND</text>
</g>
<!-- PSU&#45;&gt;GND -->
<g id="edge18" class="edge">
<title>PSU&#45;&gt;GND</title>
<path fill="none" stroke="#c0c0c0" d="M269.2279,-403.7967C310.2053,-398.9758 387.8434,-389.842 434.1012,-384.3999"/>
<polygon fill="#c0c0c0" stroke="#c0c0c0" points="434.785,-387.8436 444.3075,-383.1991 433.9671,-380.8916 434.785,-387.8436"/>
</g>
<!-- jtag -->
<g id="node9" class="node">
<title>jtag</title>
<polygon fill="#ffbbbb" stroke="#ffbbbb" points="103,-94 14,-94 14,-56 103,-56 103,-94"/>
<text text-anchor="middle" x="58.5" y="-78.8" font-family="Times,serif" font-size="14.00" fill="#000000">JTAG&#45;</text>
<text text-anchor="middle" x="58.5" y="-63.8" font-family="Times,serif" font-size="14.00" fill="#000000">konnektor x2</text>
</g>
<!-- jtag&#45;&gt;fpga -->
<g id="edge2" class="edge">
<title>jtag&#45;&gt;fpga</title>
<path fill="none" stroke="#000000" d="M103.0906,-76.4036C185.0655,-78.9839 358.2656,-84.4357 434.3396,-86.8303"/>
<polygon fill="#000000" stroke="#000000" points="434.3045,-90.3308 444.4097,-87.1473 434.5248,-83.3343 434.3045,-90.3308"/>
<text text-anchor="middle" x="242" y="-86.8" font-family="Times,serif" font-size="14.00" fill="#000000">flash</text>
</g>
<!-- jtag&#45;&gt;micro -->
<g id="edge1" class="edge">
<title>jtag&#45;&gt;micro</title>
<path fill="none" stroke="#000000" d="M99.6948,-94.031C105.5548,-96.9364 111.4666,-99.9768 117,-103 149.5143,-120.7645 184.4842,-144.4098 209.1447,-161.9178"/>
<polygon fill="#000000" stroke="#000000" points="207.2469,-164.8635 217.4165,-167.8349 211.3195,-159.1702 207.2469,-164.8635"/>
<text text-anchor="middle" x="153.5" y="-139.8" font-family="Times,serif" font-size="14.00" fill="#000000">flash</text>
</g>
<!-- midi -->
<g id="node10" class="node">
<title>midi</title>
<polygon fill="#ffbbbb" stroke="#ffbbbb" points="96.5,-370 20.5,-370 20.5,-332 96.5,-332 96.5,-370"/>
<text text-anchor="middle" x="58.5" y="-354.8" font-family="Times,serif" font-size="14.00" fill="#000000">5pin MIDI</text>
<text text-anchor="middle" x="58.5" y="-339.8" font-family="Times,serif" font-size="14.00" fill="#000000">inputport</text>
</g>
<!-- midi&#45;&gt;micro -->
<g id="edge3" class="edge">
<title>midi&#45;&gt;micro</title>
<path fill="none" stroke="#000000" d="M96.5571,-335.4208C103.6379,-331.8014 110.7628,-327.6322 117,-323 160.2883,-290.8515 200.4334,-242.136 223.0228,-212.2868"/>
<polygon fill="#000000" stroke="#000000" points="226.0072,-214.1399 229.1853,-204.0329 220.3981,-209.952 226.0072,-214.1399"/>
<text text-anchor="middle" x="153.5" y="-310.8" font-family="Times,serif" font-size="14.00" fill="#000000">UART</text>
</g>
<!-- btn -->
<g id="node11" class="node">
<title>btn</title>
<polygon fill="#ffbbbb" stroke="#ffbbbb" points="102,-314 15,-314 15,-278 102,-278 102,-314"/>
<text text-anchor="middle" x="58.5" y="-292.3" font-family="Times,serif" font-size="14.00" fill="#000000">Knapper x12</text>
</g>
<!-- btn&#45;&gt;micro -->
<g id="edge4" class="edge">
<title>btn&#45;&gt;micro</title>
<path fill="none" stroke="#000000" d="M99.8125,-277.9028C105.6552,-275.0639 111.5309,-272.054 117,-269 149.3488,-250.9359 184.3371,-227.324 209.0466,-209.9048"/>
<polygon fill="#000000" stroke="#000000" points="211.2077,-212.6629 217.3369,-204.0209 207.1563,-206.9545 211.2077,-212.6629"/>
</g>
<!-- btn2 -->
<g id="node12" class="node">
<title>btn2</title>
<polygon fill="#ffbbbb" stroke="#ffbbbb" points="117,-260 0,-260 0,-222 117,-222 117,-260"/>
<text text-anchor="middle" x="58.5" y="-244.8" font-family="Times,serif" font-size="14.00" fill="#000000">Menu buttons</text>
<text text-anchor="middle" x="58.5" y="-229.8" font-family="Times,serif" font-size="14.00" fill="#000000">(yet to be defined)</text>
</g>
<!-- btn2&#45;&gt;micro -->
<g id="edge5" class="edge">
<title>btn2&#45;&gt;micro</title>
<path fill="none" stroke="#000000" d="M117.0651,-223.4464C137.1658,-217.4217 159.7225,-210.6608 180.0805,-204.559"/>
<polygon fill="#000000" stroke="#000000" points="181.3033,-207.8464 189.8774,-201.6226 179.2935,-201.1411 181.3033,-207.8464"/>
</g>
<!-- vol -->
<g id="node13" class="node">
<title>vol</title>
<polygon fill="#ffbbbb" stroke="#ffbbbb" points="104.5,-204 12.5,-204 12.5,-168 104.5,-168 104.5,-204"/>
<text text-anchor="middle" x="58.5" y="-182.3" font-family="Times,serif" font-size="14.00" fill="#000000">Volume knob</text>
</g>
<!-- vol&#45;&gt;micro -->
<g id="edge6" class="edge">
<title>vol&#45;&gt;micro</title>
<path fill="none" stroke="#000000" d="M104.8048,-186C127.4726,-186 155.0917,-186 179.5912,-186"/>
<polygon fill="#000000" stroke="#000000" points="179.8765,-189.5001 189.8765,-186 179.8764,-182.5001 179.8765,-189.5001"/>
<text text-anchor="middle" x="153.5" y="-189.8" font-family="Times,serif" font-size="14.00" fill="#000000">ADC</text>
</g>
<!-- VCC -->
<g id="node16" class="node">
<title>VCC</title>
<polygon fill="#bbffbb" stroke="#bbffbb" points="85.5,-426 31.5,-426 31.5,-388 85.5,-388 85.5,-426"/>
<text text-anchor="middle" x="58.5" y="-410.8" font-family="Times,serif" font-size="14.00" fill="#000000">VCC</text>
<text text-anchor="middle" x="58.5" y="-395.8" font-family="Times,serif" font-size="14.00" fill="#000000">5V/3A</text>
</g>
<!-- VCC&#45;&gt;PSU -->
<g id="edge17" class="edge">
<title>VCC&#45;&gt;PSU</title>
<path fill="none" stroke="#c0c0c0" d="M85.5761,-407C117.0172,-407 169.0746,-407 204.4211,-407"/>
<polygon fill="#c0c0c0" stroke="#c0c0c0" points="204.8129,-410.5001 214.8129,-407 204.8128,-403.5001 204.8129,-410.5001"/>
</g>
</g>
</svg>
