<?xml version="1.0" encoding="UTF-8" standalone="no"?>
<!DOCTYPE svg PUBLIC "-//W3C//DTD SVG 1.1//EN"
 "http://www.w3.org/Graphics/SVG/1.1/DTD/svg11.dtd">
<!-- Generated by graphviz version 2.40.1 (0)
 -->
<!-- Title: asd Pages: 1 -->
<svg width="558pt" height="152pt"
 viewBox="0.00 0.00 557.56 152.00" xmlns="http://www.w3.org/2000/svg" xmlns:xlink="http://www.w3.org/1999/xlink">
<g id="graph0" class="graph" transform="scale(1 1) rotate(0) translate(4 148)">
<title>asd</title>
<polygon fill="#ffffff" stroke="transparent" points="-4,4 -4,-148 553.564,-148 553.564,4 -4,4"/>
<!-- Buttons -->
<g id="node1" class="node">
<title>Buttons</title>
<ellipse fill="none" stroke="#000000" cx="47.4458" cy="-72" rx="47.3916" ry="18"/>
<text text-anchor="middle" x="47.4458" y="-68.3" font-family="Times,serif" font-size="14.00" fill="#000000">Buttons</text>
</g>
<!-- micro -->
<g id="node2" class="node">
<title>micro</title>
<ellipse fill="none" stroke="#000000" cx="167.9383" cy="-42" rx="37.0935" ry="18"/>
<text text-anchor="middle" x="167.9383" y="-38.3" font-family="Times,serif" font-size="14.00" fill="#000000">micro</text>
</g>
<!-- Buttons&#45;&gt;micro -->
<g id="edge1" class="edge">
<title>Buttons&#45;&gt;micro</title>
<path fill="none" stroke="#000000" d="M87.2335,-62.0937C99.2295,-59.107 112.4534,-55.8145 124.6645,-52.7742"/>
<polygon fill="#000000" stroke="#000000" points="125.7762,-56.1044 134.6343,-50.292 124.0849,-49.3117 125.7762,-56.1044"/>
</g>
<!-- FPGA -->
<g id="node5" class="node">
<title>FPGA</title>
<ellipse fill="none" stroke="#000000" cx="278.0317" cy="-88" rx="37.0935" ry="18"/>
<text text-anchor="middle" x="278.0317" y="-84.3" font-family="Times,serif" font-size="14.00" fill="#000000">FPGA</text>
</g>
<!-- Buttons&#45;&gt;FPGA -->
<g id="edge7" class="edge">
<title>Buttons&#45;&gt;FPGA</title>
<path fill="none" stroke="#ff0000" d="M94.3862,-75.2571C134.2396,-78.0225 191.1469,-81.9712 231.0204,-84.738"/>
<polygon fill="#ff0000" stroke="#ff0000" points="230.8053,-88.2314 241.0236,-85.4321 231.2899,-81.2481 230.8053,-88.2314"/>
</g>
<!-- micro&#45;&gt;FPGA -->
<g id="edge4" class="edge">
<title>micro&#45;&gt;FPGA</title>
<path fill="none" stroke="#000000" d="M201.5682,-49.7777C215.9542,-55.1164 232.6523,-62.1327 246.7675,-68.7813"/>
<polygon fill="#000000" stroke="#000000" points="245.5427,-72.0775 256.0668,-73.3004 248.6023,-65.7815 245.5427,-72.0775"/>
</g>
<!-- DAC -->
<g id="node6" class="node">
<title>DAC</title>
<ellipse fill="none" stroke="#000000" cx="382.2757" cy="-42" rx="31.3957" ry="18"/>
<text text-anchor="middle" x="382.2757" y="-38.3" font-family="Times,serif" font-size="14.00" fill="#000000">DAC</text>
</g>
<!-- micro&#45;&gt;DAC -->
<g id="edge10" class="edge">
<title>micro&#45;&gt;DAC</title>
<path fill="none" stroke="#ff0000" d="M205.273,-42C243.1477,-42 301.6338,-42 340.8994,-42"/>
<polygon fill="#ff0000" stroke="#ff0000" points="340.9371,-45.5001 350.9371,-42 340.937,-38.5001 340.9371,-45.5001"/>
</g>
<!-- Pots -->
<g id="node3" class="node">
<title>Pots</title>
<ellipse fill="none" stroke="#000000" cx="47.4458" cy="-18" rx="30.5947" ry="18"/>
<text text-anchor="middle" x="47.4458" y="-14.3" font-family="Times,serif" font-size="14.00" fill="#000000">Pots</text>
</g>
<!-- Pots&#45;&gt;micro -->
<g id="edge2" class="edge">
<title>Pots&#45;&gt;micro</title>
<path fill="none" stroke="#000000" d="M76.6137,-23.8097C90.6685,-26.6092 107.8309,-30.0277 123.468,-33.1423"/>
<polygon fill="#000000" stroke="#000000" points="122.9844,-36.6147 133.4755,-35.1356 124.3519,-29.7495 122.9844,-36.6147"/>
</g>
<!-- MIDI -->
<g id="node4" class="node">
<title>MIDI</title>
<ellipse fill="none" stroke="#000000" cx="47.4458" cy="-126" rx="34.394" ry="18"/>
<text text-anchor="middle" x="47.4458" y="-122.3" font-family="Times,serif" font-size="14.00" fill="#000000">MIDI</text>
</g>
<!-- MIDI&#45;&gt;micro -->
<g id="edge3" class="edge">
<title>MIDI&#45;&gt;micro</title>
<path fill="none" stroke="#000000" d="M71.9926,-112.9275C79.481,-108.7025 87.6464,-103.851 94.8916,-99 110.831,-88.3277 127.7709,-75.2298 141.3205,-64.2819"/>
<polygon fill="#000000" stroke="#000000" points="143.7468,-66.8194 149.2797,-57.784 139.3199,-61.3969 143.7468,-66.8194"/>
</g>
<!-- MIDI&#45;&gt;FPGA -->
<g id="edge9" class="edge">
<title>MIDI&#45;&gt;FPGA</title>
<path fill="none" stroke="#ff0000" d="M80.4831,-120.5555C120.4566,-113.968 187.9563,-102.8442 232.7553,-95.4614"/>
<polygon fill="#ff0000" stroke="#ff0000" points="233.4894,-98.8878 242.7872,-93.8082 232.3511,-91.9809 233.4894,-98.8878"/>
</g>
<!-- FPGA&#45;&gt;micro -->
<g id="edge11" class="edge">
<title>FPGA&#45;&gt;micro</title>
<path fill="none" stroke="#ff0000" d="M244.1862,-80.1422C229.7696,-74.784 213.0629,-67.7566 198.9689,-61.1086"/>
<polygon fill="#ff0000" stroke="#ff0000" points="200.2125,-57.8213 189.6892,-56.5919 197.1489,-64.1154 200.2125,-57.8213"/>
</g>
<!-- FPGA&#45;&gt;DAC -->
<g id="edge5" class="edge">
<title>FPGA&#45;&gt;DAC</title>
<path fill="none" stroke="#000000" d="M305.6935,-75.7936C318.7297,-70.0411 334.406,-63.1236 348.1707,-57.0496"/>
<polygon fill="#000000" stroke="#000000" points="349.6029,-60.2433 357.3387,-53.004 346.7769,-53.8391 349.6029,-60.2433"/>
</g>
<!-- minijack -->
<g id="node7" class="node">
<title>minijack</title>
<ellipse fill="none" stroke="#000000" cx="499.5185" cy="-65" rx="50.0912" ry="18"/>
<text text-anchor="middle" x="499.5185" y="-61.3" font-family="Times,serif" font-size="14.00" fill="#000000">minijack</text>
</g>
<!-- FPGA&#45;&gt;minijack -->
<g id="edge8" class="edge">
<title>FPGA&#45;&gt;minijack</title>
<path fill="none" stroke="#ff0000" d="M314.6057,-84.202C348.9666,-80.6339 400.9579,-75.2349 441.069,-71.0696"/>
<polygon fill="#ff0000" stroke="#ff0000" points="441.6693,-74.5262 451.2543,-70.0119 440.9462,-67.5636 441.6693,-74.5262"/>
</g>
<!-- DAC&#45;&gt;minijack -->
<g id="edge6" class="edge">
<title>DAC&#45;&gt;minijack</title>
<path fill="none" stroke="#000000" d="M411.861,-47.8039C422.0396,-49.8007 433.7807,-52.104 445.2944,-54.3626"/>
<polygon fill="#000000" stroke="#000000" points="444.8221,-57.8366 455.3089,-56.3272 446.1697,-50.9676 444.8221,-57.8366"/>
</g>
</g>
</svg>
