<?xml version="1.0" encoding="UTF-8" standalone="no"?>
<!DOCTYPE svg PUBLIC "-//W3C//DTD SVG 1.1//EN"
 "http://www.w3.org/Graphics/SVG/1.1/DTD/svg11.dtd">
<!-- Generated by graphviz version 2.40.1 (20161225.0304)
 -->
<!-- Title: asd Pages: 1 -->
<svg width="502pt" height="152pt"
 viewBox="0.00 0.00 501.67 152.00" xmlns="http://www.w3.org/2000/svg" xmlns:xlink="http://www.w3.org/1999/xlink">
<g id="graph0" class="graph" transform="scale(1 1) rotate(0) translate(4 148)">
<title>asd</title>
<polygon fill="#ffffff" stroke="transparent" points="-4,4 -4,-148 497.669,-148 497.669,4 -4,4"/>
<!-- Buttons -->
<g id="node1" class="node">
<title>Buttons</title>
<ellipse fill="none" stroke="#000000" cx="38.3466" cy="-72" rx="38.1938" ry="18"/>
<text text-anchor="middle" x="38.3466" y="-68.3" font-family="Times,serif" font-size="14.00" fill="#000000">Buttons</text>
</g>
<!-- micro -->
<g id="node2" class="node">
<title>micro</title>
<ellipse fill="none" stroke="#000000" cx="144.5404" cy="-42" rx="31.6951" ry="18"/>
<text text-anchor="middle" x="144.5404" y="-38.3" font-family="Times,serif" font-size="14.00" fill="#000000">micro</text>
</g>
<!-- Buttons&#45;&gt;micro -->
<g id="edge1" class="edge">
<title>Buttons&#45;&gt;micro</title>
<path fill="none" stroke="#000000" d="M71.3649,-62.6723C82.3842,-59.5593 94.7566,-56.064 106.1486,-52.8458"/>
<polygon fill="#000000" stroke="#000000" points="107.1769,-56.1923 115.8487,-50.1055 105.2738,-49.456 107.1769,-56.1923"/>
</g>
<!-- FPGA -->
<g id="node5" class="node">
<title>FPGA</title>
<ellipse fill="none" stroke="#000000" cx="245.5346" cy="-88" rx="33.2948" ry="18"/>
<text text-anchor="middle" x="245.5346" y="-84.3" font-family="Times,serif" font-size="14.00" fill="#000000">FPGA</text>
</g>
<!-- Buttons&#45;&gt;FPGA -->
<g id="edge7" class="edge">
<title>Buttons&#45;&gt;FPGA</title>
<path fill="none" stroke="#ff0000" d="M76.3481,-74.9346C112.0138,-77.6889 165.3006,-81.804 202.5132,-84.6777"/>
<polygon fill="#ff0000" stroke="#ff0000" points="202.3149,-88.1727 212.5548,-85.4531 202.854,-81.1935 202.3149,-88.1727"/>
</g>
<!-- micro&#45;&gt;FPGA -->
<g id="edge4" class="edge">
<title>micro&#45;&gt;FPGA</title>
<path fill="none" stroke="#000000" d="M174.0236,-49.2276C187.4229,-54.5894 203.2248,-61.7963 216.5621,-68.6314"/>
<polygon fill="#000000" stroke="#000000" points="215.2939,-71.9204 225.7686,-73.5111 218.5721,-65.7355 215.2939,-71.9204"/>
</g>
<!-- DAC -->
<g id="node6" class="node">
<title>DAC</title>
<ellipse fill="none" stroke="#000000" cx="343.9291" cy="-42" rx="29.4969" ry="18"/>
<text text-anchor="middle" x="343.9291" y="-38.3" font-family="Times,serif" font-size="14.00" fill="#000000">DAC</text>
</g>
<!-- micro&#45;&gt;DAC -->
<g id="edge10" class="edge">
<title>micro&#45;&gt;DAC</title>
<path fill="none" stroke="#ff0000" d="M176.5756,-42C211.3911,-42 267.0507,-42 304.519,-42"/>
<polygon fill="#ff0000" stroke="#ff0000" points="304.5722,-45.5001 314.5722,-42 304.5722,-38.5001 304.5722,-45.5001"/>
</g>
<!-- Pots -->
<g id="node3" class="node">
<title>Pots</title>
<ellipse fill="none" stroke="#000000" cx="38.3466" cy="-18" rx="27" ry="18"/>
<text text-anchor="middle" x="38.3466" y="-14.3" font-family="Times,serif" font-size="14.00" fill="#000000">Pots</text>
</g>
<!-- Pots&#45;&gt;micro -->
<g id="edge2" class="edge">
<title>Pots&#45;&gt;micro</title>
<path fill="none" stroke="#000000" d="M64.0531,-23.8097C76.2819,-26.5734 91.1799,-29.9404 104.8185,-33.0228"/>
<polygon fill="#000000" stroke="#000000" points="104.4119,-36.5191 114.9374,-35.3097 105.955,-29.6913 104.4119,-36.5191"/>
</g>
<!-- MIDI -->
<g id="node4" class="node">
<title>MIDI</title>
<ellipse fill="none" stroke="#000000" cx="38.3466" cy="-126" rx="31.3957" ry="18"/>
<text text-anchor="middle" x="38.3466" y="-122.3" font-family="Times,serif" font-size="14.00" fill="#000000">MIDI</text>
</g>
<!-- MIDI&#45;&gt;micro -->
<g id="edge3" class="edge">
<title>MIDI&#45;&gt;micro</title>
<path fill="none" stroke="#000000" d="M58.8797,-112.0251C64.7104,-107.9273 71.0158,-103.3709 76.6932,-99 91.1927,-87.8371 106.8653,-74.7422 119.4907,-63.9205"/>
<polygon fill="#000000" stroke="#000000" points="122.0183,-66.3625 127.3045,-57.1806 117.4462,-61.0619 122.0183,-66.3625"/>
</g>
<!-- MIDI&#45;&gt;FPGA -->
<g id="edge9" class="edge">
<title>MIDI&#45;&gt;FPGA</title>
<path fill="none" stroke="#ff0000" d="M68.4735,-120.4745C104.1964,-113.9226 163.9324,-102.9665 204.0195,-95.6142"/>
<polygon fill="#ff0000" stroke="#ff0000" points="204.8081,-99.028 214.0126,-93.7814 203.5453,-92.1429 204.8081,-99.028"/>
</g>
<!-- FPGA&#45;&gt;micro -->
<g id="edge11" class="edge">
<title>FPGA&#45;&gt;micro</title>
<path fill="none" stroke="#ff0000" d="M215.3869,-80.5057C201.9988,-75.1196 186.3189,-67.9487 173.1185,-61.1663"/>
<polygon fill="#ff0000" stroke="#ff0000" points="174.4861,-57.9295 164.0131,-56.3273 171.201,-64.1108 174.4861,-57.9295"/>
</g>
<!-- FPGA&#45;&gt;DAC -->
<g id="edge5" class="edge">
<title>FPGA&#45;&gt;DAC</title>
<path fill="none" stroke="#000000" d="M270.8736,-76.1539C283.1532,-70.4131 298.0493,-63.449 311.1793,-57.3107"/>
<polygon fill="#000000" stroke="#000000" points="312.7884,-60.4221 320.365,-53.0163 309.8238,-54.0808 312.7884,-60.4221"/>
</g>
<!-- minijack -->
<g id="node7" class="node">
<title>minijack</title>
<ellipse fill="none" stroke="#000000" cx="451.4227" cy="-65" rx="42.4939" ry="18"/>
<text text-anchor="middle" x="451.4227" y="-61.3" font-family="Times,serif" font-size="14.00" fill="#000000">minijack</text>
</g>
<!-- FPGA&#45;&gt;minijack -->
<g id="edge8" class="edge">
<title>FPGA&#45;&gt;minijack</title>
<path fill="none" stroke="#ff0000" d="M278.1582,-84.3556C310.9097,-80.6969 361.8515,-75.0061 400.036,-70.7405"/>
<polygon fill="#ff0000" stroke="#ff0000" points="400.8923,-74.1667 410.4419,-69.578 400.1151,-67.2099 400.8923,-74.1667"/>
</g>
<!-- DAC&#45;&gt;minijack -->
<g id="edge6" class="edge">
<title>DAC&#45;&gt;minijack</title>
<path fill="none" stroke="#000000" d="M371.6114,-47.9231C381.3272,-50.0019 392.5424,-52.4016 403.4381,-54.7329"/>
<polygon fill="#000000" stroke="#000000" points="402.7913,-58.1737 413.3023,-56.8435 404.2559,-51.3286 402.7913,-58.1737"/>
</g>
</g>
</svg>
