<?xml version="1.0" encoding="UTF-8" standalone="no"?>
<!DOCTYPE svg PUBLIC "-//W3C//DTD SVG 1.1//EN"
 "http://www.w3.org/Graphics/SVG/1.1/DTD/svg11.dtd">
<!-- Generated by graphviz version 2.40.1 (0)
 -->
<!-- Title: asd Pages: 1 -->
<svg width="558pt" height="107pt"
 viewBox="0.00 0.00 557.56 107.00" xmlns="http://www.w3.org/2000/svg" xmlns:xlink="http://www.w3.org/1999/xlink">
<g id="graph0" class="graph" transform="scale(1 1) rotate(0) translate(4 103)">
<title>asd</title>
<polygon fill="#ffffff" stroke="transparent" points="-4,4 -4,-103 553.564,-103 553.564,4 -4,4"/>
<!-- Buttons -->
<g id="node1" class="node">
<title>Buttons</title>
<ellipse fill="none" stroke="#000000" cx="47.4458" cy="-81" rx="47.3916" ry="18"/>
<text text-anchor="middle" x="47.4458" y="-77.3" font-family="Times,serif" font-size="14.00" fill="#000000">Buttons</text>
</g>
<!-- micro -->
<g id="node2" class="node">
<title>micro</title>
<ellipse fill="none" stroke="#000000" cx="167.9383" cy="-45" rx="37.0935" ry="18"/>
<text text-anchor="middle" x="167.9383" y="-41.3" font-family="Times,serif" font-size="14.00" fill="#000000">micro</text>
</g>
<!-- Buttons&#45;&gt;micro -->
<g id="edge1" class="edge">
<title>Buttons&#45;&gt;micro</title>
<path fill="none" stroke="#000000" d="M84.9099,-69.8067C98.012,-65.8921 112.8001,-61.4739 126.2273,-57.4622"/>
<polygon fill="#000000" stroke="#000000" points="127.5998,-60.705 136.1794,-54.4887 125.5959,-53.998 127.5998,-60.705"/>
</g>
<!-- FPGA -->
<g id="node3" class="node">
<title>FPGA</title>
<ellipse fill="none" stroke="#000000" cx="278.0317" cy="-45" rx="37.0935" ry="18"/>
<text text-anchor="middle" x="278.0317" y="-41.3" font-family="Times,serif" font-size="14.00" fill="#000000">FPGA</text>
</g>
<!-- Buttons&#45;&gt;FPGA -->
<g id="edge6" class="edge">
<title>Buttons&#45;&gt;FPGA</title>
<path fill="none" stroke="#ff0000" d="M95.1463,-81.9312C126.6399,-81.6543 168.6461,-79.5768 204.985,-72 217.0646,-69.4814 229.8153,-65.3269 241.2233,-61.0231"/>
<polygon fill="#ff0000" stroke="#ff0000" points="242.8248,-64.1545 250.8523,-57.24 240.265,-57.6393 242.8248,-64.1545"/>
</g>
<!-- micro&#45;&gt;FPGA -->
<g id="edge2" class="edge">
<title>micro&#45;&gt;FPGA</title>
<path fill="none" stroke="#000000" d="M205.2109,-45C213.3711,-45 222.115,-45 230.6118,-45"/>
<polygon fill="#000000" stroke="#000000" points="230.7975,-48.5001 240.7975,-45 230.7975,-41.5001 230.7975,-48.5001"/>
</g>
<!-- DAC -->
<g id="node4" class="node">
<title>DAC</title>
<ellipse fill="none" stroke="#000000" cx="382.2757" cy="-68" rx="31.3957" ry="18"/>
<text text-anchor="middle" x="382.2757" y="-64.3" font-family="Times,serif" font-size="14.00" fill="#000000">DAC</text>
</g>
<!-- FPGA&#45;&gt;DAC -->
<g id="edge3" class="edge">
<title>FPGA&#45;&gt;DAC</title>
<path fill="none" stroke="#000000" d="M311.8767,-52.4674C321.7752,-54.6514 332.6806,-57.0575 342.8913,-59.3104"/>
<polygon fill="#000000" stroke="#000000" points="342.2881,-62.7614 352.8074,-61.4982 343.7964,-55.9258 342.2881,-62.7614"/>
</g>
<!-- minijack -->
<g id="node5" class="node">
<title>minijack</title>
<ellipse fill="none" stroke="#000000" cx="499.5185" cy="-45" rx="50.0912" ry="18"/>
<text text-anchor="middle" x="499.5185" y="-41.3" font-family="Times,serif" font-size="14.00" fill="#000000">minijack</text>
</g>
<!-- FPGA&#45;&gt;minijack -->
<g id="edge7" class="edge">
<title>FPGA&#45;&gt;minijack</title>
<path fill="none" stroke="#ff0000" d="M314.8016,-42.593C326.4024,-41.9393 339.2712,-41.323 351.0784,-41 378.7989,-40.2416 385.7495,-40.356 413.4729,-41 421.962,-41.1972 430.9184,-41.5037 439.7172,-41.8613"/>
<polygon fill="#ff0000" stroke="#ff0000" points="439.7951,-45.3678 449.9364,-42.3012 440.0961,-38.3743 439.7951,-45.3678"/>
</g>
<!-- DAC&#45;&gt;minijack -->
<g id="edge4" class="edge">
<title>DAC&#45;&gt;minijack</title>
<path fill="none" stroke="#000000" d="M411.861,-62.1961C422.0396,-60.1993 433.7807,-57.896 445.2944,-55.6374"/>
<polygon fill="#000000" stroke="#000000" points="446.1697,-59.0324 455.3089,-53.6728 444.8221,-52.1634 446.1697,-59.0324"/>
</g>
<!-- MIDI -->
<g id="node6" class="node">
<title>MIDI</title>
<ellipse fill="none" stroke="#000000" cx="47.4458" cy="-18" rx="34.394" ry="18"/>
<text text-anchor="middle" x="47.4458" y="-14.3" font-family="Times,serif" font-size="14.00" fill="#000000">MIDI</text>
</g>
<!-- MIDI&#45;&gt;micro -->
<g id="edge5" class="edge">
<title>MIDI&#45;&gt;micro</title>
<path fill="none" stroke="#000000" d="M79.4192,-25.1646C93.1279,-28.2365 109.3623,-31.8743 124.1607,-35.1903"/>
<polygon fill="#000000" stroke="#000000" points="123.6044,-38.6524 134.1277,-37.4237 125.135,-31.8218 123.6044,-38.6524"/>
</g>
<!-- MIDI&#45;&gt;FPGA -->
<g id="edge8" class="edge">
<title>MIDI&#45;&gt;FPGA</title>
<path fill="none" stroke="#ff0000" d="M81.5553,-14.5605C113.6722,-12.1299 162.9849,-10.4863 204.985,-18 217.3582,-20.2135 230.3783,-24.3802 241.9435,-28.7895"/>
<polygon fill="#ff0000" stroke="#ff0000" points="240.6851,-32.0557 251.27,-32.5129 243.2805,-25.5546 240.6851,-32.0557"/>
</g>
</g>
</svg>
