<?xml version="1.0" encoding="UTF-8" standalone="no"?>
<!DOCTYPE svg PUBLIC "-//W3C//DTD SVG 1.1//EN"
 "http://www.w3.org/Graphics/SVG/1.1/DTD/svg11.dtd">
<!-- Generated by graphviz version 2.40.1 (0)
 -->
<!-- Title: G Pages: 1 -->
<svg width="1802pt" height="493pt"
 viewBox="0.00 0.00 1802.00 493.00" xmlns="http://www.w3.org/2000/svg" xmlns:xlink="http://www.w3.org/1999/xlink">
<g id="graph0" class="graph" transform="scale(1 1) rotate(0) translate(4 489)">
<title>G</title>
<polygon fill="#ffffff" stroke="transparent" points="-4,4 -4,-489 1798,-489 1798,4 -4,4"/>
<g id="clust1" class="cluster">
<title>cluster_0</title>
<polygon fill="none" stroke="#ff0000" points="160,-230 160,-305 449,-305 449,-230 160,-230"/>
<text text-anchor="middle" x="304.5" y="-289.8" font-family="Times,serif" font-size="14.00" fill="#000000">Mikroprosessor</text>
</g>
<g id="clust2" class="cluster">
<title>cluster_1</title>
<polygon fill="none" stroke="#0000ff" points="881,-8 881,-477 1575,-477 1575,-8 881,-8"/>
<text text-anchor="middle" x="1228" y="-461.8" font-family="Times,serif" font-size="14.00" fill="#000000">FPGA</text>
</g>
<!-- midi -->
<g id="node1" class="node">
<title>midi</title>
<polygon fill="#ffbbbb" stroke="#ffbbbb" points="107.5,-331 23.5,-331 23.5,-293 107.5,-293 107.5,-331"/>
<text text-anchor="middle" x="65.5" y="-315.8" font-family="Times,serif" font-size="14.00" fill="#000000">MIDI</text>
<text text-anchor="middle" x="65.5" y="-300.8" font-family="Times,serif" font-size="14.00" fill="#000000">inputport</text>
</g>
<!-- micro_input_handler -->
<g id="node5" class="node">
<title>micro_input_handler</title>
<polygon fill="#bbbbff" stroke="#bbbbff" points="281,-274 168,-274 168,-238 281,-238 281,-274"/>
<text text-anchor="middle" x="224.5" y="-252.3" font-family="Times,serif" font-size="14.00" fill="#000000">input handler</text>
</g>
<!-- midi&#45;&gt;micro_input_handler -->
<g id="edge3" class="edge">
<title>midi&#45;&gt;micro_input_handler</title>
<path fill="none" stroke="#000000" d="M107.7759,-298.2406C115.9916,-294.4161 124.1636,-289.7052 131,-284 142.4515,-274.4433 134.5846,-256.0296 149.5,-256"/>
</g>
<!-- btn -->
<g id="node2" class="node">
<title>btn</title>
<polygon fill="#ffbbbb" stroke="#ffbbbb" points="131,-275 0,-275 0,-237 131,-237 131,-275"/>
<text text-anchor="middle" x="65.5" y="-259.8" font-family="Times,serif" font-size="14.00" fill="#000000">Knapper x12</text>
<text text-anchor="middle" x="65.5" y="-244.8" font-family="Times,serif" font-size="14.00" fill="#000000">(force sensitive)</text>
</g>
<!-- btn&#45;&gt;micro_input_handler -->
<g id="edge4" class="edge">
<title>btn&#45;&gt;micro_input_handler</title>
<path fill="none" stroke="#000000" d="M131.0744,-256.0251C137.3023,-256.0199 143.5208,-256.0119 149.5,-256"/>
</g>
<!-- vol -->
<g id="node3" class="node">
<title>vol</title>
<polygon fill="#ffbbbb" stroke="#ffbbbb" points="119.5,-219 11.5,-219 11.5,-183 119.5,-183 119.5,-219"/>
<text text-anchor="middle" x="65.5" y="-197.3" font-family="Times,serif" font-size="14.00" fill="#000000">Volume knob</text>
</g>
<!-- vol&#45;&gt;micro_input_handler -->
<g id="edge2" class="edge">
<title>vol&#45;&gt;micro_input_handler</title>
<path fill="none" stroke="#000000" d="M117.9299,-219.1734C122.5702,-221.7826 127.0124,-224.7159 131,-228 142.5133,-237.4822 134.5846,-256.0296 149.5,-256"/>
<path fill="none" stroke="#000000" d="M149.5,-256C152.214,-255.9946 154.9833,-255.9901 157.7808,-255.9864"/>
<polygon fill="#000000" stroke="#000000" points="157.9894,-259.4863 167.9858,-255.976 157.9823,-252.4863 157.9894,-259.4863"/>
</g>
<!-- jack -->
<g id="node4" class="node">
<title>jack</title>
<polygon fill="#ffbbbb" stroke="#ffbbbb" points="1794,-274 1716,-274 1716,-238 1794,-238 1794,-274"/>
<text text-anchor="middle" x="1755" y="-252.3" font-family="Times,serif" font-size="14.00" fill="#000000">MiniJack</text>
</g>
<!-- delegator -->
<g id="node6" class="node">
<title>delegator</title>
<polygon fill="#bbbbff" stroke="#bbbbff" points="441,-274 356,-274 356,-238 441,-238 441,-274"/>
<text text-anchor="middle" x="398.5" y="-252.3" font-family="Times,serif" font-size="14.00" fill="#000000">delegator</text>
</g>
<!-- micro_input_handler&#45;&gt;delegator -->
<g id="edge1" class="edge">
<title>micro_input_handler&#45;&gt;delegator</title>
<path fill="none" stroke="#000000" d="M281.4741,-256C302.1624,-256 325.4325,-256 345.7409,-256"/>
<polygon fill="#000000" stroke="#000000" points="345.7538,-259.5001 355.7538,-256 345.7537,-252.5001 345.7538,-259.5001"/>
</g>
<!-- fpga_input_handler -->
<g id="node7" class="node">
<title>fpga_input_handler</title>
<polygon fill="#bbbbff" stroke="#bbbbff" points="1043,-274 889,-274 889,-238 1043,-238 1043,-274"/>
<text text-anchor="middle" x="966" y="-252.3" font-family="Times,serif" font-size="14.00" fill="#000000">fpga_input_handler</text>
</g>
<!-- delegator&#45;&gt;fpga_input_handler -->
<g id="edge5" class="edge">
<title>delegator&#45;&gt;fpga_input_handler</title>
<path fill="none" stroke="#000000" d="M441.1547,-256C533.7966,-256 754.9855,-256 878.6079,-256"/>
<polygon fill="#000000" stroke="#000000" points="878.7976,-259.5001 888.7976,-256 878.7975,-252.5001 878.7976,-259.5001"/>
<text text-anchor="middle" x="665" y="-319.8" font-family="Times,serif" font-size="14.00" fill="#000000">SPI packet. one of:</text>
<text text-anchor="middle" x="665" y="-304.8" font-family="Times,serif" font-size="14.00" fill="#000000">========================</text>
<text text-anchor="start" x="459" y="-289.8" font-family="Times,serif" font-size="14.00" fill="#000000">microcontroller_send_global_state_update()</text>
<text text-anchor="start" x="459" y="-274.8" font-family="Times,serif" font-size="14.00" fill="#000000">microcontroller_send_generator_update(generator_index)</text>
<text text-anchor="middle" x="665" y="-259.8" font-family="Times,serif" font-size="14.00" fill="#000000"> </text>
</g>
<!-- chan1 -->
<g id="node8" class="node">
<title>chan1</title>
<polygon fill="#bbbbff" stroke="#bbbbff" points="1360,-54 1196,-54 1196,-16 1360,-16 1360,-54"/>
<text text-anchor="middle" x="1278" y="-38.8" font-family="Times,serif" font-size="14.00" fill="#000000">Polytone channel #1</text>
<text text-anchor="middle" x="1278" y="-23.8" font-family="Times,serif" font-size="14.00" fill="#000000">(sound generator)</text>
</g>
<!-- fpga_input_handler&#45;&gt;chan1 -->
<g id="edge6" class="edge">
<title>fpga_input_handler&#45;&gt;chan1</title>
<path fill="none" stroke="#000000" d="M1043.016,-257.8832C1049.2848,-257.4642 1055.5089,-256.8538 1061.5,-256"/>
<path fill="none" stroke="#000000" d="M1061.5,-256C1102.6218,-250.1394 1051.7631,-100.4634 1080,-70 1106.5761,-41.3283 1147.7929,-31.0444 1185.7545,-28.5471"/>
<polygon fill="#000000" stroke="#000000" points="1186.0226,-32.0383 1195.8407,-28.0566 1185.6825,-25.0466 1186.0226,-32.0383"/>
<text text-anchor="middle" x="1119.5" y="-73.8" font-family="Times,serif" font-size="14.00" fill="#000000">note sound</text>
</g>
<!-- chan2 -->
<g id="node9" class="node">
<title>chan2</title>
<polygon fill="#bbbbff" stroke="#bbbbff" points="1360,-110 1196,-110 1196,-72 1360,-72 1360,-110"/>
<text text-anchor="middle" x="1278" y="-94.8" font-family="Times,serif" font-size="14.00" fill="#000000">Polytone channel #2</text>
<text text-anchor="middle" x="1278" y="-79.8" font-family="Times,serif" font-size="14.00" fill="#000000">(sound generator)</text>
</g>
<!-- fpga_input_handler&#45;&gt;chan2 -->
<g id="edge8" class="edge">
<title>fpga_input_handler&#45;&gt;chan2</title>
<path fill="none" stroke="#000000" d="M1061.5,-256C1090.0242,-250.9951 1059.9089,-147.8573 1080,-127 1107.0344,-98.9348 1148.0954,-88.491 1185.8295,-85.6413"/>
<polygon fill="#000000" stroke="#000000" points="1186.076,-89.1329 1195.8533,-85.0521 1185.6652,-82.145 1186.076,-89.1329"/>
<text text-anchor="middle" x="1119.5" y="-130.8" font-family="Times,serif" font-size="14.00" fill="#000000">note sound</text>
</g>
<!-- chan3 -->
<g id="node10" class="node">
<title>chan3</title>
<polygon fill="#bbbbff" stroke="#bbbbff" points="1360,-166 1196,-166 1196,-128 1360,-128 1360,-166"/>
<text text-anchor="middle" x="1278" y="-150.8" font-family="Times,serif" font-size="14.00" fill="#000000">Polytone channel #3</text>
<text text-anchor="middle" x="1278" y="-135.8" font-family="Times,serif" font-size="14.00" fill="#000000">(sound generator)</text>
</g>
<!-- fpga_input_handler&#45;&gt;chan3 -->
<g id="edge10" class="edge">
<title>fpga_input_handler&#45;&gt;chan3</title>
<path fill="none" stroke="#000000" d="M1061.5,-256C1094.7326,-249.3007 1055.2039,-205.1179 1080,-182 1108.0059,-155.8894 1148.3622,-145.7284 1185.344,-142.6428"/>
<polygon fill="#000000" stroke="#000000" points="1185.9278,-146.1117 1195.6722,-141.9527 1185.4611,-139.1272 1185.9278,-146.1117"/>
<text text-anchor="middle" x="1119.5" y="-185.8" font-family="Times,serif" font-size="14.00" fill="#000000">note sound</text>
</g>
<!-- chan4 -->
<g id="node11" class="node">
<title>chan4</title>
<polygon fill="#bbbbff" stroke="#bbbbff" points="1360,-222 1196,-222 1196,-184 1360,-184 1360,-222"/>
<text text-anchor="middle" x="1278" y="-206.8" font-family="Times,serif" font-size="14.00" fill="#000000">Polytone channel #4</text>
<text text-anchor="middle" x="1278" y="-191.8" font-family="Times,serif" font-size="14.00" fill="#000000">(sound generator)</text>
</g>
<!-- fpga_input_handler&#45;&gt;chan4 -->
<g id="edge12" class="edge">
<title>fpga_input_handler&#45;&gt;chan4</title>
<path fill="none" stroke="#000000" d="M1061.5,-256C1076.0855,-252.8804 1067.3333,-235.8756 1080,-228 1111.0655,-208.6849 1150.1843,-201.0493 1185.4299,-198.7448"/>
<polygon fill="#000000" stroke="#000000" points="1185.9367,-202.2234 1195.7428,-198.2121 1185.5755,-195.2327 1185.9367,-202.2234"/>
<text text-anchor="middle" x="1119.5" y="-231.8" font-family="Times,serif" font-size="14.00" fill="#000000">note sound</text>
</g>
<!-- chan5 -->
<g id="node12" class="node">
<title>chan5</title>
<polygon fill="#bbbbff" stroke="#bbbbff" points="1360,-278 1196,-278 1196,-240 1360,-240 1360,-278"/>
<text text-anchor="middle" x="1278" y="-262.8" font-family="Times,serif" font-size="14.00" fill="#000000">Polytone channel #5</text>
<text text-anchor="middle" x="1278" y="-247.8" font-family="Times,serif" font-size="14.00" fill="#000000">(sound generator)</text>
</g>
<!-- fpga_input_handler&#45;&gt;chan5 -->
<g id="edge14" class="edge">
<title>fpga_input_handler&#45;&gt;chan5</title>
<path fill="none" stroke="#000000" d="M1061.5,-256C1101.6856,-247.5561 1146.9968,-246.8647 1185.7422,-248.8471"/>
<polygon fill="#000000" stroke="#000000" points="1185.778,-252.3549 1195.9637,-249.439 1186.1828,-245.3667 1185.778,-252.3549"/>
<text text-anchor="middle" x="1119.5" y="-255.8" font-family="Times,serif" font-size="14.00" fill="#000000">note sound</text>
</g>
<!-- chan6 -->
<g id="node13" class="node">
<title>chan6</title>
<polygon fill="#bbbbff" stroke="#bbbbff" points="1360,-334 1196,-334 1196,-296 1360,-296 1360,-334"/>
<text text-anchor="middle" x="1278" y="-318.8" font-family="Times,serif" font-size="14.00" fill="#000000">Polytone channel #6</text>
<text text-anchor="middle" x="1278" y="-303.8" font-family="Times,serif" font-size="14.00" fill="#000000">(sound generator)</text>
</g>
<!-- fpga_input_handler&#45;&gt;chan6 -->
<g id="edge16" class="edge">
<title>fpga_input_handler&#45;&gt;chan6</title>
<path fill="none" stroke="#000000" d="M1061.5,-256C1071.8955,-254.004 1070.4684,-266.3959 1080,-271 1112.7554,-286.822 1151.3165,-297.0395 1185.6641,-303.5993"/>
<polygon fill="#000000" stroke="#000000" points="1185.2362,-307.079 1195.7029,-305.4368 1186.4966,-300.1934 1185.2362,-307.079"/>
<text text-anchor="middle" x="1119.5" y="-300.8" font-family="Times,serif" font-size="14.00" fill="#000000">note sound</text>
</g>
<!-- chan7 -->
<g id="node14" class="node">
<title>chan7</title>
<polygon fill="#bbbbff" stroke="#bbbbff" points="1360,-390 1196,-390 1196,-352 1360,-352 1360,-390"/>
<text text-anchor="middle" x="1278" y="-374.8" font-family="Times,serif" font-size="14.00" fill="#000000">Polytone channel #7</text>
<text text-anchor="middle" x="1278" y="-359.8" font-family="Times,serif" font-size="14.00" fill="#000000">(sound generator)</text>
</g>
<!-- fpga_input_handler&#45;&gt;chan7 -->
<g id="edge18" class="edge">
<title>fpga_input_handler&#45;&gt;chan7</title>
<path fill="none" stroke="#000000" d="M1061.5,-256C1088.9902,-251.2036 1059.9922,-296.5474 1080,-316 1108.1775,-343.3956 1148.7665,-357.3982 1185.8684,-364.4614"/>
<polygon fill="#000000" stroke="#000000" points="1185.2651,-367.9089 1195.72,-366.1933 1186.4771,-361.0146 1185.2651,-367.9089"/>
<text text-anchor="middle" x="1119.5" y="-360.8" font-family="Times,serif" font-size="14.00" fill="#000000">note sound</text>
</g>
<!-- chan8 -->
<g id="node15" class="node">
<title>chan8</title>
<polygon fill="#bbbbff" stroke="#bbbbff" points="1360,-446 1196,-446 1196,-408 1360,-408 1360,-446"/>
<text text-anchor="middle" x="1278" y="-430.8" font-family="Times,serif" font-size="14.00" fill="#000000">Polytone channel #8</text>
<text text-anchor="middle" x="1278" y="-415.8" font-family="Times,serif" font-size="14.00" fill="#000000">(sound generator)</text>
</g>
<!-- fpga_input_handler&#45;&gt;chan8 -->
<g id="edge20" class="edge">
<title>fpga_input_handler&#45;&gt;chan8</title>
<path fill="none" stroke="#000000" d="M1061.5,-256C1088.1769,-251.9556 1061.8898,-355.9992 1080,-376 1106.6829,-405.4685 1147.9131,-418.9142 1185.856,-424.7164"/>
<polygon fill="#000000" stroke="#000000" points="1185.5544,-428.2077 1195.9364,-426.0948 1186.5028,-421.2722 1185.5544,-428.2077"/>
<text text-anchor="middle" x="1119.5" y="-421.8" font-family="Times,serif" font-size="14.00" fill="#000000">note sound</text>
</g>
<!-- mux -->
<g id="node16" class="node">
<title>mux</title>
<polygon fill="#bbbbff" stroke="#bbbbff" points="1567,-274 1513,-274 1513,-238 1567,-238 1567,-274"/>
<text text-anchor="middle" x="1540" y="-252.3" font-family="Times,serif" font-size="14.00" fill="#000000">mux</text>
</g>
<!-- chan1&#45;&gt;mux -->
<g id="edge7" class="edge">
<title>chan1&#45;&gt;mux</title>
<path fill="none" stroke="#000000" d="M1360.1593,-28.0566C1400.7238,-29.3532 1447.049,-38.7662 1476,-70 1504.2369,-100.4634 1453.3782,-250.1394 1494.5,-256"/>
<path fill="none" stroke="#000000" d="M1494.5,-256C1497.1996,-256.3351 1499.9963,-256.5801 1502.815,-256.7531"/>
<polygon fill="#000000" stroke="#000000" points="1502.8731,-260.2569 1512.9856,-257.0969 1503.1096,-253.2609 1502.8731,-260.2569"/>
<text text-anchor="middle" x="1436.5" y="-73.8" font-family="Times,serif" font-size="14.00" fill="#000000">note sound</text>
</g>
<!-- chan2&#45;&gt;mux -->
<g id="edge9" class="edge">
<title>chan2&#45;&gt;mux</title>
<path fill="none" stroke="#000000" d="M1360.1467,-85.0521C1400.454,-86.7651 1446.5498,-96.4268 1476,-127 1496.0911,-147.8573 1465.9758,-250.9951 1494.5,-256"/>
<text text-anchor="middle" x="1436.5" y="-130.8" font-family="Times,serif" font-size="14.00" fill="#000000">note sound</text>
</g>
<!-- chan3&#45;&gt;mux -->
<g id="edge11" class="edge">
<title>chan3&#45;&gt;mux</title>
<path fill="none" stroke="#000000" d="M1360.3278,-141.9527C1399.9402,-143.9588 1445.361,-153.4346 1476,-182 1500.7961,-205.1179 1461.2674,-249.3007 1494.5,-256"/>
<text text-anchor="middle" x="1436.5" y="-185.8" font-family="Times,serif" font-size="14.00" fill="#000000">note sound</text>
</g>
<!-- chan4&#45;&gt;mux -->
<g id="edge13" class="edge">
<title>chan4&#45;&gt;mux</title>
<path fill="none" stroke="#000000" d="M1360.2572,-198.2121C1398.0142,-199.6556 1441.8679,-206.7782 1476,-228 1488.6667,-235.8756 1479.9145,-252.8804 1494.5,-256"/>
<text text-anchor="middle" x="1436.5" y="-231.8" font-family="Times,serif" font-size="14.00" fill="#000000">note sound</text>
</g>
<!-- chan5&#45;&gt;mux -->
<g id="edge15" class="edge">
<title>chan5&#45;&gt;mux</title>
<path fill="none" stroke="#000000" d="M1360.0363,-249.439C1400.8641,-246.803 1450.7234,-246.8016 1494.5,-256"/>
<text text-anchor="middle" x="1436.5" y="-255.8" font-family="Times,serif" font-size="14.00" fill="#000000">note sound</text>
</g>
<!-- chan6&#45;&gt;mux -->
<g id="edge17" class="edge">
<title>chan6&#45;&gt;mux</title>
<path fill="none" stroke="#000000" d="M1360.2971,-305.4368C1397.014,-299.0021 1440.0112,-288.3838 1476,-271 1485.5316,-266.3959 1484.1045,-254.004 1494.5,-256"/>
<text text-anchor="middle" x="1436.5" y="-300.8" font-family="Times,serif" font-size="14.00" fill="#000000">note sound</text>
</g>
<!-- chan7&#45;&gt;mux -->
<g id="edge19" class="edge">
<title>chan7&#45;&gt;mux</title>
<path fill="none" stroke="#000000" d="M1360.28,-366.1933C1399.8802,-359.7939 1445.3046,-345.8437 1476,-316 1496.0078,-296.5474 1467.0098,-251.2036 1494.5,-256"/>
<text text-anchor="middle" x="1436.5" y="-360.8" font-family="Times,serif" font-size="14.00" fill="#000000">note sound</text>
</g>
<!-- chan8&#45;&gt;mux -->
<g id="edge21" class="edge">
<title>chan8&#45;&gt;mux</title>
<path fill="none" stroke="#000000" d="M1360.0636,-426.0948C1400.602,-421.1893 1446.9326,-408.1018 1476,-376 1494.1102,-355.9992 1467.8231,-251.9556 1494.5,-256"/>
<text text-anchor="middle" x="1436.5" y="-421.8" font-family="Times,serif" font-size="14.00" fill="#000000">note sound</text>
</g>
<!-- mux&#45;&gt;jack -->
<g id="edge22" class="edge">
<title>mux&#45;&gt;jack</title>
<path fill="none" stroke="#000000" d="M1567.2299,-256C1601.9911,-256 1662.7685,-256 1705.7491,-256"/>
<polygon fill="#000000" stroke="#000000" points="1705.9931,-259.5001 1715.9931,-256 1705.993,-252.5001 1705.9931,-259.5001"/>
<text text-anchor="middle" x="1641.5" y="-259.8" font-family="Times,serif" font-size="14.00" fill="#000000">combined audio</text>
</g>
</g>
</svg>
