<?xml version="1.0" encoding="UTF-8" standalone="no"?>
<!DOCTYPE svg PUBLIC "-//W3C//DTD SVG 1.1//EN"
 "http://www.w3.org/Graphics/SVG/1.1/DTD/svg11.dtd">
<!-- Generated by graphviz version 2.40.1 (0)
 -->
<!-- Title: G Pages: 1 -->
<svg width="1156pt" height="477pt"
 viewBox="0.00 0.00 1156.00 477.00" xmlns="http://www.w3.org/2000/svg" xmlns:xlink="http://www.w3.org/1999/xlink">
<g id="graph0" class="graph" transform="scale(1 1) rotate(0) translate(4 473)">
<title>G</title>
<polygon fill="#ffffff" stroke="transparent" points="-4,4 -4,-473 1152,-473 1152,4 -4,4"/>
<g id="clust1" class="cluster">
<title>cluster_0</title>
<polygon fill="none" stroke="#ff0000" points="160,-197 160,-272 452,-272 452,-197 160,-197"/>
<text text-anchor="middle" x="306" y="-256.8" font-family="Times,serif" font-size="14.00" fill="#000000">Mikroprosessor</text>
</g>
<g id="clust2" class="cluster">
<title>cluster_1</title>
<polygon fill="none" stroke="#0000ff" points="542,-8 542,-461 929,-461 929,-8 542,-8"/>
<text text-anchor="middle" x="735.5" y="-445.8" font-family="Times,serif" font-size="14.00" fill="#000000">FPGA</text>
</g>
<!-- midi -->
<g id="node1" class="node">
<title>midi</title>
<polygon fill="#ffbbbb" stroke="#ffbbbb" points="107.5,-298 23.5,-298 23.5,-260 107.5,-260 107.5,-298"/>
<text text-anchor="middle" x="65.5" y="-282.8" font-family="Times,serif" font-size="14.00" fill="#000000">MIDI</text>
<text text-anchor="middle" x="65.5" y="-267.8" font-family="Times,serif" font-size="14.00" fill="#000000">inputport</text>
</g>
<!-- input_handler -->
<g id="node5" class="node">
<title>input_handler</title>
<polygon fill="#bbbbff" stroke="#bbbbff" points="284,-241 168,-241 168,-205 284,-205 284,-241"/>
<text text-anchor="middle" x="226" y="-219.3" font-family="Times,serif" font-size="14.00" fill="#000000">input_handler</text>
</g>
<!-- midi&#45;&gt;input_handler -->
<g id="edge3" class="edge">
<title>midi&#45;&gt;input_handler</title>
<path fill="none" stroke="#000000" d="M107.6695,-264.2867C125.1494,-258.1878 145.7672,-250.994 164.8542,-244.3344"/>
<polygon fill="#000000" stroke="#000000" points="166.0861,-247.6116 174.3748,-241.0125 163.78,-241.0023 166.0861,-247.6116"/>
</g>
<!-- btn -->
<g id="node2" class="node">
<title>btn</title>
<polygon fill="#ffbbbb" stroke="#ffbbbb" points="131,-242 0,-242 0,-204 131,-204 131,-242"/>
<text text-anchor="middle" x="65.5" y="-226.8" font-family="Times,serif" font-size="14.00" fill="#000000">Knapper x12</text>
<text text-anchor="middle" x="65.5" y="-211.8" font-family="Times,serif" font-size="14.00" fill="#000000">(force sensitive)</text>
</g>
<!-- btn&#45;&gt;input_handler -->
<g id="edge4" class="edge">
<title>btn&#45;&gt;input_handler</title>
<path fill="none" stroke="#000000" d="M131.2446,-223C139.9558,-223 148.9028,-223 157.6566,-223"/>
<polygon fill="#000000" stroke="#000000" points="157.8183,-226.5001 167.8182,-223 157.8182,-219.5001 157.8183,-226.5001"/>
</g>
<!-- vol -->
<g id="node3" class="node">
<title>vol</title>
<polygon fill="#ffbbbb" stroke="#ffbbbb" points="119.5,-186 11.5,-186 11.5,-150 119.5,-150 119.5,-186"/>
<text text-anchor="middle" x="65.5" y="-164.3" font-family="Times,serif" font-size="14.00" fill="#000000">Volume knob</text>
</g>
<!-- vol&#45;&gt;input_handler -->
<g id="edge2" class="edge">
<title>vol&#45;&gt;input_handler</title>
<path fill="none" stroke="#000000" d="M118.0537,-186.0091C132.6028,-190.9947 148.5363,-196.4548 163.5879,-201.6127"/>
<polygon fill="#000000" stroke="#000000" points="162.7336,-205.0197 173.3282,-204.9505 165.0029,-198.3977 162.7336,-205.0197"/>
</g>
<!-- jack -->
<g id="node4" class="node">
<title>jack</title>
<polygon fill="#ffbbbb" stroke="#ffbbbb" points="1148,-241 1070,-241 1070,-205 1148,-205 1148,-241"/>
<text text-anchor="middle" x="1109" y="-219.3" font-family="Times,serif" font-size="14.00" fill="#000000">MiniJack</text>
</g>
<!-- delegator -->
<g id="node6" class="node">
<title>delegator</title>
<polygon fill="#bbbbff" stroke="#bbbbff" points="444,-241 359,-241 359,-205 444,-205 444,-241"/>
<text text-anchor="middle" x="401.5" y="-219.3" font-family="Times,serif" font-size="14.00" fill="#000000">delegator</text>
</g>
<!-- input_handler&#45;&gt;delegator -->
<g id="edge1" class="edge">
<title>input_handler&#45;&gt;delegator</title>
<path fill="none" stroke="#000000" d="M284.439,-223C305.2525,-223 328.5516,-223 348.8503,-223"/>
<polygon fill="#000000" stroke="#000000" points="348.8554,-226.5001 358.8553,-223 348.8553,-219.5001 348.8554,-226.5001"/>
</g>
<!-- chan1 -->
<g id="node7" class="node">
<title>chan1</title>
<polygon fill="#bbbbff" stroke="#bbbbff" points="714,-430 550,-430 550,-394 714,-394 714,-430"/>
<text text-anchor="middle" x="632" y="-408.3" font-family="Times,serif" font-size="14.00" fill="#000000">Polytone channel #1</text>
</g>
<!-- delegator&#45;&gt;chan1 -->
<g id="edge13" class="edge">
<title>delegator&#45;&gt;chan1</title>
<path fill="none" stroke="#000000" d="M405.3814,-241.0451C412.2143,-268.7112 428.9126,-321.6863 462,-353 483.4136,-373.2657 512.142,-386.6078 539.882,-395.3768"/>
<polygon fill="#000000" stroke="#000000" points="539.0557,-398.7828 549.6391,-398.2917 541.0594,-392.0757 539.0557,-398.7828"/>
<text text-anchor="middle" x="497" y="-394.8" font-family="Times,serif" font-size="14.00" fill="#000000">SPI event</text>
</g>
<!-- chan2 -->
<g id="node8" class="node">
<title>chan2</title>
<polygon fill="#bbbbff" stroke="#bbbbff" points="714,-376 550,-376 550,-340 714,-340 714,-376"/>
<text text-anchor="middle" x="632" y="-354.3" font-family="Times,serif" font-size="14.00" fill="#000000">Polytone channel #2</text>
</g>
<!-- delegator&#45;&gt;chan2 -->
<g id="edge14" class="edge">
<title>delegator&#45;&gt;chan2</title>
<path fill="none" stroke="#000000" d="M412.1137,-241.2176C422.813,-258.194 440.7544,-283.1987 462,-299 484.8841,-316.02 513.0649,-328.4039 539.8548,-337.2939"/>
<polygon fill="#000000" stroke="#000000" points="539.0589,-340.7136 549.6495,-340.4133 541.1831,-334.0437 539.0589,-340.7136"/>
<text text-anchor="middle" x="497" y="-337.8" font-family="Times,serif" font-size="14.00" fill="#000000">SPI event</text>
</g>
<!-- chan3 -->
<g id="node9" class="node">
<title>chan3</title>
<polygon fill="#bbbbff" stroke="#bbbbff" points="714,-322 550,-322 550,-286 714,-286 714,-322"/>
<text text-anchor="middle" x="632" y="-300.3" font-family="Times,serif" font-size="14.00" fill="#000000">Polytone channel #3</text>
</g>
<!-- delegator&#45;&gt;chan3 -->
<g id="edge15" class="edge">
<title>delegator&#45;&gt;chan3</title>
<path fill="none" stroke="#000000" d="M430.3252,-241.0781C440.1245,-246.7104 451.3058,-252.5933 462,-257 487.1045,-267.3447 515.2136,-276.162 541.2341,-283.2688"/>
<polygon fill="#000000" stroke="#000000" points="540.5288,-286.7032 551.0938,-285.9084 542.3391,-279.9413 540.5288,-286.7032"/>
<text text-anchor="middle" x="497" y="-283.8" font-family="Times,serif" font-size="14.00" fill="#000000">SPI event</text>
</g>
<!-- chan4 -->
<g id="node10" class="node">
<title>chan4</title>
<polygon fill="#bbbbff" stroke="#bbbbff" points="714,-268 550,-268 550,-232 714,-232 714,-268"/>
<text text-anchor="middle" x="632" y="-246.3" font-family="Times,serif" font-size="14.00" fill="#000000">Polytone channel #4</text>
</g>
<!-- delegator&#45;&gt;chan4 -->
<g id="edge16" class="edge">
<title>delegator&#45;&gt;chan4</title>
<path fill="none" stroke="#000000" d="M444.0459,-227.9837C470.806,-231.1183 506.4051,-235.2882 539.4201,-239.1555"/>
<polygon fill="#000000" stroke="#000000" points="539.2312,-242.6572 549.5706,-240.3445 540.0457,-235.7048 539.2312,-242.6572"/>
<text text-anchor="middle" x="497" y="-241.8" font-family="Times,serif" font-size="14.00" fill="#000000">SPI event</text>
</g>
<!-- chan5 -->
<g id="node11" class="node">
<title>chan5</title>
<polygon fill="#bbbbff" stroke="#bbbbff" points="714,-214 550,-214 550,-178 714,-178 714,-214"/>
<text text-anchor="middle" x="632" y="-192.3" font-family="Times,serif" font-size="14.00" fill="#000000">Polytone channel #5</text>
</g>
<!-- delegator&#45;&gt;chan5 -->
<g id="edge17" class="edge">
<title>delegator&#45;&gt;chan5</title>
<path fill="none" stroke="#000000" d="M444.0397,-213.9641C450.0521,-212.8619 456.1697,-211.8329 462,-211 487.0056,-207.4275 514.2101,-204.5709 539.3756,-202.3496"/>
<polygon fill="#000000" stroke="#000000" points="539.9863,-205.8101 549.6502,-201.4674 539.3874,-198.8358 539.9863,-205.8101"/>
<text text-anchor="middle" x="497" y="-214.8" font-family="Times,serif" font-size="14.00" fill="#000000">SPI event</text>
</g>
<!-- chan6 -->
<g id="node12" class="node">
<title>chan6</title>
<polygon fill="#bbbbff" stroke="#bbbbff" points="714,-160 550,-160 550,-124 714,-124 714,-160"/>
<text text-anchor="middle" x="632" y="-138.3" font-family="Times,serif" font-size="14.00" fill="#000000">Polytone channel #6</text>
</g>
<!-- delegator&#45;&gt;chan6 -->
<g id="edge18" class="edge">
<title>delegator&#45;&gt;chan6</title>
<path fill="none" stroke="#000000" d="M425.4832,-204.9278C436.1983,-197.5582 449.264,-189.4961 462,-184 486.5035,-173.4257 514.1919,-165.1648 539.9997,-158.8741"/>
<polygon fill="#000000" stroke="#000000" points="540.8622,-162.2667 549.7881,-156.5589 539.2509,-155.4547 540.8622,-162.2667"/>
<text text-anchor="middle" x="497" y="-187.8" font-family="Times,serif" font-size="14.00" fill="#000000">SPI event</text>
</g>
<!-- chan7 -->
<g id="node13" class="node">
<title>chan7</title>
<polygon fill="#bbbbff" stroke="#bbbbff" points="714,-106 550,-106 550,-70 714,-70 714,-106"/>
<text text-anchor="middle" x="632" y="-84.3" font-family="Times,serif" font-size="14.00" fill="#000000">Polytone channel #7</text>
</g>
<!-- delegator&#45;&gt;chan7 -->
<g id="edge19" class="edge">
<title>delegator&#45;&gt;chan7</title>
<path fill="none" stroke="#000000" d="M410.8595,-204.6685C421.0915,-186.3494 439.1226,-158.5888 462,-142 484.8861,-125.4049 513.0674,-113.7786 539.8573,-105.6877"/>
<polygon fill="#000000" stroke="#000000" points="541.0127,-108.9972 549.6519,-102.8641 539.0737,-102.2711 541.0127,-108.9972"/>
<text text-anchor="middle" x="497" y="-145.8" font-family="Times,serif" font-size="14.00" fill="#000000">SPI event</text>
</g>
<!-- chan8 -->
<g id="node14" class="node">
<title>chan8</title>
<polygon fill="#bbbbff" stroke="#bbbbff" points="714,-52 550,-52 550,-16 714,-16 714,-52"/>
<text text-anchor="middle" x="632" y="-30.3" font-family="Times,serif" font-size="14.00" fill="#000000">Polytone channel #8</text>
</g>
<!-- delegator&#45;&gt;chan8 -->
<g id="edge20" class="edge">
<title>delegator&#45;&gt;chan8</title>
<path fill="none" stroke="#000000" d="M404.9473,-204.6925C411.2665,-176.0712 427.3704,-120.7273 462,-89 483.585,-69.224 512.3584,-56.5542 540.087,-48.4388"/>
<polygon fill="#000000" stroke="#000000" points="541.1257,-51.7831 549.8378,-45.7541 539.2674,-45.0343 541.1257,-51.7831"/>
<text text-anchor="middle" x="497" y="-92.8" font-family="Times,serif" font-size="14.00" fill="#000000">SPI event</text>
</g>
<!-- mux -->
<g id="node15" class="node">
<title>mux</title>
<polygon fill="#bbbbff" stroke="#bbbbff" points="921,-241 867,-241 867,-205 921,-205 921,-241"/>
<text text-anchor="middle" x="894" y="-219.3" font-family="Times,serif" font-size="14.00" fill="#000000">mux</text>
</g>
<!-- chan1&#45;&gt;mux -->
<g id="edge5" class="edge">
<title>chan1&#45;&gt;mux</title>
<path fill="none" stroke="#000000" d="M714.3714,-402.358C753.0488,-394.2638 797.6443,-379.3772 830,-352 861.1061,-325.6801 878.5456,-280.5858 887.1121,-251.2911"/>
<polygon fill="#000000" stroke="#000000" points="890.5892,-251.848 889.8756,-241.2772 883.8414,-249.9858 890.5892,-251.848"/>
<text text-anchor="middle" x="790.5" y="-395.8" font-family="Times,serif" font-size="14.00" fill="#000000">note sound</text>
</g>
<!-- chan2&#45;&gt;mux -->
<g id="edge6" class="edge">
<title>chan2&#45;&gt;mux</title>
<path fill="none" stroke="#000000" d="M714.084,-344.142C751.5882,-335.1424 795.2826,-320.7111 830,-298 849.0963,-285.5078 865.6594,-265.6875 877.1491,-249.5591"/>
<polygon fill="#000000" stroke="#000000" points="880.2177,-251.2733 882.9941,-241.0487 874.4476,-247.3103 880.2177,-251.2733"/>
<text text-anchor="middle" x="790.5" y="-336.8" font-family="Times,serif" font-size="14.00" fill="#000000">note sound</text>
</g>
<!-- chan3&#45;&gt;mux -->
<g id="edge7" class="edge">
<title>chan3&#45;&gt;mux</title>
<path fill="none" stroke="#000000" d="M714.2327,-288.6629C750.3437,-280.7601 792.8819,-269.8424 830,-256 839.3019,-252.5311 848.9915,-248.0387 857.9331,-243.4917"/>
<polygon fill="#000000" stroke="#000000" points="859.7009,-246.5168 866.9328,-238.7741 856.4509,-240.317 859.7009,-246.5168"/>
<text text-anchor="middle" x="790.5" y="-282.8" font-family="Times,serif" font-size="14.00" fill="#000000">note sound</text>
</g>
<!-- chan4&#45;&gt;mux -->
<g id="edge8" class="edge">
<title>chan4&#45;&gt;mux</title>
<path fill="none" stroke="#000000" d="M714.1796,-241.5311C761.8486,-236.6187 819.582,-230.669 856.5444,-226.8599"/>
<polygon fill="#000000" stroke="#000000" points="857.2649,-230.3043 866.8534,-225.7975 856.5473,-223.3412 857.2649,-230.3043"/>
<text text-anchor="middle" x="790.5" y="-240.8" font-family="Times,serif" font-size="14.00" fill="#000000">note sound</text>
</g>
<!-- chan5&#45;&gt;mux -->
<g id="edge9" class="edge">
<title>chan5&#45;&gt;mux</title>
<path fill="none" stroke="#000000" d="M714.129,-199.4134C749.8407,-201.5147 792.0991,-204.833 830,-210 838.7205,-211.1889 848.0369,-212.852 856.786,-214.5925"/>
<polygon fill="#000000" stroke="#000000" points="856.2249,-218.0505 866.7264,-216.6475 857.6421,-211.1954 856.2249,-218.0505"/>
<text text-anchor="middle" x="790.5" y="-213.8" font-family="Times,serif" font-size="14.00" fill="#000000">note sound</text>
</g>
<!-- chan6&#45;&gt;mux -->
<g id="edge10" class="edge">
<title>chan6&#45;&gt;mux</title>
<path fill="none" stroke="#000000" d="M714.4205,-151.6636C750.762,-157.6826 793.4282,-167.1996 830,-182 841.0689,-186.4795 852.3093,-192.9152 862.2169,-199.3643"/>
<polygon fill="#000000" stroke="#000000" points="860.2965,-202.2908 870.5427,-204.9864 864.2139,-196.4895 860.2965,-202.2908"/>
<text text-anchor="middle" x="790.5" y="-185.8" font-family="Times,serif" font-size="14.00" fill="#000000">note sound</text>
</g>
<!-- chan7&#45;&gt;mux -->
<g id="edge11" class="edge">
<title>chan7&#45;&gt;mux</title>
<path fill="none" stroke="#000000" d="M714.0501,-97.208C751.7617,-104.409 795.6371,-117.2212 830,-140 851.278,-154.105 868.4558,-177.6783 879.6367,-196.1057"/>
<polygon fill="#000000" stroke="#000000" points="876.7224,-198.0563 884.7811,-204.9345 882.7706,-194.5321 876.7224,-198.0563"/>
<text text-anchor="middle" x="790.5" y="-143.8" font-family="Times,serif" font-size="14.00" fill="#000000">note sound</text>
</g>
<!-- chan8&#45;&gt;mux -->
<g id="edge12" class="edge">
<title>chan8&#45;&gt;mux</title>
<path fill="none" stroke="#000000" d="M714.0131,-39.5392C752.8357,-45.8757 797.6609,-59.0201 830,-86 863.6859,-114.1035 880.6644,-163.8938 888.3939,-195.0826"/>
<polygon fill="#000000" stroke="#000000" points="884.9997,-195.9396 890.6714,-204.8884 891.8182,-194.3558 884.9997,-195.9396"/>
<text text-anchor="middle" x="790.5" y="-89.8" font-family="Times,serif" font-size="14.00" fill="#000000">note sound</text>
</g>
<!-- mux&#45;&gt;jack -->
<g id="edge21" class="edge">
<title>mux&#45;&gt;jack</title>
<path fill="none" stroke="#000000" d="M921.2299,-223C955.9911,-223 1016.7685,-223 1059.7491,-223"/>
<polygon fill="#000000" stroke="#000000" points="1059.9931,-226.5001 1069.9931,-223 1059.993,-219.5001 1059.9931,-226.5001"/>
<text text-anchor="middle" x="995.5" y="-226.8" font-family="Times,serif" font-size="14.00" fill="#000000">combined audio</text>
</g>
</g>
</svg>
