<?xml version="1.0" encoding="UTF-8" standalone="no"?>
<!DOCTYPE svg PUBLIC "-//W3C//DTD SVG 1.1//EN"
 "http://www.w3.org/Graphics/SVG/1.1/DTD/svg11.dtd">
<!-- Generated by graphviz version 2.40.1 (0)
 -->
<!-- Title: G Pages: 1 -->
<svg width="1701pt" height="493pt"
 viewBox="0.00 0.00 1701.00 493.00" xmlns="http://www.w3.org/2000/svg" xmlns:xlink="http://www.w3.org/1999/xlink">
<g id="graph0" class="graph" transform="scale(1 1) rotate(0) translate(4 489)">
<title>G</title>
<polygon fill="#ffffff" stroke="transparent" points="-4,4 -4,-489 1697,-489 1697,4 -4,4"/>
<g id="clust1" class="cluster">
<title>cluster_0</title>
<polygon fill="none" stroke="#ff0000" points="160,-230 160,-305 449,-305 449,-230 160,-230"/>
<text text-anchor="middle" x="304.5" y="-289.8" font-family="Times,serif" font-size="14.00" fill="#000000">Mikroprosessor</text>
</g>
<g id="clust2" class="cluster">
<title>cluster_1</title>
<polygon fill="none" stroke="#0000ff" points="780,-8 780,-477 1474,-477 1474,-8 780,-8"/>
<text text-anchor="middle" x="1127" y="-461.8" font-family="Times,serif" font-size="14.00" fill="#000000">FPGA</text>
</g>
<!-- midi -->
<g id="node1" class="node">
<title>midi</title>
<polygon fill="#ffbbbb" stroke="#ffbbbb" points="107.5,-331 23.5,-331 23.5,-293 107.5,-293 107.5,-331"/>
<text text-anchor="middle" x="65.5" y="-315.8" font-family="Times,serif" font-size="14.00" fill="#000000">MIDI</text>
<text text-anchor="middle" x="65.5" y="-300.8" font-family="Times,serif" font-size="14.00" fill="#000000">inputport</text>
</g>
<!-- micro_input_handler -->
<g id="node5" class="node">
<title>micro_input_handler</title>
<polygon fill="#bbbbff" stroke="#bbbbff" points="281,-274 168,-274 168,-238 281,-238 281,-274"/>
<text text-anchor="middle" x="224.5" y="-252.3" font-family="Times,serif" font-size="14.00" fill="#000000">input handler</text>
</g>
<!-- midi&#45;&gt;micro_input_handler -->
<g id="edge3" class="edge">
<title>midi&#45;&gt;micro_input_handler</title>
<path fill="none" stroke="#000000" d="M107.7759,-298.2406C115.9916,-294.4161 124.1636,-289.7052 131,-284 142.4515,-274.4433 134.5846,-256.0296 149.5,-256"/>
</g>
<!-- btn -->
<g id="node2" class="node">
<title>btn</title>
<polygon fill="#ffbbbb" stroke="#ffbbbb" points="131,-275 0,-275 0,-237 131,-237 131,-275"/>
<text text-anchor="middle" x="65.5" y="-259.8" font-family="Times,serif" font-size="14.00" fill="#000000">Knapper x12</text>
<text text-anchor="middle" x="65.5" y="-244.8" font-family="Times,serif" font-size="14.00" fill="#000000">(force sensitive)</text>
</g>
<!-- btn&#45;&gt;micro_input_handler -->
<g id="edge4" class="edge">
<title>btn&#45;&gt;micro_input_handler</title>
<path fill="none" stroke="#000000" d="M131.0744,-256.0251C137.3023,-256.0199 143.5208,-256.0119 149.5,-256"/>
</g>
<!-- vol -->
<g id="node3" class="node">
<title>vol</title>
<polygon fill="#ffbbbb" stroke="#ffbbbb" points="119.5,-219 11.5,-219 11.5,-183 119.5,-183 119.5,-219"/>
<text text-anchor="middle" x="65.5" y="-197.3" font-family="Times,serif" font-size="14.00" fill="#000000">Volume knob</text>
</g>
<!-- vol&#45;&gt;micro_input_handler -->
<g id="edge2" class="edge">
<title>vol&#45;&gt;micro_input_handler</title>
<path fill="none" stroke="#000000" d="M117.9299,-219.1734C122.5702,-221.7826 127.0124,-224.7159 131,-228 142.5133,-237.4822 134.5846,-256.0296 149.5,-256"/>
<path fill="none" stroke="#000000" d="M149.5,-256C152.214,-255.9946 154.9833,-255.9901 157.7808,-255.9864"/>
<polygon fill="#000000" stroke="#000000" points="157.9894,-259.4863 167.9858,-255.976 157.9823,-252.4863 157.9894,-259.4863"/>
</g>
<!-- jack -->
<g id="node4" class="node">
<title>jack</title>
<polygon fill="#ffbbbb" stroke="#ffbbbb" points="1693,-274 1615,-274 1615,-238 1693,-238 1693,-274"/>
<text text-anchor="middle" x="1654" y="-252.3" font-family="Times,serif" font-size="14.00" fill="#000000">MiniJack</text>
</g>
<!-- delegator -->
<g id="node6" class="node">
<title>delegator</title>
<polygon fill="#bbbbff" stroke="#bbbbff" points="441,-274 356,-274 356,-238 441,-238 441,-274"/>
<text text-anchor="middle" x="398.5" y="-252.3" font-family="Times,serif" font-size="14.00" fill="#000000">delegator</text>
</g>
<!-- micro_input_handler&#45;&gt;delegator -->
<g id="edge1" class="edge">
<title>micro_input_handler&#45;&gt;delegator</title>
<path fill="none" stroke="#000000" d="M281.4741,-256C302.1624,-256 325.4325,-256 345.7409,-256"/>
<polygon fill="#000000" stroke="#000000" points="345.7538,-259.5001 355.7538,-256 345.7537,-252.5001 345.7538,-259.5001"/>
</g>
<!-- fpga_input_handler -->
<g id="node7" class="node">
<title>fpga_input_handler</title>
<polygon fill="#bbbbff" stroke="#bbbbff" points="942,-274 788,-274 788,-238 942,-238 942,-274"/>
<text text-anchor="middle" x="865" y="-252.3" font-family="Times,serif" font-size="14.00" fill="#000000">fpga_input_handler</text>
</g>
<!-- delegator&#45;&gt;fpga_input_handler -->
<g id="edge5" class="edge">
<title>delegator&#45;&gt;fpga_input_handler</title>
<path fill="none" stroke="#000000" d="M441.1354,-256C517.1361,-256 677.4318,-256 777.6601,-256"/>
<polygon fill="#000000" stroke="#000000" points="777.7683,-259.5001 787.7682,-256 777.7682,-252.5001 777.7683,-259.5001"/>
<text text-anchor="middle" x="614.5" y="-319.8" font-family="Times,serif" font-size="14.00" fill="#000000">SPI packet. one of:</text>
<text text-anchor="middle" x="614.5" y="-304.8" font-family="Times,serif" font-size="14.00" fill="#000000">========================</text>
<text text-anchor="start" x="459" y="-289.8" font-family="Times,serif" font-size="14.00" fill="#000000">microcontroller_send_global_state_update()</text>
<text text-anchor="start" x="459" y="-274.8" font-family="Times,serif" font-size="14.00" fill="#000000">microcontroller_send_generator_update()</text>
<text text-anchor="middle" x="614.5" y="-259.8" font-family="Times,serif" font-size="14.00" fill="#000000"> </text>
</g>
<!-- chan1 -->
<g id="node8" class="node">
<title>chan1</title>
<polygon fill="#bbbbff" stroke="#bbbbff" points="1259,-54 1095,-54 1095,-16 1259,-16 1259,-54"/>
<text text-anchor="middle" x="1177" y="-38.8" font-family="Times,serif" font-size="14.00" fill="#000000">Polytone channel #1</text>
<text text-anchor="middle" x="1177" y="-23.8" font-family="Times,serif" font-size="14.00" fill="#000000">(sound generator)</text>
</g>
<!-- fpga_input_handler&#45;&gt;chan1 -->
<g id="edge6" class="edge">
<title>fpga_input_handler&#45;&gt;chan1</title>
<path fill="none" stroke="#000000" d="M942.016,-257.8832C948.2848,-257.4642 954.5089,-256.8538 960.5,-256"/>
<path fill="none" stroke="#000000" d="M960.5,-256C1001.6218,-250.1394 950.7631,-100.4634 979,-70 1005.5761,-41.3283 1046.7929,-31.0444 1084.7545,-28.5471"/>
<polygon fill="#000000" stroke="#000000" points="1085.0226,-32.0383 1094.8407,-28.0566 1084.6825,-25.0466 1085.0226,-32.0383"/>
<text text-anchor="middle" x="1018.5" y="-73.8" font-family="Times,serif" font-size="14.00" fill="#000000">note sound</text>
</g>
<!-- chan2 -->
<g id="node9" class="node">
<title>chan2</title>
<polygon fill="#bbbbff" stroke="#bbbbff" points="1259,-110 1095,-110 1095,-72 1259,-72 1259,-110"/>
<text text-anchor="middle" x="1177" y="-94.8" font-family="Times,serif" font-size="14.00" fill="#000000">Polytone channel #2</text>
<text text-anchor="middle" x="1177" y="-79.8" font-family="Times,serif" font-size="14.00" fill="#000000">(sound generator)</text>
</g>
<!-- fpga_input_handler&#45;&gt;chan2 -->
<g id="edge8" class="edge">
<title>fpga_input_handler&#45;&gt;chan2</title>
<path fill="none" stroke="#000000" d="M960.5,-256C989.0242,-250.9951 958.9089,-147.8573 979,-127 1006.0344,-98.9348 1047.0954,-88.491 1084.8295,-85.6413"/>
<polygon fill="#000000" stroke="#000000" points="1085.076,-89.1329 1094.8533,-85.0521 1084.6652,-82.145 1085.076,-89.1329"/>
<text text-anchor="middle" x="1018.5" y="-130.8" font-family="Times,serif" font-size="14.00" fill="#000000">note sound</text>
</g>
<!-- chan3 -->
<g id="node10" class="node">
<title>chan3</title>
<polygon fill="#bbbbff" stroke="#bbbbff" points="1259,-166 1095,-166 1095,-128 1259,-128 1259,-166"/>
<text text-anchor="middle" x="1177" y="-150.8" font-family="Times,serif" font-size="14.00" fill="#000000">Polytone channel #3</text>
<text text-anchor="middle" x="1177" y="-135.8" font-family="Times,serif" font-size="14.00" fill="#000000">(sound generator)</text>
</g>
<!-- fpga_input_handler&#45;&gt;chan3 -->
<g id="edge10" class="edge">
<title>fpga_input_handler&#45;&gt;chan3</title>
<path fill="none" stroke="#000000" d="M960.5,-256C993.7326,-249.3007 954.2039,-205.1179 979,-182 1007.0059,-155.8894 1047.3622,-145.7284 1084.344,-142.6428"/>
<polygon fill="#000000" stroke="#000000" points="1084.9278,-146.1117 1094.6722,-141.9527 1084.4611,-139.1272 1084.9278,-146.1117"/>
<text text-anchor="middle" x="1018.5" y="-185.8" font-family="Times,serif" font-size="14.00" fill="#000000">note sound</text>
</g>
<!-- chan4 -->
<g id="node11" class="node">
<title>chan4</title>
<polygon fill="#bbbbff" stroke="#bbbbff" points="1259,-222 1095,-222 1095,-184 1259,-184 1259,-222"/>
<text text-anchor="middle" x="1177" y="-206.8" font-family="Times,serif" font-size="14.00" fill="#000000">Polytone channel #4</text>
<text text-anchor="middle" x="1177" y="-191.8" font-family="Times,serif" font-size="14.00" fill="#000000">(sound generator)</text>
</g>
<!-- fpga_input_handler&#45;&gt;chan4 -->
<g id="edge12" class="edge">
<title>fpga_input_handler&#45;&gt;chan4</title>
<path fill="none" stroke="#000000" d="M960.5,-256C975.0855,-252.8804 966.3333,-235.8756 979,-228 1010.0655,-208.6849 1049.1843,-201.0493 1084.4299,-198.7448"/>
<polygon fill="#000000" stroke="#000000" points="1084.9367,-202.2234 1094.7428,-198.2121 1084.5755,-195.2327 1084.9367,-202.2234"/>
<text text-anchor="middle" x="1018.5" y="-231.8" font-family="Times,serif" font-size="14.00" fill="#000000">note sound</text>
</g>
<!-- chan5 -->
<g id="node12" class="node">
<title>chan5</title>
<polygon fill="#bbbbff" stroke="#bbbbff" points="1259,-278 1095,-278 1095,-240 1259,-240 1259,-278"/>
<text text-anchor="middle" x="1177" y="-262.8" font-family="Times,serif" font-size="14.00" fill="#000000">Polytone channel #5</text>
<text text-anchor="middle" x="1177" y="-247.8" font-family="Times,serif" font-size="14.00" fill="#000000">(sound generator)</text>
</g>
<!-- fpga_input_handler&#45;&gt;chan5 -->
<g id="edge14" class="edge">
<title>fpga_input_handler&#45;&gt;chan5</title>
<path fill="none" stroke="#000000" d="M960.5,-256C1000.6856,-247.5561 1045.9968,-246.8647 1084.7422,-248.8471"/>
<polygon fill="#000000" stroke="#000000" points="1084.778,-252.3549 1094.9637,-249.439 1085.1828,-245.3667 1084.778,-252.3549"/>
<text text-anchor="middle" x="1018.5" y="-255.8" font-family="Times,serif" font-size="14.00" fill="#000000">note sound</text>
</g>
<!-- chan6 -->
<g id="node13" class="node">
<title>chan6</title>
<polygon fill="#bbbbff" stroke="#bbbbff" points="1259,-334 1095,-334 1095,-296 1259,-296 1259,-334"/>
<text text-anchor="middle" x="1177" y="-318.8" font-family="Times,serif" font-size="14.00" fill="#000000">Polytone channel #6</text>
<text text-anchor="middle" x="1177" y="-303.8" font-family="Times,serif" font-size="14.00" fill="#000000">(sound generator)</text>
</g>
<!-- fpga_input_handler&#45;&gt;chan6 -->
<g id="edge16" class="edge">
<title>fpga_input_handler&#45;&gt;chan6</title>
<path fill="none" stroke="#000000" d="M960.5,-256C970.8955,-254.004 969.4684,-266.3959 979,-271 1011.7554,-286.822 1050.3165,-297.0395 1084.6641,-303.5993"/>
<polygon fill="#000000" stroke="#000000" points="1084.2362,-307.079 1094.7029,-305.4368 1085.4966,-300.1934 1084.2362,-307.079"/>
<text text-anchor="middle" x="1018.5" y="-300.8" font-family="Times,serif" font-size="14.00" fill="#000000">note sound</text>
</g>
<!-- chan7 -->
<g id="node14" class="node">
<title>chan7</title>
<polygon fill="#bbbbff" stroke="#bbbbff" points="1259,-390 1095,-390 1095,-352 1259,-352 1259,-390"/>
<text text-anchor="middle" x="1177" y="-374.8" font-family="Times,serif" font-size="14.00" fill="#000000">Polytone channel #7</text>
<text text-anchor="middle" x="1177" y="-359.8" font-family="Times,serif" font-size="14.00" fill="#000000">(sound generator)</text>
</g>
<!-- fpga_input_handler&#45;&gt;chan7 -->
<g id="edge18" class="edge">
<title>fpga_input_handler&#45;&gt;chan7</title>
<path fill="none" stroke="#000000" d="M960.5,-256C987.9902,-251.2036 958.9922,-296.5474 979,-316 1007.1775,-343.3956 1047.7665,-357.3982 1084.8684,-364.4614"/>
<polygon fill="#000000" stroke="#000000" points="1084.2651,-367.9089 1094.72,-366.1933 1085.4771,-361.0146 1084.2651,-367.9089"/>
<text text-anchor="middle" x="1018.5" y="-360.8" font-family="Times,serif" font-size="14.00" fill="#000000">note sound</text>
</g>
<!-- chan8 -->
<g id="node15" class="node">
<title>chan8</title>
<polygon fill="#bbbbff" stroke="#bbbbff" points="1259,-446 1095,-446 1095,-408 1259,-408 1259,-446"/>
<text text-anchor="middle" x="1177" y="-430.8" font-family="Times,serif" font-size="14.00" fill="#000000">Polytone channel #8</text>
<text text-anchor="middle" x="1177" y="-415.8" font-family="Times,serif" font-size="14.00" fill="#000000">(sound generator)</text>
</g>
<!-- fpga_input_handler&#45;&gt;chan8 -->
<g id="edge20" class="edge">
<title>fpga_input_handler&#45;&gt;chan8</title>
<path fill="none" stroke="#000000" d="M960.5,-256C987.1769,-251.9556 960.8898,-355.9992 979,-376 1005.6829,-405.4685 1046.9131,-418.9142 1084.856,-424.7164"/>
<polygon fill="#000000" stroke="#000000" points="1084.5544,-428.2077 1094.9364,-426.0948 1085.5028,-421.2722 1084.5544,-428.2077"/>
<text text-anchor="middle" x="1018.5" y="-421.8" font-family="Times,serif" font-size="14.00" fill="#000000">note sound</text>
</g>
<!-- mux -->
<g id="node16" class="node">
<title>mux</title>
<polygon fill="#bbbbff" stroke="#bbbbff" points="1466,-274 1412,-274 1412,-238 1466,-238 1466,-274"/>
<text text-anchor="middle" x="1439" y="-252.3" font-family="Times,serif" font-size="14.00" fill="#000000">mux</text>
</g>
<!-- chan1&#45;&gt;mux -->
<g id="edge7" class="edge">
<title>chan1&#45;&gt;mux</title>
<path fill="none" stroke="#000000" d="M1259.1593,-28.0566C1299.7238,-29.3532 1346.049,-38.7662 1375,-70 1403.2369,-100.4634 1352.3782,-250.1394 1393.5,-256"/>
<path fill="none" stroke="#000000" d="M1393.5,-256C1396.1996,-256.3351 1398.9963,-256.5801 1401.815,-256.7531"/>
<polygon fill="#000000" stroke="#000000" points="1401.8731,-260.2569 1411.9856,-257.0969 1402.1096,-253.2609 1401.8731,-260.2569"/>
<text text-anchor="middle" x="1335.5" y="-73.8" font-family="Times,serif" font-size="14.00" fill="#000000">note sound</text>
</g>
<!-- chan2&#45;&gt;mux -->
<g id="edge9" class="edge">
<title>chan2&#45;&gt;mux</title>
<path fill="none" stroke="#000000" d="M1259.1467,-85.0521C1299.454,-86.7651 1345.5498,-96.4268 1375,-127 1395.0911,-147.8573 1364.9758,-250.9951 1393.5,-256"/>
<text text-anchor="middle" x="1335.5" y="-130.8" font-family="Times,serif" font-size="14.00" fill="#000000">note sound</text>
</g>
<!-- chan3&#45;&gt;mux -->
<g id="edge11" class="edge">
<title>chan3&#45;&gt;mux</title>
<path fill="none" stroke="#000000" d="M1259.3278,-141.9527C1298.9402,-143.9588 1344.361,-153.4346 1375,-182 1399.7961,-205.1179 1360.2674,-249.3007 1393.5,-256"/>
<text text-anchor="middle" x="1335.5" y="-185.8" font-family="Times,serif" font-size="14.00" fill="#000000">note sound</text>
</g>
<!-- chan4&#45;&gt;mux -->
<g id="edge13" class="edge">
<title>chan4&#45;&gt;mux</title>
<path fill="none" stroke="#000000" d="M1259.2572,-198.2121C1297.0142,-199.6556 1340.8679,-206.7782 1375,-228 1387.6667,-235.8756 1378.9145,-252.8804 1393.5,-256"/>
<text text-anchor="middle" x="1335.5" y="-231.8" font-family="Times,serif" font-size="14.00" fill="#000000">note sound</text>
</g>
<!-- chan5&#45;&gt;mux -->
<g id="edge15" class="edge">
<title>chan5&#45;&gt;mux</title>
<path fill="none" stroke="#000000" d="M1259.0363,-249.439C1299.8641,-246.803 1349.7234,-246.8016 1393.5,-256"/>
<text text-anchor="middle" x="1335.5" y="-255.8" font-family="Times,serif" font-size="14.00" fill="#000000">note sound</text>
</g>
<!-- chan6&#45;&gt;mux -->
<g id="edge17" class="edge">
<title>chan6&#45;&gt;mux</title>
<path fill="none" stroke="#000000" d="M1259.2971,-305.4368C1296.014,-299.0021 1339.0112,-288.3838 1375,-271 1384.5316,-266.3959 1383.1045,-254.004 1393.5,-256"/>
<text text-anchor="middle" x="1335.5" y="-300.8" font-family="Times,serif" font-size="14.00" fill="#000000">note sound</text>
</g>
<!-- chan7&#45;&gt;mux -->
<g id="edge19" class="edge">
<title>chan7&#45;&gt;mux</title>
<path fill="none" stroke="#000000" d="M1259.28,-366.1933C1298.8802,-359.7939 1344.3046,-345.8437 1375,-316 1395.0078,-296.5474 1366.0098,-251.2036 1393.5,-256"/>
<text text-anchor="middle" x="1335.5" y="-360.8" font-family="Times,serif" font-size="14.00" fill="#000000">note sound</text>
</g>
<!-- chan8&#45;&gt;mux -->
<g id="edge21" class="edge">
<title>chan8&#45;&gt;mux</title>
<path fill="none" stroke="#000000" d="M1259.0636,-426.0948C1299.602,-421.1893 1345.9326,-408.1018 1375,-376 1393.1102,-355.9992 1366.8231,-251.9556 1393.5,-256"/>
<text text-anchor="middle" x="1335.5" y="-421.8" font-family="Times,serif" font-size="14.00" fill="#000000">note sound</text>
</g>
<!-- mux&#45;&gt;jack -->
<g id="edge22" class="edge">
<title>mux&#45;&gt;jack</title>
<path fill="none" stroke="#000000" d="M1466.2299,-256C1500.9911,-256 1561.7685,-256 1604.7491,-256"/>
<polygon fill="#000000" stroke="#000000" points="1604.9931,-259.5001 1614.9931,-256 1604.993,-252.5001 1604.9931,-259.5001"/>
<text text-anchor="middle" x="1540.5" y="-259.8" font-family="Times,serif" font-size="14.00" fill="#000000">combined audio</text>
</g>
</g>
</svg>
