<?xml version="1.0" encoding="UTF-8" standalone="no"?>
<!DOCTYPE svg PUBLIC "-//W3C//DTD SVG 1.1//EN"
 "http://www.w3.org/Graphics/SVG/1.1/DTD/svg11.dtd">
<!-- Generated by graphviz version 2.40.1 (20161225.0304)
 -->
<!-- Title: G Pages: 1 -->
<svg width="1494pt" height="493pt"
 viewBox="0.00 0.00 1494.00 493.00" xmlns="http://www.w3.org/2000/svg" xmlns:xlink="http://www.w3.org/1999/xlink">
<g id="graph0" class="graph" transform="scale(1 1) rotate(0) translate(4 489)">
<title>G</title>
<polygon fill="#ffffff" stroke="transparent" points="-4,4 -4,-489 1490,-489 1490,4 -4,4"/>
<g id="clust1" class="cluster">
<title>cluster_0</title>
<polygon fill="none" stroke="#ff0000" points="133,-230 133,-305 380,-305 380,-230 133,-230"/>
<text text-anchor="middle" x="256.5" y="-289.8" font-family="Times,serif" font-size="14.00" fill="#000000">Mikroprosessor</text>
</g>
<g id="clust2" class="cluster">
<title>cluster_1</title>
<polygon fill="none" stroke="#0000ff" points="714,-8 714,-477 1302,-477 1302,-8 714,-8"/>
<text text-anchor="middle" x="1008" y="-461.8" font-family="Times,serif" font-size="14.00" fill="#000000">FPGA</text>
</g>
<!-- midi -->
<g id="node1" class="node">
<title>midi</title>
<polygon fill="#ffbbbb" stroke="#ffbbbb" points="85,-331 19,-331 19,-293 85,-293 85,-331"/>
<text text-anchor="middle" x="52" y="-315.8" font-family="Times,serif" font-size="14.00" fill="#000000">MIDI</text>
<text text-anchor="middle" x="52" y="-300.8" font-family="Times,serif" font-size="14.00" fill="#000000">inputport</text>
</g>
<!-- micro_input_handler -->
<g id="node5" class="node">
<title>micro_input_handler</title>
<polygon fill="#bbbbff" stroke="#bbbbff" points="230,-274 141,-274 141,-238 230,-238 230,-274"/>
<text text-anchor="middle" x="185.5" y="-252.3" font-family="Times,serif" font-size="14.00" fill="#000000">input handler</text>
</g>
<!-- midi&#45;&gt;micro_input_handler -->
<g id="edge3" class="edge">
<title>midi&#45;&gt;micro_input_handler</title>
<path fill="none" stroke="#000000" d="M85.2563,-297.2727C91.8723,-293.4959 98.4748,-289.0494 104,-284 115.0102,-273.938 107.5846,-256.0353 122.5,-256"/>
</g>
<!-- btn -->
<g id="node2" class="node">
<title>btn</title>
<polygon fill="#ffbbbb" stroke="#ffbbbb" points="104,-275 0,-275 0,-237 104,-237 104,-275"/>
<text text-anchor="middle" x="52" y="-259.8" font-family="Times,serif" font-size="14.00" fill="#000000">Knapper x12</text>
<text text-anchor="middle" x="52" y="-244.8" font-family="Times,serif" font-size="14.00" fill="#000000">(force sensitive)</text>
</g>
<!-- btn&#45;&gt;micro_input_handler -->
<g id="edge4" class="edge">
<title>btn&#45;&gt;micro_input_handler</title>
<path fill="none" stroke="#000000" d="M104.3587,-256.0275C110.4746,-256.0226 116.625,-256.0139 122.5,-256"/>
</g>
<!-- vol -->
<g id="node3" class="node">
<title>vol</title>
<polygon fill="#ffbbbb" stroke="#ffbbbb" points="98,-219 6,-219 6,-183 98,-183 98,-219"/>
<text text-anchor="middle" x="52" y="-197.3" font-family="Times,serif" font-size="14.00" fill="#000000">Volume knob</text>
</g>
<!-- vol&#45;&gt;micro_input_handler -->
<g id="edge2" class="edge">
<title>vol&#45;&gt;micro_input_handler</title>
<path fill="none" stroke="#000000" d="M92.0142,-219.0387C96.2749,-221.7424 100.3711,-224.7333 104,-228 115.0855,-237.979 107.5846,-256.0353 122.5,-256"/>
<path fill="none" stroke="#000000" d="M122.5,-256C125.1763,-255.9937 127.9165,-255.9886 130.684,-255.9845"/>
<polygon fill="#000000" stroke="#000000" points="130.7626,-259.4845 140.7589,-255.9739 130.7552,-252.4845 130.7626,-259.4845"/>
</g>
<!-- jack -->
<g id="node4" class="node">
<title>jack</title>
<polygon fill="#ffbbbb" stroke="#ffbbbb" points="1486,-274 1418,-274 1418,-238 1486,-238 1486,-274"/>
<text text-anchor="middle" x="1452" y="-252.3" font-family="Times,serif" font-size="14.00" fill="#000000">MiniJack</text>
</g>
<!-- delegator -->
<g id="node6" class="node">
<title>delegator</title>
<polygon fill="#bbbbff" stroke="#bbbbff" points="372,-274 305,-274 305,-238 372,-238 372,-274"/>
<text text-anchor="middle" x="338.5" y="-252.3" font-family="Times,serif" font-size="14.00" fill="#000000">delegator</text>
</g>
<!-- micro_input_handler&#45;&gt;delegator -->
<g id="edge1" class="edge">
<title>micro_input_handler&#45;&gt;delegator</title>
<path fill="none" stroke="#000000" d="M230.1652,-256C250.4451,-256 274.3578,-256 294.5509,-256"/>
<polygon fill="#000000" stroke="#000000" points="294.7326,-259.5001 304.7326,-256 294.7326,-252.5001 294.7326,-259.5001"/>
</g>
<!-- fpga_input_handler -->
<g id="node7" class="node">
<title>fpga_input_handler</title>
<polygon fill="#bbbbff" stroke="#bbbbff" points="844,-274 722,-274 722,-238 844,-238 844,-274"/>
<text text-anchor="middle" x="783" y="-252.3" font-family="Times,serif" font-size="14.00" fill="#000000">fpga_input_handler</text>
</g>
<!-- delegator&#45;&gt;fpga_input_handler -->
<g id="edge5" class="edge">
<title>delegator&#45;&gt;fpga_input_handler</title>
<path fill="none" stroke="#000000" d="M372.2746,-256C444.3805,-256 614.7038,-256 711.8559,-256"/>
<polygon fill="#000000" stroke="#000000" points="711.8878,-259.5001 721.8878,-256 711.8878,-252.5001 711.8878,-259.5001"/>
<text text-anchor="middle" x="547" y="-319.8" font-family="Times,serif" font-size="14.00" fill="#000000">SPI packet. one of:</text>
<text text-anchor="middle" x="547" y="-304.8" font-family="Times,serif" font-size="14.00" fill="#000000">========================</text>
<text text-anchor="start" x="390" y="-289.8" font-family="Times,serif" font-size="14.00" fill="#000000">microcontroller_send_global_state_update()</text>
<text text-anchor="start" x="390" y="-274.8" font-family="Times,serif" font-size="14.00" fill="#000000">microcontroller_send_generator_update(generator_index)</text>
<text text-anchor="middle" x="547" y="-259.8" font-family="Times,serif" font-size="14.00" fill="#000000"> </text>
</g>
<!-- chan1 -->
<g id="node8" class="node">
<title>chan1</title>
<polygon fill="#bbbbff" stroke="#bbbbff" points="1106,-54 978,-54 978,-16 1106,-16 1106,-54"/>
<text text-anchor="middle" x="1042" y="-38.8" font-family="Times,serif" font-size="14.00" fill="#000000">Polytone channel #1</text>
<text text-anchor="middle" x="1042" y="-23.8" font-family="Times,serif" font-size="14.00" fill="#000000">(sound generator)</text>
</g>
<!-- fpga_input_handler&#45;&gt;chan1 -->
<g id="edge6" class="edge">
<title>fpga_input_handler&#45;&gt;chan1</title>
<path fill="none" stroke="#000000" d="M844.3978,-258.2061C850.5405,-257.7676 856.6609,-257.0622 862.5,-256"/>
<path fill="none" stroke="#000000" d="M862.5,-256C900.9741,-249.0009 855.8401,-110.937 881,-81 902.2645,-55.6979 936.3973,-43.797 967.7739,-38.3845"/>
<polygon fill="#000000" stroke="#000000" points="968.4876,-41.8162 977.8445,-36.8464 967.4307,-34.8964 968.4876,-41.8162"/>
<text text-anchor="middle" x="911" y="-84.8" font-family="Times,serif" font-size="14.00" fill="#000000">note sound</text>
</g>
<!-- chan2 -->
<g id="node9" class="node">
<title>chan2</title>
<polygon fill="#bbbbff" stroke="#bbbbff" points="1106,-110 978,-110 978,-72 1106,-72 1106,-110"/>
<text text-anchor="middle" x="1042" y="-94.8" font-family="Times,serif" font-size="14.00" fill="#000000">Polytone channel #2</text>
<text text-anchor="middle" x="1042" y="-79.8" font-family="Times,serif" font-size="14.00" fill="#000000">(sound generator)</text>
</g>
<!-- fpga_input_handler&#45;&gt;chan2 -->
<g id="edge8" class="edge">
<title>fpga_input_handler&#45;&gt;chan2</title>
<path fill="none" stroke="#000000" d="M862.5,-256C888.8663,-250.2701 863.0953,-156.185 881,-136 902.8098,-111.4127 936.8289,-99.7725 967.9877,-94.4363"/>
<polygon fill="#000000" stroke="#000000" points="968.6241,-97.8798 977.9846,-92.9168 967.5721,-90.9593 968.6241,-97.8798"/>
<text text-anchor="middle" x="911" y="-139.8" font-family="Times,serif" font-size="14.00" fill="#000000">note sound</text>
</g>
<!-- chan3 -->
<g id="node10" class="node">
<title>chan3</title>
<polygon fill="#bbbbff" stroke="#bbbbff" points="1106,-166 978,-166 978,-128 1106,-128 1106,-166"/>
<text text-anchor="middle" x="1042" y="-150.8" font-family="Times,serif" font-size="14.00" fill="#000000">Polytone channel #3</text>
<text text-anchor="middle" x="1042" y="-135.8" font-family="Times,serif" font-size="14.00" fill="#000000">(sound generator)</text>
</g>
<!-- fpga_input_handler&#45;&gt;chan3 -->
<g id="edge10" class="edge">
<title>fpga_input_handler&#45;&gt;chan3</title>
<path fill="none" stroke="#000000" d="M862.5,-256C893.355,-248.5156 858.3435,-209.2426 881,-187 903.8043,-164.6124 937.0858,-154.1172 967.4783,-149.4111"/>
<polygon fill="#000000" stroke="#000000" points="968.2176,-152.8429 977.6553,-148.0283 967.2751,-145.9067 968.2176,-152.8429"/>
<text text-anchor="middle" x="911" y="-190.8" font-family="Times,serif" font-size="14.00" fill="#000000">note sound</text>
</g>
<!-- chan4 -->
<g id="node11" class="node">
<title>chan4</title>
<polygon fill="#bbbbff" stroke="#bbbbff" points="1106,-222 978,-222 978,-184 1106,-184 1106,-222"/>
<text text-anchor="middle" x="1042" y="-206.8" font-family="Times,serif" font-size="14.00" fill="#000000">Polytone channel #4</text>
<text text-anchor="middle" x="1042" y="-191.8" font-family="Times,serif" font-size="14.00" fill="#000000">(sound generator)</text>
</g>
<!-- fpga_input_handler&#45;&gt;chan4 -->
<g id="edge12" class="edge">
<title>fpga_input_handler&#45;&gt;chan4</title>
<path fill="none" stroke="#000000" d="M862.5,-256C876.605,-252.4427 868.7148,-236.7897 881,-229 906.5609,-212.7926 938.8471,-205.5871 967.7854,-202.6917"/>
<polygon fill="#000000" stroke="#000000" points="968.1954,-206.1696 977.865,-201.8396 967.6057,-199.1945 968.1954,-206.1696"/>
<text text-anchor="middle" x="911" y="-232.8" font-family="Times,serif" font-size="14.00" fill="#000000">note sound</text>
</g>
<!-- chan5 -->
<g id="node12" class="node">
<title>chan5</title>
<polygon fill="#bbbbff" stroke="#bbbbff" points="1106,-278 978,-278 978,-240 1106,-240 1106,-278"/>
<text text-anchor="middle" x="1042" y="-262.8" font-family="Times,serif" font-size="14.00" fill="#000000">Polytone channel #5</text>
<text text-anchor="middle" x="1042" y="-247.8" font-family="Times,serif" font-size="14.00" fill="#000000">(sound generator)</text>
</g>
<!-- fpga_input_handler&#45;&gt;chan5 -->
<g id="edge14" class="edge">
<title>fpga_input_handler&#45;&gt;chan5</title>
<path fill="none" stroke="#000000" d="M862.5,-256C896.3571,-247.6418 934.9086,-247.163 967.583,-249.2725"/>
<polygon fill="#000000" stroke="#000000" points="967.7405,-252.7937 977.9716,-250.0417 968.2574,-245.8128 967.7405,-252.7937"/>
<text text-anchor="middle" x="911" y="-254.8" font-family="Times,serif" font-size="14.00" fill="#000000">note sound</text>
</g>
<!-- chan6 -->
<g id="node13" class="node">
<title>chan6</title>
<polygon fill="#bbbbff" stroke="#bbbbff" points="1106,-334 978,-334 978,-296 1106,-296 1106,-334"/>
<text text-anchor="middle" x="1042" y="-318.8" font-family="Times,serif" font-size="14.00" fill="#000000">Polytone channel #6</text>
<text text-anchor="middle" x="1042" y="-303.8" font-family="Times,serif" font-size="14.00" fill="#000000">(sound generator)</text>
</g>
<!-- fpga_input_handler&#45;&gt;chan6 -->
<g id="edge16" class="edge">
<title>fpga_input_handler&#45;&gt;chan6</title>
<path fill="none" stroke="#000000" d="M862.5,-256C872.5571,-253.725 871.7614,-265.4207 881,-270 908.099,-283.4322 939.8152,-293.3856 967.8987,-300.4666"/>
<polygon fill="#000000" stroke="#000000" points="967.1222,-303.8798 977.6671,-302.8524 968.7831,-297.0797 967.1222,-303.8798"/>
<text text-anchor="middle" x="911" y="-295.8" font-family="Times,serif" font-size="14.00" fill="#000000">note sound</text>
</g>
<!-- chan7 -->
<g id="node14" class="node">
<title>chan7</title>
<polygon fill="#bbbbff" stroke="#bbbbff" points="1106,-390 978,-390 978,-352 1106,-352 1106,-390"/>
<text text-anchor="middle" x="1042" y="-374.8" font-family="Times,serif" font-size="14.00" fill="#000000">Polytone channel #7</text>
<text text-anchor="middle" x="1042" y="-359.8" font-family="Times,serif" font-size="14.00" fill="#000000">(sound generator)</text>
</g>
<!-- fpga_input_handler&#45;&gt;chan7 -->
<g id="edge18" class="edge">
<title>fpga_input_handler&#45;&gt;chan7</title>
<path fill="none" stroke="#000000" d="M862.5,-256C887.7595,-250.7948 863.06,-292.4719 881,-311 904.1233,-334.8813 937.6237,-349.3408 968.0849,-358.0559"/>
<polygon fill="#000000" stroke="#000000" points="967.2848,-361.465 977.8511,-360.6882 969.1066,-354.7063 967.2848,-361.465"/>
<text text-anchor="middle" x="911" y="-351.8" font-family="Times,serif" font-size="14.00" fill="#000000">note sound</text>
</g>
<!-- chan8 -->
<g id="node15" class="node">
<title>chan8</title>
<polygon fill="#bbbbff" stroke="#bbbbff" points="1106,-446 978,-446 978,-408 1106,-408 1106,-446"/>
<text text-anchor="middle" x="1042" y="-430.8" font-family="Times,serif" font-size="14.00" fill="#000000">Polytone channel #8</text>
<text text-anchor="middle" x="1042" y="-415.8" font-family="Times,serif" font-size="14.00" fill="#000000">(sound generator)</text>
</g>
<!-- fpga_input_handler&#45;&gt;chan8 -->
<g id="edge20" class="edge">
<title>fpga_input_handler&#45;&gt;chan8</title>
<path fill="none" stroke="#000000" d="M862.5,-256C887.1132,-251.5799 865.0897,-347.7073 881,-367 902.492,-393.061 936.4744,-407.8063 967.6912,-416.1474"/>
<polygon fill="#000000" stroke="#000000" points="967.1611,-419.622 977.71,-418.6367 968.8491,-412.8286 967.1611,-419.622"/>
<text text-anchor="middle" x="911" y="-410.8" font-family="Times,serif" font-size="14.00" fill="#000000">note sound</text>
</g>
<!-- adder -->
<g id="node16" class="node">
<title>adder</title>
<polygon fill="#bbbbff" stroke="#bbbbff" points="1294,-274 1240,-274 1240,-238 1294,-238 1294,-274"/>
<text text-anchor="middle" x="1267" y="-252.3" font-family="Times,serif" font-size="14.00" fill="#000000">adder</text>
</g>
<!-- chan1&#45;&gt;adder -->
<g id="edge7" class="edge">
<title>chan1&#45;&gt;adder</title>
<path fill="none" stroke="#000000" d="M1106.1555,-36.8464C1140.0639,-41.3781 1179.4341,-52.9596 1203,-81 1228.1599,-110.937 1183.0259,-249.0009 1221.5,-256"/>
<path fill="none" stroke="#000000" d="M1221.5,-256C1224.1912,-256.3969 1226.9817,-256.6871 1229.7962,-256.892"/>
<polygon fill="#000000" stroke="#000000" points="1229.826,-260.3959 1239.9582,-257.2992 1230.1064,-253.4015 1229.826,-260.3959"/>
<text text-anchor="middle" x="1173" y="-84.8" font-family="Times,serif" font-size="14.00" fill="#000000">note sound</text>
</g>
<!-- chan2&#45;&gt;adder -->
<g id="edge9" class="edge">
<title>chan2&#45;&gt;adder</title>
<path fill="none" stroke="#000000" d="M1106.0154,-92.9168C1139.6647,-97.4047 1178.8298,-108.7517 1203,-136 1220.9047,-156.185 1195.1337,-250.2701 1221.5,-256"/>
<text text-anchor="middle" x="1173" y="-139.8" font-family="Times,serif" font-size="14.00" fill="#000000">note sound</text>
</g>
<!-- chan3&#45;&gt;adder -->
<g id="edge11" class="edge">
<title>chan3&#45;&gt;adder</title>
<path fill="none" stroke="#000000" d="M1106.3447,-148.0283C1139.2558,-151.8963 1177.6178,-162.0816 1203,-187 1225.6565,-209.2426 1190.645,-248.5156 1221.5,-256"/>
<text text-anchor="middle" x="1173" y="-190.8" font-family="Times,serif" font-size="14.00" fill="#000000">note sound</text>
</g>
<!-- chan4&#45;&gt;adder -->
<g id="edge13" class="edge">
<title>chan4&#45;&gt;adder</title>
<path fill="none" stroke="#000000" d="M1106.135,-201.8396C1137.446,-204.0131 1174.4254,-210.8817 1203,-229 1215.2852,-236.7897 1207.395,-252.4427 1221.5,-256"/>
<text text-anchor="middle" x="1173" y="-232.8" font-family="Times,serif" font-size="14.00" fill="#000000">note sound</text>
</g>
<!-- chan5&#45;&gt;adder -->
<g id="edge15" class="edge">
<title>chan5&#45;&gt;adder</title>
<path fill="none" stroke="#000000" d="M1106.0284,-250.0417C1140.692,-247.1517 1183.9787,-246.7373 1221.5,-256"/>
<text text-anchor="middle" x="1173" y="-254.8" font-family="Times,serif" font-size="14.00" fill="#000000">note sound</text>
</g>
<!-- chan6&#45;&gt;adder -->
<g id="edge17" class="edge">
<title>chan6&#45;&gt;adder</title>
<path fill="none" stroke="#000000" d="M1106.3329,-302.8524C1136.6417,-295.6844 1172.7059,-285.016 1203,-270 1212.2386,-265.4207 1211.4429,-253.725 1221.5,-256"/>
<text text-anchor="middle" x="1173" y="-295.8" font-family="Times,serif" font-size="14.00" fill="#000000">note sound</text>
</g>
<!-- chan7&#45;&gt;adder -->
<g id="edge19" class="edge">
<title>chan7&#45;&gt;adder</title>
<path fill="none" stroke="#000000" d="M1106.1489,-360.6882C1139.0036,-352.3602 1177.3742,-337.4659 1203,-311 1220.94,-292.4719 1196.2405,-250.7948 1221.5,-256"/>
<text text-anchor="middle" x="1173" y="-351.8" font-family="Times,serif" font-size="14.00" fill="#000000">note sound</text>
</g>
<!-- chan8&#45;&gt;adder -->
<g id="edge21" class="edge">
<title>chan8&#45;&gt;adder</title>
<path fill="none" stroke="#000000" d="M1106.29,-418.6367C1140.0237,-410.8654 1179.182,-395.8815 1203,-367 1218.9103,-347.7073 1196.8868,-251.5799 1221.5,-256"/>
<text text-anchor="middle" x="1173" y="-410.8" font-family="Times,serif" font-size="14.00" fill="#000000">note sound</text>
</g>
<!-- adder&#45;&gt;jack -->
<g id="edge22" class="edge">
<title>adder&#45;&gt;jack</title>
<path fill="none" stroke="#000000" d="M1294.2974,-256C1324.2111,-256 1372.6353,-256 1407.9422,-256"/>
<polygon fill="#000000" stroke="#000000" points="1407.984,-259.5001 1417.984,-256 1407.984,-252.5001 1407.984,-259.5001"/>
<text text-anchor="middle" x="1356" y="-259.8" font-family="Times,serif" font-size="14.00" fill="#000000">combined audio</text>
</g>
</g>
</svg>
